<svg xmlns="http://www.w3.org/2000/svg" width="24.495" height="25.158" viewBox="4.75 -7.604 24.495 25.158" enable-background="new 4.75 -7.604 24.495 25.158"><polygon fill="#B7B4AE" points="27.359,10.92 24.73,11.521 25.969,12.729 29.119,12.02 29.245,12.729 25.875,13.51 26,17.555 25.322,17.555 25.225,13.617 24.018,12.445 23.958,15.496 23.338,15.496 23.434,11.842 22.133,10.602 22.041,13.652 21.422,13.617 21.547,10.031 17,5.599 12.451,9.996 12.576,13.617 11.959,13.652 11.833,10.602 10.566,11.842 10.657,15.496 10.039,15.496 9.947,12.445 8.74,13.617 8.681,17.555 8,17.555 8.093,13.51 4.75,12.729 4.875,12.02 8,12.729 9.236,11.521 6.639,10.92 6.764,10.175 9.888,10.884 11.154,9.679 8.523,9.039 8.617,8.364 11.74,9.077 16.162,4.782 6.205,-4.906 5.308,-2.601 4.965,-2.812 4.75,-7.035 4.841,-7.143 8.497,-7.604 8.74,-7.209 6.885,-5.828 17,4 27.115,-5.828 25.257,-7.209 25.505,-7.604 29.152,-7.143 29.245,-7.035 29.031,-2.812 28.689,-2.601 27.793,-4.906 17.803,4.782 22.227,9.077 25.381,8.364 25.474,9.039 22.845,9.679 24.113,10.92 24.113,10.884 27.238,10.175"/></svg>