<svg xmlns="http://www.w3.org/2000/svg" width="25" height="30"><path fill="#010101" d="M20.255 28.325c-4.784.167-8.364.167-12.733.25-1.665 0-3.33.125-4.786-.374-.499-.792-.25-1.79-.25-2.747 0-4.536-.081-9.821-.081-14.647v-4.058c.041-1.54-.335-4.985 1.123-5.111 1.079-.126 2.37.042 3.495.042 3.91 0 8.112-.042 11.984.041.914 0 3.037-.249 3.578.208.457.375.499 3.156.541 4.154.207 2.747-.166 6.928-.166 9.883 0 2.039-.25 4.037-.334 5.993l-.125 5.991c-.583.459-1.454.334-2.246.375zm-1.954-26.146c-2.125 0-3.83-.25-5.328-.125-3.537.333-7.116-.291-9.863.25-.417.874-.209 4.195-.209 5.318 6.243.126 13.4-.082 19.85-.291-.208-.75.21-4.445-.497-5.028-.584-.416-2.748-.124-3.953-.124zm-15.4 22.401c2.582 0 5.411.042 7.907-.042 3.662-.166 7.367.084 11.194-.25.332-4.992.54-11.089.708-16.332-6.45-.168-13.315.248-19.809.291-.081 4.952 0 11.63 0 16.333zm.292 3.287c1.58.417 3.246.251 4.828.251 3.203 0 6.198-.168 8.28-.208 1.748 0 3.412.124 5.616-.251.167-.707.209-2.164-.039-2.788h-.084c-6.285.208-12.734.042-18.894.292.127.915-.123 2.039.293 2.704zm17.341-16.562c-1.454.291-1.819.083-3.358.125-4.495.167-8.011.416-12.423.25-.166-.374-.208-1.124.042-1.457 4.619-.374 8.387-.125 13.171-.332 1.165-.042 1.198-.083 2.404.041.251.25.374.999.164 1.373zm-4.483-.874c-1.08.042-2.662-.125-3.992-.042l-3.52.167c-.541 0-1.206.042-1.956.042-.249 0-1.706-.084-1.496.54.124.375 1.414.25 1.997.25 5.117 0 7.961-.582 13.076-.458.126-.833-.832-.625-1.455-.583-1.207.042-1.529.084-2.654.084zm-7.656-4.562c-1.289-.042-2.871.333-4.035 0-.084-.458-.168-1.332 0-1.873l2.164-.083c.624-.041 1.455-.125 1.913.208.166.542.042 1.249-.042 1.748zm-3.579-.291c1.082 0 1.997-.125 3.08-.083.125-.25.166-.832.082-1.124-1.039.084-2.246 0-3.162.042-.125.25-.043.79 0 1.165zm14.607 14.549c0 .624.042 1.789-.292 2.08-.416.458-2.496.333-3.453.375l-3.663-.042c-2.538 0-4.785 0-7.033-.166-.081-1.291-.081-2.788 0-4.286.043-1.499-.165-3.039.167-4.287 1.83-.208 3.871-.25 5.91-.25 2.04 0 4.077-.083 5.993-.167.581-.041 1.54-.124 2.204.042.458 1.832.25 4.162.167 6.701zm-13.773-5.91c-.211 1.79-.211 4.246-.167 6.159 0 .583-.168 1.207.206 1.582 2.873.166 6.242.166 9.07.124 1.5-.041 2.957.125 4.039-.291.25-2.455.332-5.326.209-7.865-.583-.083-1.166-.125-1.707-.083-3.869.167-7.864.167-11.65.374zm3.995 2.206c-.25.333-.544.873-.834 1.249-.248.332-.832 1.372-1.205.916.624-.958 1.579-2.373 2.371-3.205.084-.083.416-.208.582.041-.124.416-.582.625-.914.999zm.372 3.12c-.248 0-.332-.124-.416-.248.333-.583.876-1.249 1.333-1.956.499-.708.915-1.415 1.416-1.873.125-.083.414-.166.623.083-1.124 1.207-2.039 2.58-2.956 3.994zm5.535-3.494c-.872.791-1.663 1.83-2.413 2.871-.248.332-.581 1.082-1.124.874.044-.458.46-.792.792-1.206.789-1.041 1.748-2.498 2.787-3.122.126-.042.29-.125.457.125-.039.291-.291.333-.499.458zm-1.271-11.35c.164 1.249-2.167 1.831-2.583.791-.374-.874.416-1.415 1.248-1.498.625-.083 1.249.125 1.335.707zm-.625-.041c-1.043-1.124-2.416 1.29-.418.874.251-.167.541-.542.418-.874zm1.75.624c-.207-1.207 1.747-1.832 2.33-.708.165 1.248-2.123 1.956-2.33.708zm1.787-.583c-.332-.708-1.746 0-1.08.749.54.125.998-.25 1.08-.749zm3.956.541c-.165.708-1.58.79-2.206.333-.997-1.998 2.666-2.206 2.206-.333zm-.458-.166c-.039-.25-.083-.458-.207-.583-.623-.166-1.287.042-1.164.791.373.25 1.164.208 1.371-.208z"/></svg>