<svg xmlns="http://www.w3.org/2000/svg" width="4" height="75"><path fill="#808285" d="M.5 72.5c0 .828.672 1.5 1.5 1.5s1.5-.672 1.5-1.5-.672-1.5-1.5-1.5-1.5.672-1.5 1.5zm0-7c0 .828.672 1.5 1.5 1.5s1.5-.672 1.5-1.5-.672-1.5-1.5-1.5-1.5.672-1.5 1.5zm0-7c0 .828.672 1.5 1.5 1.5s1.5-.672 1.5-1.5-.672-1.5-1.5-1.5-1.5.672-1.5 1.5zm0-7c0 .828.672 1.5 1.5 1.5s1.5-.672 1.5-1.5-.672-1.5-1.5-1.5-1.5.672-1.5 1.5zm0-7c0 .828.672 1.5 1.5 1.5s1.5-.672 1.5-1.5c0-.829-.672-1.5-1.5-1.5s-1.5.671-1.5 1.5zm0-7c0 .828.672 1.5 1.5 1.5s1.5-.672 1.5-1.5c0-.829-.672-1.5-1.5-1.5s-1.5.671-1.5 1.5zm0-7c0 .828.672 1.5 1.5 1.5s1.5-.672 1.5-1.5c0-.829-.672-1.5-1.5-1.5s-1.5.671-1.5 1.5zm0-7c0 .828.672 1.5 1.5 1.5s1.5-.672 1.5-1.5c0-.829-.672-1.5-1.5-1.5s-1.5.671-1.5 1.5zm0-7c0 .828.672 1.5 1.5 1.5s1.5-.672 1.5-1.5c0-.829-.672-1.5-1.5-1.5s-1.5.671-1.5 1.5zm0-7c0 .828.672 1.5 1.5 1.5s1.5-.672 1.5-1.5c0-.829-.672-1.5-1.5-1.5s-1.5.671-1.5 1.5zm0-7c0 .828.672 1.5 1.5 1.5s1.5-.672 1.5-1.5c0-.829-.672-1.5-1.5-1.5s-1.5.671-1.5 1.5z"/></svg>