<svg xmlns="http://www.w3.org/2000/svg" width="170" height="110"><path fill="#010101" d="M71.464 99.34l-2.516 1.516 1.629 2.697-4.654 2.803-5.366-8.902 7.062-4.25c2.683-1.62 4.805-1.037 5.779.58l.076.133c.976 1.618.662 3.812-2.01 5.423zm-2.477-2.227c-.298-.494-.655-.605-1.351-.188l-.772.468.907 1.51.776-.468c.693-.419.749-.815.468-1.282l-.028-.04z"/><path fill="#010101" d="M79.436 98.217l-5.361-8.9 4.653-2.804 5.354 8.904-4.646 2.8z"/><path fill="#010101" d="M86.893 93.726l-5.359-8.903 10.198-6.141 1.714 2.845-5.546 3.341.508.842 3.473-2.093.82 1.363-3.475 2.096.461.76 5.545-3.342 1.859 3.09-10.198 6.142z"/><path fill="#010101" d="M104.885 83.344c-2.137 1.29-4.742 2.109-6.484 2.121l-.039-2.91c2.141-.321 3.965-1.039 5.086-1.715.775-.465 1.156-.896 1.008-1.138-.514-.854-6.742 3.773-8.789.377-1.02-1.7.006-4.229 3.654-6.426 2.516-1.514 4.914-2.123 6.18-2.173l-.119 2.857c-1.764.438-3.299 1.021-4.252 1.596-.64.387-.969.746-.816 1.003.571.946 6.426-3.672 8.397-.396 1.207 2.007.18 4.39-3.826 6.804z"/><g fill="#010101"><path d="M117.711 52.084l-.977 10.344c-.455 5.053.033 9.439.768 15.079.547 4.185 1.613 6.792 3.264 7.966.93.665 2.064.863 3.375.59 10.797-2.21 9.347-20.674 8.727-28.52-.078-1.01-.146-1.885-.176-2.521-.045-1.162-.187-2.546-.301-3.027l-.053-.223.219-.08c1.578-.568 3.078-1.898 4.454-3.955l.57-.847-1.024 10.839c-.21 2.33-.623 9.76.193 13.215 1.192 5.013 4.061 7.247 8.085 6.294 4.12-.976 5.636-5.309 6.833-9.668 1.109-4.009 1.029-8.424.953-12.692l-.023-1.328-.018-.816c-.071-3.033.172-4.688 3.066-6.693 2.918-2.018 7.99-5.531 10.183-8.239 1.378-1.71 3.05-7.459-1.147-6.487-.559.131-1.24.994-1.664 1.78-.666 1.228-1.003 1.817-1.713 2.811-1.407 1.96-3.325 3.411-4.877 4.187-.576.288-2.107 1.007-3.852 1.418-2.115.505-3.662.356-4.592-.438-.727-.616-1.044-1.606-.941-2.941.002-.134.034-.538.134-1.886l.005-.066.036-.054c.278-.435.62-.928 1.006-1.487 1.516-2.179 3.588-5.169 5.368-9.426 2.897-7.122 4.048-13.813 3.08-17.901-.639-2.686-2.314-5.672-6.66-4.643-2.699.641-4.938 2.628-6.654 5.912-1.691 3.21-2.996 10.75-3.004 10.827-.203 1.177-.459 3.097-.572 4.283l-1.498 15.667c-.105.227-.18.459-.214.703l-.017.078c-.855 4.834-3.088 8.125-5.967 8.806-.223.052-.522.122-.852.116h-.134l-.08-.114c-1.117-1.719-2.09-2.44-2.096-2.448-1.034-.744-1.799-2.392-1.709-3.664l.141-1.953.034-.055c.284-.436.622-.928 1.011-1.484 1.516-2.185 3.586-5.17 5.369-9.431 2.894-7.121 4.044-13.812 3.076-17.898-.634-2.688-2.309-5.674-6.657-4.643-2.698.642-4.937 2.629-6.651 5.913-1.695 3.207-2.994 10.75-3.008 10.825-.2 1.179-.459 3.1-.569 4.279l-1.373 14.471-.022-.002c-.07.574-.186 1.223-.294 1.805l-.038.185c-.783 3.726-2.771 6.302-5.309 6.905-.178.039-.354.071-.533.093l-.36.04.077-.352c1.084-5.111 1.184-9.223.3-12.934-.646-2.72-2.521-7.1-7.827-5.84-8.373 1.985-13.941 13.936-13.136 22.891l-.01.102c-.616 1.993-2.28 6.691-4.466 7.208-.455.106-.902.024-1.339-.253-1.933-1.236-3.114-6.219-3.535-8.301l-.036-.172.145-.094c4.541-3.074 6.778-7.994 5.705-12.531-.702-2.948-2.991-4.187-6.295-3.405-3.283.78-6.398 5.17-6.428 5.212-1.271 1.812-1.286 1.815-1.409 1.845l-.242.057-.066-.243c-.012-.056-.02-.08.186-2.287.23-2.466.621-4.913.967-7.365.666-4.718 2.938-13.692-5.012-12.387-4.578.752-3.864 6.445-4.29 10.057-.521 4.428-.599 8.898-1.004 13.323-.801 8.733-1.798 21.013-2.104 29.738-.123 3.43-2.174 12.48 4.375 9.404 4.239-1.994 5.765-7.996 5.407-12.291-.327-3.779-.036-10.877.339-14.707.05-.513.091-1.082.136-1.691.154-2.278.347-5.113 1.294-7.346.566-1.396 1.73-3.023 3.316-3.402.83-.197 1.896.025 2.194 1.293.808 3.393-3.017 7.277-5.944 8.918.593 5.416 3.737 17.427 11.592 15.377 3.438-.9 6.144-7.878 7.393-10.828l.23-.541.24.531c1.075 2.322 3.653 6.021 8.904 4.776 4.294-1.019 7.146-3.978 9.53-9.888l.057-.14.146-.019c2.303-.32 4.242-1.316 5.771-2.955l.518-.561zm28.589 19.514c-.657.152-1.517.019-1.881-1.518l-.237-1.048c.053-1.144.179-3.057.287-4.259l1.333-15.179c.2-2.25 2.713-2.075 3.623-.342.817 1.556.505 4.337.519 6.058.031 4.26-.148 8.803-1.404 12.906-.34 1.114-.907 3.065-2.24 3.382m-19.823 4.697c-.652.156-1.515.02-1.879-1.514l-.236-1.049c.049-1.154.18-3.066.287-4.262l1.336-15.176c.081-.922.604-1.607 1.365-1.789 3.712-.879 2.809 7.675 2.75 9.702-.101 3.755-.307 7.829-1.606 11.396-.348.948-.889 2.425-2.017 2.692m-22.497-17.444c-.57.134-1.072.071-1.497-.188-.858-.53-1.142-1.741-1.331-2.539l-.023-.107c-.76-3.215 0-17.889 4.682-18.997.553-.132 1.037-.07 1.443.179.838.52 1.124 1.742 1.313 2.554l.03.117c.25 1.065.32 2.185.206 3.427l-.012.129-.105.068c-2.837 1.757-4.09 5.006-3.267 8.483.324 1.354.846 2.312 1.598 2.925l.127.104-.041.159c-.296 1.172-1.104 3.204-3.123 3.686m44.721-30.177c-.108.027-.22 0-.308-.077-.121-.104-.24-.321-.17-1.137l1.13-13.113c.249-3.137.936-6.97 2.777-7.404 1.229-.292 1.511.913 1.703 1.706.629 2.68-.269 8.277-.934 10.527-.29.957-3.389 8.263-3.518 8.573-.317.748-.524.891-.68.925m-19.822 4.699c-.109.028-.22 0-.307-.074-.121-.107-.238-.323-.167-1.136l1.128-13.117c.251-3.135.932-6.968 2.773-7.402 1.231-.293 1.514.911 1.703 1.705.635 2.683-.269 8.281-.93 10.526-.295.958-3.393 8.262-3.523 8.573-.313.748-.518.892-.677.925"/><path d="M59.58 22.601c-1.757-7.408-9.403-8.207-12.612-8.207-1.623 0-3.284.19-4.791.546-.5.118-.984.249-1.467.385-.436 1.479-1.746 2.449-4.112 1.861 1.955.751 1.827 1.868 1.341 3.55-1.019 3.479-4.332 3.752-7.409 3.172 1.143 2.207 1.972 4.496.82 6.899-1.131 2.362-5.08 2.765-6.746.854.24 1.078-.266 2.31-.612 3.376-.354 1.092-.954 1.737-1.687 2.091-.059 2.233.177 4.561.743 6.959 1.285 5.413 4.696 10.101 8.31 15.064 3.819 5.251 7.774 10.688 9.345 17.327 2.447 10.313.9 22.319-10.765 25.087-1.11.262-2.239.396-3.356.396-2.889 0-5.582-.897-7.582-2.527-2.347-1.918-3.592-4.709-3.504-7.862.223-7.173 8.582-9.157 11.732-9.903 1.498-.355 2.768-1.275 3.578-2.59.811-1.315 1.061-2.865.704-4.362-.209-.894-.616-1.698-1.214-2.403l-.053-.072c-.062-.115-.13-.204-.214-.281l-.125-.123-.327-.232c-1.059-.861-2.356-1.327-3.676-1.327h-.051c-.624-.077-1.269-.118-1.938-.118-1.836 0-3.964.286-6.326.847-4.852 1.149-9.363 4.16-12.391 8.259-3.271 4.436-4.413 9.658-3.215 14.71 2.903 12.246 15.365 13.565 20.587 13.565 2.589 0 5.226-.3 7.628-.871 9.84-2.331 17.436-7.264 21.973-14.269 4.538-6.998 5.757-15.662 3.533-25.058-2.279-9.605-6.376-14.428-10.334-19.089-3.314-3.904-6.44-7.586-7.877-13.647-.735-3.11-.725-6.192.037-8.677.896-2.914 2.754-4.783 5.381-5.403.409-.101.826-.147 1.229-.147 3.361 0 5.713 3.378 5.791 6.531.042 1.667-.934 2.532-1.793 3.294-.88.783-1.64 1.459-1.324 2.873.457 2.017 2.126 2.442 3.448 2.442.521 0 1.071-.068 1.631-.196 2.572-.6 4.81-2.242 6.284-4.626 1.526-2.465 2.042-5.416 1.406-8.098"/></g></svg>