<svg xmlns="http://www.w3.org/2000/svg" width="80" height="80"><path fill-rule="evenodd" clip-rule="evenodd" fill="#524741" d="M78.498 34.035c-.587-2.774-1.117-5.436-2.068-7.843-5.438-13.738-18.364-25.509-37.834-25.208l-1.724.086-5.085.732c-4.422 1.134-8.557 2.492-11.937 4.698-8.961 5.85-15.242 13.463-18.054 25.51-1.024 4.381-1.311 10.763-.216 15.384.738 3.114 1.613 5.958 2.758 8.575 1.197 2.737 2.66 5.077 4.309 7.325.437.596.801 1.316 1.379 1.767l.172.043c.558-.408.302-1.876.302-2.844v-27.707c0-4.605-.117-9.307.991-12.756 1.958-6.094 6.465-10.304 12.496-12.367 3.137-1.072 7.886-1.296 11.247-.215 2.382.766 4.478 1.844 6.291 3.188 3.672 2.724 6.322 6.905 7.369 12.238.232 1.187.488 2.845.258 4.223-.094.562-.301 1.415-.172 1.939l.216.259c1.509.274 3.569-.267 5.171.043 6.052 1.169 10.239 3.938 13.229 8.145 1.222 1.717 2.059 3.748 2.801 5.945 1.085 3.21.805 7.91-.215 10.902-2.01 5.891-5.6 10.067-11.16 12.367-3.536 1.463-8.245 1.466-13.359 1.465h-26.846c-.886 0-2.719-.27-3.275.087-.103.071-.112.104-.173.216.317.668 1.198 1.036 1.767 1.465 1.769 1.332 3.719 2.543 5.861 3.49 2.904 1.285 5.992 2.479 9.523 3.232 3.055.65 7.337 1.061 10.73.473 2.137-.369 3.96-.378 5.859-.861 6.559-1.668 11.588-4.656 16.16-8.273 1.615-1.278 3.113-2.905 4.395-4.524 4.01-5.068 7.06-10.422 8.575-18.099.737-3.728 1.105-9.1.259-13.1zm-53.261-7.282l-1.293.173c-1.79.555-3.115 1.779-3.706 3.533-1.269 3.771 2.25 7.361 5.903 6.766 6.423-1.048 6.03-10.471-.904-10.472zm.56 8.833c-2.881.491-4.479-2.635-3.577-5.127.454-1.254 1.514-1.523 2.758-2.025 4.974-.087 5.139 6.418.819 7.152zm-10.169-8.531c-.223-.165-.842-.09-1.207-.086-.716.549-.388 6.021-.388 7.627 0 .621-.178 1.91.13 2.283.247.397 1.581.216 2.197.216 1.731 0 4.203.681 3.663-1.465-.899-.527-2.978-.068-4.05-.259-.507-.886-.035-5.102-.172-6.551-.051-.526.224-1.471-.173-1.765zm22.278 0c-.415.642-.584 1.374-.905 2.154-.527 1.28-1.166 2.614-1.551 4.008l-.129.086c-.373-.338-.398-1.092-.604-1.594-.604-1.473-1.103-3.328-1.939-4.654-.36-.092-.897-.096-1.379-.086-.628.484.101 1.716.388 2.413l2.327 5.774c.254.605.374 1.838 1.077 1.981.124.045.19.021.302-.043.532-.257.716-1.464.948-2.025l2.241-5.602c.142-.329.829-1.87.732-2.198-.128-.435-1.094-.341-1.508-.214zm7.972 1.293c.101-.408.071-.842-.042-1.207-.801-.453-3.898-.186-5.129-.172-.544.466-.388 1.582-.388 2.585v4.783c0 .831-.072 1.85.086 2.542.372.258 5.468.41 5.903.086.22-.162.225-.834.129-1.163-.332-.715-3.142-.272-4.137-.431-.268-.488-.143-1.658-.129-2.37.871-.509 4.561.542 2.93-1.767-2.211-.488-3.42 1.104-2.887-2.543.905-.48 2.841.178 3.664-.343zm-7.843 10.556l-.991.13c-.67.163-1.287.527-1.767.905-1.612 1.268-1.168 4.304.259 5.386.682.517 3.833 1.38 3.405 2.542-.739 1.95-4.148-.486-4.912-.388-.208.395-.081 1.013 0 1.466.08.453-.002.976.215 1.292 1.021 1.485 5.442 1.013 6.679.087.425-.318.74-.841.948-1.379.896-2.315-.406-4.13-1.896-4.999-.836-.487-1.842-.683-2.585-1.206-.065-.225-.123-.441 0-.647.639-1.295 2.75.135 3.576-.043.206-.346.129-.821.217-1.335.285-1.676-1.527-1.86-3.148-1.811zm-24.088 3.146v6.163c0 .854-.106 1.996.172 2.585.657.231 2.14.203 2.801 0 .321-.508.172-1.75.172-2.542v-6.249c0-.698.215-2.321-.215-2.628-.378-.354-1.812-.189-2.5-.172l-.172.128c-.479.305-.258 1.964-.258 2.715zm4.999 8.618c.296.506 2.443.32 2.844.044.272-1.115.095-2.778.086-4.051l.216-.13h.388c.35.175.437.504.646.819.388.583 2.092 3.262 2.542 3.491l1.077.086 1.896-.043c.451-.288-.251-1.105-.388-1.293-.855-1.172-2.077-2.397-2.672-3.75.342-.615 1-.938 1.293-1.637.306-.732.3-1.797.043-2.543-.948-2.75-3.952-2.51-7.67-2.455-.562.479-.431 1.498-.431 2.542v6.291c.001.686-.214 2.209.13 2.629zm2.93-8.704l.129-.172c1.083-.048 1.925.024 2.112.862.253 1.134-1.062 1.338-2.069 1.292-.258-.399-.189-1.319-.172-1.982zm7.584.173v5.73c0 .949-.086 2.142.129 2.888.569.371 2.469.253 2.93-.087.18-.792.087-1.951.087-2.887v-5.688c0-.946.201-2.415-.345-2.843l-2.457-.043c-.523.519-.344 1.904-.344 2.93zm17.064 1.508c-.522-1.188.472-3.688-.431-4.395l-2.414-.043-.344.301c-.181.793-.086 1.952-.086 2.887v5.646c0 .948-.205 2.416.344 2.845l1.035.043 1.508-.043c.712-.365.017-3.324.345-4.224.215-.341 3.247-.266 3.878-.173.572 1.075-.285 3.371.345 4.354.653.164 2.021.181 2.672 0 .362-.591.173-1.722.173-2.629v-6.164c0-.74.259-2.328-.131-2.715-.445-.442-2.523-.099-2.843.13-.249 1.05.247 3.074-.13 4.051-.203.316-3.371.262-3.921.129zm-20.295 19.736c6.457-1.113 6.038-10.637-1.293-10.515l-1.336.302c-1.631.653-2.688 1.746-3.318 3.404-1.407 3.703 2.408 7.418 5.947 6.809zm-4.008-6.723c.553-1.388 1.57-1.544 2.93-2.154 4.664-.072 4.997 6.386.991 7.195-2.936.594-4.996-2.344-3.921-5.041zm14.263-3.792l-1.335.302c-1.411.567-2.587 1.602-3.146 3.017-1.517 3.838 1.829 7.877 5.817 7.196 6.452-1.103 6.026-10.637-1.336-10.515zm.905 8.876c-2.644.448-4.566-2.596-3.62-4.998.566-1.438 1.544-1.633 2.973-2.24 4.751-.066 5.021 6.498.647 7.238zm-21.589-2.671c.695-.397 2.238.168 2.973-.216.32-.192.486-1.213.086-1.465l-2.887-.043c-.416-.16-.229-2.003-.172-2.499.815-.472 2.788.003 3.749-.216.148-.24.31-1.004.086-1.336-.268-.422-4.245-.23-5.171-.258l-.215.086c-.537.277-.302 1.973-.302 2.758v5.214c0 .577-.141 1.629.129 1.981.178.232.983.229 1.335.13.649-.32.32-3.146.389-4.136zm27.579 3.921c.614.359 1.48.046 2.326.172 3.292.496 6.787-2.105 6.249-5.472-.624-3.905-3.299-4.714-7.8-4.653-.314.125-.588.11-.818.258-.402 1.661-.086 4.455-.086 6.334 0 1.082-.127 2.493.129 3.361zm1.809-8.143l.173-.173c2.113-.035 3.499.35 4.266 1.639 1.823 3.061-1.199 5.715-4.352 5.256-.4-.668-.13-3.902-.13-5.085.001-.506-.11-1.34.043-1.637z"/></svg>