<svg xmlns="http://www.w3.org/2000/svg" width="20.227" height="20.092"><path fill="#524741" d="M19.07 0h-17.915c-.632 0-1.155.516-1.155 1.151v17.788c0 .631.523 1.152 1.155 1.152h17.916c.636 0 1.156-.521 1.156-1.152v-17.788c0-.635-.521-1.151-1.157-1.151zm-3.282 7.416l.011.363c0 3.734-2.861 8.039-8.093 8.039-1.609 0-3.101-.468-4.362-1.267.229.023.453.033.678.033 1.334 0 2.562-.449 3.533-1.211-1.244-.014-2.293-.836-2.655-1.955.175.031.353.049.534.049.262 0 .51-.034.756-.098-1.309-.265-2.291-1.404-2.291-2.768v-.042c.391.214.83.338 1.291.354-.762-.503-1.26-1.373-1.26-2.349 0-.517.131-1.007.379-1.422 1.404 1.708 3.504 2.836 5.863 2.949-.045-.205-.076-.419-.076-.643 0-1.557 1.277-2.82 2.848-2.82.818 0 1.561.341 2.077.891.653-.131 1.259-.366 1.806-.688-.212.661-.66 1.216-1.252 1.56.577-.061 1.125-.218 1.637-.442-.386.572-.86 1.066-1.424 1.467z"/></svg>