<?xml version="1.0" standalone="no"?>
<!DOCTYPE svg PUBLIC "-//W3C//DTD SVG 1.1//EN" "http://www.w3.org/Graphics/SVG/1.1/DTD/svg11.dtd" >
<svg xmlns="http://www.w3.org/2000/svg">
<metadata></metadata>
<defs>
<font id="knockout_htf67-fullbantamwtRg" horiz-adv-x="501" >
<font-face units-per-em="2048" ascent="1638" descent="-410" />
<missing-glyph horiz-adv-x="223" />
<glyph horiz-adv-x="2048" />
<glyph horiz-adv-x="2048" />
<glyph unicode="&#xd;" horiz-adv-x="2048" />
<glyph unicode=" "  horiz-adv-x="223" />
<glyph unicode="&#x09;" horiz-adv-x="223" />
<glyph unicode="&#xa0;" horiz-adv-x="223" />
<glyph unicode="!" horiz-adv-x="286" d="M55 772v592h176v-592l-59 -430h-57zM68 0v221h149v-221h-149z" />
<glyph unicode="&#x22;" horiz-adv-x="376" d="M27 956l49 408h117l-82 -408h-84zM180 956l72 408h117l-101 -408h-88z" />
<glyph unicode="#" horiz-adv-x="798" d="M6 399v90h184l52 385h-193v91h205l53 399h103l-54 -399h168l54 399h102l-51 -399h170v-91h-183l-53 -385h191v-90h-203l-53 -399h-103l51 399h-167l-52 -399h-102l51 399h-170zM293 489h168l51 385h-168z" />
<glyph unicode="$" horiz-adv-x="581" d="M39 264v144h172v-162q0 -39 18.5 -60.5t53.5 -21.5q71 0 71 82q0 91 -27.5 169.5t-99.5 188.5q-184 292 -184 473q0 110 45 189t133 106v133h146v-127q81 -21 127.5 -93t46.5 -185v-150h-176v170q0 74 -58 74q-28 0 -46.5 -19t-18.5 -55q0 -34 2 -60.5t9.5 -55 t11.5 -44.5t20 -47.5t22.5 -43.5t31 -54t34.5 -59q43 -74 67 -119.5t53.5 -112.5t43.5 -126.5t14 -116.5q0 -119 -51 -194.5t-133 -98.5v-129h-146v129q-88 20 -135 91t-47 185z" />
<glyph unicode="%" horiz-adv-x="894" d="M41 870v338q0 81 47 128.5t119 47.5q74 0 120 -47t46 -129v-338q0 -80 -46.5 -128t-119.5 -48q-72 0 -119 48t-47 128zM84 12l661 1387l66 -51l-661 -1387zM158 854q0 -23 14.5 -39t34.5 -16q22 0 35.5 15.5t13.5 39.5v373q0 23 -13.5 38t-35.5 15q-21 0 -35 -15t-14 -38 v-373zM522 150v339q0 82 46 128.5t120 46.5q73 0 119.5 -47t46.5 -128v-339q0 -80 -47 -128.5t-119 -48.5q-73 0 -119.5 48t-46.5 129zM639 133q0 -23 13.5 -38t35.5 -15t35.5 15t13.5 38v373q0 24 -13.5 38.5t-35.5 14.5t-35.5 -14.5t-13.5 -38.5v-373z" />
<glyph unicode="&#x26;" horiz-adv-x="829" d="M45 311q0 132 53.5 244t132.5 186q-69 190 -69 308q0 162 69 248.5t189 86.5q104 0 158.5 -77t54.5 -205q0 -114 -47 -212t-144 -196q51 -206 80 -282q20 46 32.5 130t12.5 150h158q-2 -116 -33 -243t-86 -220q19 -53 58 -53q22 0 34.5 20.5t12.5 55.5v43h92v-82 q0 -116 -39.5 -174.5t-110.5 -58.5q-43 0 -84 25t-71 63q-76 -88 -197 -88q-112 0 -184 94t-72 237zM238 334q0 -70 25.5 -111t70.5 -41q33 0 59 33q-40 83 -100 320q-55 -73 -55 -201zM348 1079q0 -87 35 -209q37 48 58.5 113.5t21.5 112.5q0 92 -53 92q-28 0 -45 -30 t-17 -79z" />
<glyph unicode="'" horiz-adv-x="239" d="M39 956l65 408h152l-125 -408h-92z" />
<glyph unicode="(" horiz-adv-x="448" d="M113 629q0 327 69 540t203 357l47 -43q-89 -129 -125.5 -317t-36.5 -537t36.5 -537t125.5 -317l-47 -43q-134 144 -203 357.5t-69 539.5z" />
<glyph unicode=")" horiz-adv-x="448" d="M16 -225q90 129 127 317t37 537t-37 537t-127 317l47 43q135 -143 204 -356t69 -541q0 -327 -69 -540.5t-204 -356.5z" />
<glyph unicode="*" horiz-adv-x="454" d="M37 1075q-4 7 0.5 14t11.5 11q90 46 133 61q-65 20 -135 62q-17 11 -10 20l22 41q6 15 27 2q49 -27 119 -84q-15 76 -15 146q0 22 15 22h49q14 0 14 -22q0 -72 -14 -146q67 58 119 86q18 9 26 -2l23 -41q7 -12 -12 -22q-57 -38 -134 -62q54 -17 134 -61q7 -4 11.5 -11 t0.5 -12l-23 -39q-9 -15 -26 -2q-55 27 -119 84q12 -64 12 -145q0 -21 -14 -21h-47q-12 0 -12 21q0 63 12 145q-51 -46 -119 -86q-19 -9 -27 2z" />
<glyph unicode="+" horiz-adv-x="534" d="M51 623v145h146v152h143v-152h143v-145h-143v-154h-143v154h-146z" />
<glyph unicode="," horiz-adv-x="243" d="M41 0v242h162v-222q0 -78 -45.5 -131t-116.5 -53v51q34 0 55 28t21 85h-76z" />
<glyph unicode="-" horiz-adv-x="356" d="M27 557v154h303v-154h-303z" />
<glyph unicode="." horiz-adv-x="243" d="M41 0v240h162v-240h-162z" />
<glyph unicode="/" horiz-adv-x="428" d="M-23 -131l355 1624h112l-354 -1624h-113z" />
<glyph unicode="0" horiz-adv-x="610" d="M55 250v864q0 121 69.5 195.5t180.5 74.5q113 0 181.5 -74t68.5 -196v-864q0 -122 -68.5 -196t-181.5 -74q-111 0 -180.5 74.5t-69.5 195.5zM252 236q0 -24 14.5 -39t38.5 -15q25 0 39 15t14 39v892q0 24 -14 39t-39 15q-24 0 -38.5 -15t-14.5 -39v-892z" />
<glyph unicode="1" horiz-adv-x="395" d="M98 0v1278q44 0 65 24.5t21 61.5h113v-1364h-199z" />
<glyph unicode="2" horiz-adv-x="546" d="M27 0v49q0 141 35 263.5t149 363.5q72 144 98.5 234t26.5 206q0 70 -60 70q-55 0 -55 -70v-186h-180v194q0 106 62 183t169 77q127 0 186.5 -78.5t59.5 -211.5q0 -139 -34.5 -247t-123.5 -274q-71 -162 -94.5 -237.5t-23.5 -136.5h264v-199h-479z" />
<glyph unicode="3" horiz-adv-x="557" d="M35 238v161h180v-153q0 -29 14 -45.5t39 -16.5q23 0 37 15.5t14 40.5v315q0 45 -43 45h-77v172h77q43 0 43 47v303q0 26 -14 42t-37 16q-25 0 -39 -16.5t-14 -45.5v-155h-180v161q0 107 61 183.5t168 76.5q110 0 179 -74t69 -190v-260q0 -127 -106 -170q106 -52 106 -172 v-274q0 -117 -69 -190.5t-179 -73.5q-107 0 -168 76.5t-61 181.5z" />
<glyph unicode="4" horiz-adv-x="552" d="M16 270v158l291 936h158v-915h67v-179h-67v-270h-184v270h-265zM186 449h95v346z" />
<glyph unicode="5" horiz-adv-x="559" d="M43 238v151h180v-143q0 -29 14.5 -45.5t38.5 -16.5q23 0 37.5 15.5t14.5 40.5v422q0 21 -14.5 36t-32.5 15t-33 -14.5t-15 -32.5l-178 18l27 680h442q-3 -105 -30.5 -152t-79.5 -47h-166l-15 -344q52 62 138 62q67 0 108 -51.5t41 -131.5v-456q0 -117 -69 -190.5 t-179 -73.5q-107 0 -168 76.5t-61 181.5z" />
<glyph unicode="6" horiz-adv-x="583" d="M53 256v852q0 121 68.5 198.5t177.5 77.5q107 0 169 -77t62 -183v-166h-178v160q0 62 -51 62q-26 0 -40.5 -15.5t-14.5 -40.5v-358q49 59 129 59q76 0 120 -50t44 -130v-389q0 -123 -66.5 -199.5t-177.5 -76.5q-109 0 -175.5 76.5t-66.5 199.5zM246 233q0 -22 13.5 -35.5 t35.5 -13.5q24 0 37.5 13.5t13.5 35.5v373q0 21 -13.5 34t-37.5 13q-22 0 -35.5 -13.5t-13.5 -33.5v-373z" />
<glyph unicode="7" horiz-adv-x="536" d="M37 1155v209h483v-86q-99 -320 -152.5 -623t-66.5 -655h-217q22 310 90.5 621.5t151.5 533.5h-289z" />
<glyph unicode="8" horiz-adv-x="598" d="M53 244v270q0 123 84 172q-84 52 -84 172v262q0 116 68 190t178 74q111 0 178.5 -73.5t67.5 -190.5v-262q0 -120 -84 -172q84 -49 84 -172v-270q0 -118 -67 -191t-179 -73q-110 0 -178 73.5t-68 190.5zM246 240q0 -25 15 -40.5t38 -15.5t38 15.5t15 40.5v325 q0 24 -14.5 38.5t-38.5 14.5t-38.5 -14.5t-14.5 -38.5v-325zM246 809q0 -23 15 -38t38 -15t38 15t15 38v315q0 25 -15 40.5t-38 15.5t-38 -15.5t-15 -40.5v-315z" />
<glyph unicode="9" horiz-adv-x="593" d="M53 238v153h176v-143q0 -64 58 -64q59 0 59 58v346q-54 -62 -129 -62t-119.5 53t-44.5 134v395q0 122 66.5 199t177.5 77q109 0 176.5 -77.5t67.5 -198.5v-852q0 -122 -70 -199t-182 -77q-106 0 -171 77t-65 181zM246 741q0 -21 13.5 -34t37.5 -13q23 0 36 13t13 34v389 q0 21 -13.5 35.5t-35.5 14.5q-24 0 -37.5 -14.5t-13.5 -35.5v-389z" />
<glyph unicode=":" horiz-adv-x="243" d="M41 0v240h162v-240h-162zM41 643v240h162v-240h-162z" />
<glyph unicode=";" horiz-adv-x="243" d="M41 0v242h162v-222q0 -78 -45.5 -131t-116.5 -53v51q34 0 55 28t21 85h-76zM41 643v240h162v-240h-162z" />
<glyph unicode="&#x3c;" horiz-adv-x="782" d="M104 662v43l541 352v-168l-311 -205l311 -209v-168z" />
<glyph unicode="=" horiz-adv-x="503" d="M37 485v146h432v-146h-432zM37 760v145h432v-145h-432z" />
<glyph unicode="&#x3e;" horiz-adv-x="782" d="M139 309v168l312 205l-312 207v170l539 -357v-40z" />
<glyph unicode="?" horiz-adv-x="522" d="M25 944v178q0 114 58.5 188t170.5 74q123 0 181.5 -79.5t58.5 -214.5q0 -96 -35 -214.5t-101 -230.5q-71 -120 -71 -285h-127q0 106 19 199t75 256q53 157 53 242q0 69 -12 96t-43 27q-55 0 -55 -76v-160h-172zM150 0v221h147v-221h-147z" />
<glyph unicode="@" horiz-adv-x="886" d="M33 537q0 253 124 417t302 164q97 0 175 -43.5t124.5 -114.5t71 -155t24.5 -172q0 -154 -65 -261.5t-177 -107.5q-124 0 -118 133q-21 -54 -61 -86t-81 -32q-55 0 -89 46.5t-34 131.5q0 82 28.5 162.5t81 135t114.5 54.5q34 0 57.5 -22.5t26.5 -61.5l20 76h113l-80 -330 q-17 -63 -5 -98t50 -35q61 0 99 83t38 216q0 184 -88.5 294.5t-224.5 110.5q-146 0 -245 -145t-99 -360q0 -216 97.5 -348t246.5 -132q142 0 231 93l43 -56q-106 -114 -274 -114q-88 0 -165 38t-135.5 107.5t-92 176t-33.5 235.5zM340 465q0 -94 51 -94q63 0 88 123l39 157 q-3 74 -45 74q-34 0 -66 -44.5t-49.5 -104.5t-17.5 -111z" />
<glyph unicode="A" horiz-adv-x="565" d="M-2 0l162 1364h239l162 -1364h-215l-12 233h-125l-21 -233h-190zM229 428h88l-36 565z" />
<glyph unicode="B" horiz-adv-x="600" d="M53 0v1364h291q41 0 77 -12.5t68 -38.5t51 -73.5t19 -111.5v-268q0 -119 -100 -166q100 -53 100 -166v-292q0 -64 -19 -111.5t-51 -73.5t-68 -38.5t-77 -12.5h-291zM264 190h53q39 0 39 58v293q0 59 -39 59h-53v-410zM264 774h53q39 0 39 60v280q0 57 -39 57h-53v-397z " />
<glyph unicode="C" horiz-adv-x="587" d="M41 260v844q0 123 78 201.5t194 78.5q115 0 179.5 -75t64.5 -199v-233h-180v239q0 29 -15.5 46.5t-46.5 17.5q-59 0 -59 -64v-868q0 -64 59 -64q31 0 46.5 17.5t15.5 46.5v239h180v-233q0 -125 -64.5 -199.5t-179.5 -74.5q-116 0 -194 78t-78 202z" />
<glyph unicode="D" horiz-adv-x="622" d="M53 0v1364h279q106 0 177 -66t71 -200v-840q0 -133 -70.5 -195.5t-177.5 -62.5h-279zM264 195h49q56 0 56 71v832q0 69 -56 69h-49v-972z" />
<glyph unicode="E" horiz-adv-x="522" d="M53 0v1364h443v-197h-232v-372h154v-187h-154v-405h232v-203h-443z" />
<glyph unicode="F" horiz-adv-x="497" d="M53 0v1364h428v-193h-217v-380h160v-195h-160v-596h-211z" />
<glyph unicode="G" horiz-adv-x="608" d="M41 248v868q0 112 75.5 190t188.5 78q112 0 184 -78t72 -190v-252h-196v260q0 25 -14.5 40.5t-41.5 15.5q-26 0 -41.5 -15.5t-15.5 -40.5v-895q0 -26 15.5 -42.5t41.5 -16.5q27 0 42.5 16t15.5 43v279h-54v164h258v-672h-122l-23 72q-21 -44 -61.5 -68t-88.5 -24 q-107 0 -171 72.5t-64 195.5z" />
<glyph unicode="H" horiz-adv-x="645" d="M53 0v1364h211v-592h119v592h209v-1364h-209v563h-119v-563h-211z" />
<glyph unicode="I" horiz-adv-x="317" d="M53 0v1364h211v-1364h-211z" />
<glyph unicode="J" horiz-adv-x="571" d="M16 244v299h197v-303q0 -26 14 -41t37 -15t37 15t14 41v1124h211v-1120q0 -118 -71.5 -191t-182.5 -73t-183.5 73.5t-72.5 190.5z" />
<glyph unicode="K" horiz-adv-x="606" d="M53 0v1364h211v-600l123 600h203l-135 -578l145 -786h-213l-78 541l-45 -193v-348h-211z" />
<glyph unicode="L" horiz-adv-x="491" d="M53 0v1364h211v-1167h219v-197h-430z" />
<glyph unicode="M" horiz-adv-x="851" d="M53 0v1364h277l73 -537l29 -309l27 309l67 537h273v-1364h-203v1038l-29 -311l-88 -727h-139l-78 727l-24 311v-1038h-185z" />
<glyph unicode="N" horiz-adv-x="657" d="M51 0v1364h201l135 -612l41 -191v803h178v-1364h-174l-153 616l-48 187v-803h-180z" />
<glyph unicode="O" horiz-adv-x="620" d="M43 254v856q0 120 77 197t189 77q114 0 190 -77t76 -197v-856q0 -121 -76 -197.5t-190 -76.5q-112 0 -189 76.5t-77 197.5zM258 240q0 -26 14 -41t37 -15t37 15t14 41v884q0 26 -14 41t-37 15t-37 -15t-14 -41v-884z" />
<glyph unicode="P" horiz-adv-x="589" d="M53 0v1364h287q93 0 156 -59t63 -185v-346q0 -125 -63.5 -184.5t-155.5 -59.5h-76v-530h-211zM264 709h55q37 0 37 57v348q0 57 -37 57h-55v-462z" />
<glyph unicode="Q" horiz-adv-x="622" d="M43 254v856q0 120 77 197t189 77t189 -77t77 -197v-850q0 -54 -16 -100q16 -19 74 -19v-141q-26 -20 -84 -20q-70 0 -103 45q-57 -45 -145 -45q-107 0 -182.5 77t-75.5 197zM258 240q0 -26 14 -41t37 -15q22 0 33 11l-45 43l63 81v805q0 26 -14 41t-37 15t-37 -15 t-14 -41v-884z" />
<glyph unicode="R" horiz-adv-x="606" d="M53 0v1364h285q41 0 78.5 -13t70.5 -40t52.5 -75t19.5 -112v-311q0 -93 -90 -154q96 -65 96 -155v-277q0 -94 27 -221v-6h-180q-23 0 -37.5 71t-14.5 140v297q0 26 -12 43.5t-33 17.5h-51v-569h-211zM264 750h53q19 0 28 13t9 44v307q0 57 -37 57h-53v-421z" />
<glyph unicode="S" horiz-adv-x="579" d="M25 264v144h184v-160q0 -38 18 -60t52 -22q67 0 67 82q0 85 -30 162t-99 194q-188 298 -188 473q0 135 70 221t202 86q109 0 174.5 -75.5t65.5 -208.5v-150h-183v170q0 33 -16 51.5t-41 18.5q-28 0 -45.5 -18t-17.5 -52q0 -39 5 -73t9.5 -56t20.5 -57t24 -49.5t35 -61 t39 -67.5q42 -72 67.5 -119.5t55 -113t43.5 -125.5t14 -117q0 -77 -22 -136.5t-59.5 -94.5t-83 -52.5t-97.5 -17.5q-124 0 -194 74.5t-70 209.5z" />
<glyph unicode="T" horiz-adv-x="534" d="M8 1157v207h518v-207h-153v-1157h-211v1157h-154z" />
<glyph unicode="U" horiz-adv-x="616" d="M49 248v1116h211v-1124q0 -26 14.5 -41t36.5 -15q24 0 39 15t15 41v1124h202v-1116q0 -117 -72.5 -192.5t-183.5 -75.5t-186.5 76t-75.5 192z" />
<glyph unicode="V" horiz-adv-x="573" d="M2 1364h211l80 -891l84 891h196l-184 -1364h-205z" />
<glyph unicode="W" horiz-adv-x="833" d="M-2 1364h205l65 -860l80 860h158l67 -860l78 860h191l-180 -1364h-177l-73 752l-84 -752h-174z" />
<glyph unicode="X" horiz-adv-x="583" d="M-2 0l170 676l-158 688h213l72 -467l88 467h199l-166 -655l159 -709h-213l-75 430l-88 -430h-201z" />
<glyph unicode="Y" horiz-adv-x="577" d="M-4 1364h209l92 -537l82 537h205l-197 -819v-545h-211v545z" />
<glyph unicode="Z" horiz-adv-x="512" d="M8 0v72l256 1091h-241v201h473v-72l-256 -1091h243v-201h-475z" />
<glyph unicode="[" horiz-adv-x="436" d="M141 -238v1733h303v-115h-172v-1505h172v-113h-303z" />
<glyph unicode="\" horiz-adv-x="444" d="M-4 1493h110l355 -1624h-111z" />
<glyph unicode="]" horiz-adv-x="436" d="M8 -125h172v1505h-172v115h303v-1733h-303v113z" />
<glyph unicode="^" horiz-adv-x="421" d="M12 1106v53q40 0 82.5 54t61.5 151h106q19 -97 61.5 -151t82.5 -54v-53q-37 -16 -68 -16q-108 0 -133 149q-25 -149 -131 -149q-25 0 -62 16z" />
<glyph unicode="_" horiz-adv-x="532" d="M0 0h532v-154h-532v154z" />
<glyph unicode="`" horiz-adv-x="262" d="M6 1376h154l65 -274h-92z" />
<glyph unicode="a" horiz-adv-x="481" d="M25 213v84q0 117 60.5 196.5t180.5 149.5v166q0 21 -9 34t-24 13q-30 0 -30 -47v-115h-158v90q0 108 53.5 174t145.5 66q87 0 136.5 -67t49.5 -177v-604q0 -44 33 -49v-143h-39q-77 0 -115 90q-35 -90 -127 -90q-72 0 -114.5 61t-42.5 168zM188 201q0 -26 10.5 -42 t28.5 -16t28.5 15.5t10.5 38.5v282q-78 -60 -78 -151v-127z" />
<glyph unicode="b" horiz-adv-x="512" d="M51 0v1364h172v-420q19 37 49 58.5t64 21.5q55 0 93 -54t38 -130v-668q0 -80 -38 -134t-101 -54q-37 0 -68.5 20.5t-48.5 56.5l-12 -61h-148zM223 203q0 -22 10 -35.5t27 -13.5q15 0 25 13.5t10 35.5v600q0 22 -10 35.5t-25 13.5q-17 0 -27 -13.5t-10 -35.5v-600z" />
<glyph unicode="c" horiz-adv-x="473" d="M43 231v545q0 110 59.5 179t147.5 69t140 -67.5t52 -180.5v-143h-143v166q0 27 -11.5 42t-29.5 15q-20 0 -32.5 -15t-12.5 -42v-592q0 -27 12.5 -42t32.5 -15q18 0 29.5 15t11.5 42v168h143v-144q0 -114 -52 -180.5t-140 -66.5t-147.5 68t-59.5 179z" />
<glyph unicode="d" horiz-adv-x="509" d="M43 172v668q0 75 40 129.5t95 54.5q58 0 111 -66v406h170v-1364h-146l-12 61q-39 -77 -117 -77q-63 0 -102 54t-39 134zM215 203q0 -22 10 -35.5t27 -13.5q15 0 26 14t11 35v600q0 21 -11 35t-26 14q-17 0 -27 -13.5t-10 -35.5v-600z" />
<glyph unicode="e" horiz-adv-x="489" d="M43 229v549q0 106 60 176t147 70q88 0 144.5 -69t56.5 -177v-311h-236v-264q0 -22 10.5 -37.5t30.5 -15.5q41 0 41 53v168h154v-142q0 -108 -56.5 -176.5t-144.5 -68.5t-147.5 69t-59.5 176zM215 588h80v215q0 23 -10.5 38t-28.5 15q-19 0 -30 -15t-11 -38v-215z" />
<glyph unicode="f" horiz-adv-x="356" d="M20 840v161h70v93q0 133 52 201.5t169 68.5h31v-160h-18q-35 0 -49.5 -20.5t-14.5 -63.5v-119h84v-161h-80v-840h-174v840h-70z" />
<glyph unicode="g" d="M31 238q0 57 32 100t78 49q-47 18 -71.5 79t-24.5 136v180q0 106 60 174t149 68q14 0 37.5 -3t27.5 -3q43 0 58.5 20.5t15.5 61.5h127q4 -29 4 -70q0 -123 -71 -123q-17 0 -43 13q49 -62 49 -148v-178q0 -105 -58 -174.5t-147 -69.5q-19 0 -31 4q-22 0 -33.5 -18.5 t-11.5 -44.5q0 -29 19.5 -47.5t62.5 -18.5q108 0 164.5 -56.5t56.5 -162.5v-125q0 -118 -58.5 -178.5t-164.5 -60.5q-100 0 -162.5 57t-62.5 166v112q0 38 18.5 74.5t46.5 61.5q-31 13 -49 48.5t-18 76.5zM203 4v-139q0 -27 16 -45.5t43 -18.5q28 0 45 18.5t17 45.5v139 q0 26 -16.5 44t-45.5 18t-44 -17t-15 -45zM213 555q0 -21 11.5 -35t29.5 -14q17 0 28 14t11 35v254q0 22 -11 35.5t-28 13.5q-19 0 -30 -13.5t-11 -35.5v-254z" />
<glyph unicode="h" horiz-adv-x="518" d="M51 0v1364h172v-424q46 84 119 84q57 0 93 -50.5t36 -127.5v-846h-174v803q0 21 -11 35t-26 14t-26 -14t-11 -35v-803h-172z" />
<glyph unicode="i" horiz-adv-x="274" d="M51 0v1006h172v-1006h-172zM55 1116v197h164v-197h-164z" />
<glyph unicode="j" horiz-adv-x="274" d="M-29 -188h19q35 0 48 19.5t13 64.5v1110h172v-1082q0 -134 -51.5 -202t-169.5 -68h-31v158zM55 1116v197h164v-197h-164z" />
<glyph unicode="k" d="M51 0v1364h172v-797l92 441h164l-108 -459l121 -549h-170l-72 395l-27 -94v-301h-172z" />
<glyph unicode="l" horiz-adv-x="274" d="M51 0v1364h172v-1364h-172z" />
<glyph unicode="m" horiz-adv-x="765" d="M51 0v1006h158l14 -80q14 44 44.5 71t68.5 27q42 0 73.5 -32t47.5 -83q36 115 125 115q61 0 99 -52t38 -134v-838h-174v795q0 21 -11 35t-26 14q-14 0 -24.5 -14t-10.5 -35v-795h-174v805q0 20 -11.5 34.5t-25.5 14.5q-15 0 -27 -14.5t-12 -34.5v-805h-172z" />
<glyph unicode="n" horiz-adv-x="518" d="M51 0v1006h160l8 -74q15 41 49.5 66.5t71.5 25.5q58 0 94.5 -50.5t36.5 -127.5v-846h-174v803q0 21 -11 35t-26 14t-26 -14t-11 -35v-803h-172z" />
<glyph unicode="o" d="M43 231v543q0 112 59.5 181t149.5 69q88 0 147.5 -69t59.5 -181v-543q0 -111 -59.5 -179t-147.5 -68q-90 0 -149.5 67.5t-59.5 179.5zM215 199q0 -21 10 -35t27 -14q15 0 25 14.5t10 34.5v608q0 20 -10 34.5t-25 14.5q-17 0 -27 -14t-10 -35v-608z" />
<glyph unicode="p" horiz-adv-x="512" d="M51 -340v1346h148l12 -62q40 78 117 78q64 0 101.5 -53.5t37.5 -134.5v-668q0 -76 -38.5 -130t-94.5 -54q-62 0 -111 65v-387h-172zM223 203q0 -21 11 -35t26 -14t25 13.5t10 35.5v600q0 22 -10 35.5t-25 13.5t-26 -14t-11 -35v-600z" />
<glyph unicode="q" horiz-adv-x="509" d="M43 166v668q0 80 39 135t102 55q76 0 117 -80l10 62h148v-1346h-170v401q-42 -77 -113 -77q-56 0 -94.5 53t-38.5 129zM215 203q0 -22 10 -35.5t27 -13.5q15 0 26 14t11 35v600q0 21 -11 35t-26 14q-17 0 -27 -13.5t-10 -35.5v-600z" />
<glyph unicode="r" horiz-adv-x="382" d="M51 0v1006h156l10 -107q15 63 55 95q32 27 74 27q9 0 19 -1v-215q-14 1 -26 1q-54 0 -82 -21q-34 -26 -34 -87v-698h-172z" />
<glyph unicode="s" horiz-adv-x="462" d="M31 231v80h153v-104q0 -60 45 -60q50 0 50 62q0 29 -3.5 50.5t-16 46t-22 39.5t-36.5 53.5t-45 66.5q-28 41 -44 66.5t-36.5 66t-30.5 83t-10 87.5q0 120 54.5 188t143.5 68q93 0 147 -70.5t54 -173.5v-88h-149v105q0 26 -12 42.5t-33 16.5q-45 0 -45 -57q0 -38 14 -77.5 t27 -62.5t53 -88q7 -9 29 -38.5t31 -42t26.5 -39.5t25.5 -46t18.5 -45.5t14.5 -54t4 -57.5q0 -120 -50 -192t-148 -72q-96 0 -152.5 64.5t-56.5 182.5z" />
<glyph unicode="t" horiz-adv-x="346" d="M12 840v161h80v154l164 49v-203h80v-161h-80v-570q0 -165 27 -270h-166q-35 107 -35 270v570h-70z" />
<glyph unicode="u" horiz-adv-x="518" d="M49 160v846h172v-803q0 -21 11.5 -35t27.5 -14q14 0 24.5 14t10.5 35v803h172v-1006h-156l-8 74q-17 -41 -51 -65.5t-72 -24.5q-58 0 -94.5 50t-36.5 126z" />
<glyph unicode="v" horiz-adv-x="458" d="M14 1006h170l39 -431l15 -184l12 184l37 431h159l-143 -1006h-143z" />
<glyph unicode="w" horiz-adv-x="702" d="M12 1006h174l31 -420l16 -236l17 236l39 420h143l35 -420l16 -236l17 236l37 420h155l-139 -1006h-143l-41 356l-19 226l-16 -226l-43 -356h-144z" />
<glyph unicode="x" horiz-adv-x="479" d="M12 0l123 492l-123 514h172l54 -326l53 326h174l-125 -478l125 -528h-176l-51 319l-56 -319h-170z" />
<glyph unicode="y" horiz-adv-x="454" d="M12 1006h170l39 -431l12 -184l15 184l37 431h159l-151 -1080q-12 -81 -24.5 -126t-36.5 -81.5t-63 -50.5t-101 -14h-27v158h27q33 0 47 19t20 67l17 137z" />
<glyph unicode="z" horiz-adv-x="421" d="M18 0v66l191 761h-170v179h358v-66l-186 -756h174v-184h-367z" />
<glyph unicode="{" horiz-adv-x="487" d="M86 582v94h66q54 0 76 18.5t22 59.5q0 33 -33 111t-66.5 177.5t-33.5 184.5q0 116 64 192t186 76h55v-98h-35q-57 0 -87 -47t-30 -127q0 -64 27 -145.5t53.5 -155t26.5 -117.5q0 -66 -32 -108.5t-107 -61.5q75 -19 107 -61.5t32 -108.5q0 -44 -26.5 -120.5t-53.5 -161 t-27 -148.5q0 -79 30 -126.5t87 -47.5h35v-99h-55q-121 0 -185.5 76.5t-64.5 192.5q0 68 21 145.5t45.5 133.5t45.5 111.5t21 82.5q0 41 -22 59.5t-76 18.5h-66z" />
<glyph unicode="|" horiz-adv-x="215" d="M53 -131v1624h109v-1624h-109z" />
<glyph unicode="}" horiz-adv-x="487" d="M66 -139h34q57 0 87 47.5t30 126.5q0 64 -26.5 148.5t-53 161t-26.5 120.5q0 66 32 108.5t107 61.5q-75 19 -107 61.5t-32 108.5q0 44 26.5 117.5t53 155t26.5 145.5q0 80 -30 127t-87 47h-34v98h55q122 0 186 -76t64 -192q0 -67 -21 -144.5t-45.5 -134t-45.5 -111.5 t-21 -83q0 -41 22 -59.5t76 -18.5h65v-94h-65q-54 0 -76 -18.5t-22 -59.5q0 -33 33 -110.5t66.5 -177t33.5 -185.5q0 -116 -64.5 -192.5t-185.5 -76.5h-55v99z" />
<glyph unicode="~" horiz-adv-x="413" d="M16 643q0 75 29.5 115.5t83.5 40.5q35 0 86 -43t68 -43q30 0 30 39v45h66q18 -41 18 -78q0 -75 -29 -116.5t-83 -41.5q-27 0 -57.5 22t-56 44t-40.5 22q-29 0 -29 -37v-47h-67q-19 37 -19 78z" />
<glyph horiz-adv-x="243" d="M41 0v242h162v-222q0 -78 -45.5 -131t-116.5 -53v51q34 0 55 28t21 85h-76z" />
<glyph horiz-adv-x="464" d="M39 647v152h100v295q0 130 60.5 200t181.5 70h33v-141h-21q-35 0 -49 -20.5t-14 -63.5v-340h102v-152h-102v-411q0 -130 -60.5 -200.5t-179.5 -70.5h-31v144h19q35 0 48 19t13 62v457h-100z" />
<glyph horiz-adv-x="444" d="M41 0v242h162v-222q0 -78 -45.5 -131t-116.5 -53v51q34 0 55 28t21 85h-76zM244 0v242h159v-222q0 -78 -44 -131t-115 -53v51q33 0 53 28t20 85h-73z" />
<glyph unicode="&#x85;" horiz-adv-x="724" d="M41 0v240h162v-240h-162zM283 0v240h159v-240h-159zM522 0v240h162v-240h-162z" />
<glyph horiz-adv-x="552" d="M14 897v66q0 18 21 18q137 0 205 -18q-8 33 -13.5 180t-5.5 198q0 8 5.5 15.5t13.5 7.5h73q8 0 13.5 -7.5t5.5 -15.5q0 -51 -5.5 -198t-13.5 -180q68 18 205 18q21 0 21 -18v-66q0 -20 -21 -20q-34 0 -103 5.5t-102 14.5q8 -33 13.5 -174.5t5.5 -190.5q0 -164 -4.5 -383 t-10.5 -274q0 -22 -18 -22h-45q-18 0 -18 22q-6 55 -10.5 274t-4.5 383q0 49 5.5 190.5t13.5 174.5q-32 -9 -101.5 -14.5t-103.5 -5.5q-21 0 -21 20z" />
<glyph horiz-adv-x="552" d="M14 244v67q0 17 21 17q35 0 104 -4.5t101 -12.5q-8 33 -13.5 140t-5.5 147q0 42 5.5 149t13.5 140q-32 -9 -100.5 -14t-104.5 -5q-21 0 -21 19v67q0 17 21 17q130 0 205 -17q-8 33 -13.5 180t-5.5 199q0 7 5.5 14t13.5 7h73q8 0 13.5 -7t5.5 -14q0 -52 -5.5 -199 t-13.5 -180q75 17 205 17q21 0 21 -17v-67q0 -19 -21 -19q-36 0 -104.5 5t-100.5 14q8 -33 13.5 -140t5.5 -149q0 -40 -5.5 -147t-13.5 -140q32 8 101 12.5t104 4.5q21 0 21 -17v-67q0 -19 -21 -19q-133 0 -205 19q8 -33 13.5 -180t5.5 -199q0 -8 -5.5 -15.5t-13.5 -7.5h-73 q-8 0 -13.5 7.5t-5.5 15.5q0 52 5.5 199t13.5 180q-72 -19 -205 -19q-21 0 -21 19z" />
<glyph horiz-adv-x="421" d="M14 1118v53q40 0 82.5 53.5t61.5 151.5h106q19 -98 61.5 -151.5t82.5 -53.5v-53q-37 -16 -70 -16q-106 0 -131 149q-25 -149 -131 -149q-25 0 -62 16z" />
<glyph horiz-adv-x="1290" d="M41 870v338q0 81 47 128.5t119 47.5q74 0 120 -47t46 -129v-338q0 -80 -46.5 -128t-119.5 -48q-72 0 -119 48t-47 128zM84 12l661 1387l66 -51l-661 -1387zM158 854q0 -23 14.5 -39t34.5 -16q22 0 35.5 15.5t13.5 39.5v373q0 23 -13.5 38t-35.5 15q-21 0 -35 -15t-14 -38 v-373zM522 150v339q0 82 46 128.5t120 46.5q73 0 119.5 -47t46.5 -128v-339q0 -80 -47 -128.5t-119 -48.5q-73 0 -119.5 48t-46.5 129zM639 133q0 -23 13.5 -38t35.5 -15t35.5 15t13.5 38v373q0 24 -13.5 38.5t-35.5 14.5t-35.5 -14.5t-13.5 -38.5v-373zM922 150v339 q0 81 47 128t121 47q72 0 118.5 -47t46.5 -128v-339q0 -80 -46.5 -128.5t-118.5 -48.5q-73 0 -120.5 48.5t-47.5 128.5zM1040 133q0 -23 14 -38t36 -15q21 0 35 15t14 38v373q0 24 -14 38.5t-35 14.5q-22 0 -36 -14.5t-14 -38.5v-373z" />
<glyph horiz-adv-x="579" />
<glyph horiz-adv-x="362" d="M43 338v117q161 87 199 338h69q0 -146 -24 -244t-80 -154q104 -101 104 -395h-69q-38 251 -199 338z" />
<glyph horiz-adv-x="829" d="M45 258v840q0 134 71 200t177 66h510v-197h-232v-370h152v-189h-152v-405h232v-203h-510q-107 0 -177.5 62.5t-70.5 195.5zM258 266q0 -37 12 -54t41 -17h47v974h-47q-29 0 -41 -17.5t-12 -53.5v-832z" />
<glyph horiz-adv-x="512" />
<glyph horiz-adv-x="243" d="M41 961v219q0 79 45.5 132.5t116.5 53.5v-53q-35 0 -55.5 -27t-20.5 -84h76v-241h-162z" />
<glyph horiz-adv-x="243" d="M41 958v54q76 0 76 110h-76v242h162v-221q0 -78 -45.5 -131.5t-116.5 -53.5z" />
<glyph horiz-adv-x="444" d="M41 961v219q0 79 45.5 132.5t116.5 53.5v-53q-35 0 -55.5 -27t-20.5 -84h76v-241h-162zM244 961v219q0 79 44 132.5t115 53.5v-53q-33 0 -53 -27t-20 -84h73v-241h-159z" />
<glyph horiz-adv-x="444" d="M41 958v54q76 0 76 110h-76v242h162v-221q0 -78 -45.5 -131.5t-116.5 -53.5zM244 958v54q73 0 73 110h-73v242h159v-221q0 -78 -44 -131.5t-115 -53.5z" />
<glyph horiz-adv-x="425" d="M27 682q0 86 52 136t134 50q81 0 132.5 -50t51.5 -136q0 -87 -51.5 -137.5t-132.5 -50.5q-82 0 -134 50.5t-52 137.5z" />
<glyph horiz-adv-x="870" d="M129 557v154h614v-154h-614z" />
<glyph horiz-adv-x="1306" d="M129 557v154h1051v-154h-1051z" />
<glyph horiz-adv-x="413" d="M16 1200q0 75 29.5 115.5t83.5 40.5q35 0 86 -43t68 -43q14 0 22 10.5t8 26.5v47h66q18 -40 18 -78q0 -75 -29 -116.5t-83 -41.5q-27 0 -57.5 22t-56 44t-40.5 22q-29 0 -29 -37v-47h-67q-19 37 -19 78z" />
<glyph horiz-adv-x="798" d="M25 1300v64h276v-64h-100v-313h-76v313h-100zM367 987v377h106l57 -209l25 -100l27 100l53 209h108v-377h-69v305l-27 -106l-61 -199h-66l-57 199l-27 106v-305h-69z" />
<glyph horiz-adv-x="462" />
<glyph horiz-adv-x="362" d="M51 0q0 293 105 395q-105 105 -105 398h70q19 -128 66.5 -210.5t131.5 -127.5v-117q-84 -45 -131.5 -127.5t-66.5 -210.5h-70z" />
<glyph horiz-adv-x="745" d="M43 231v543q0 113 56 181.5t143 68.5q40 0 77.5 -18.5t61.5 -51.5q23 33 59.5 51.5t75.5 18.5q87 0 140 -68.5t53 -177.5v-311h-238v-260q0 -53 43 -53q41 0 41 53v164h154v-142q0 -109 -53 -177t-140 -68q-89 0 -135 67q-49 -67 -139 -67q-88 0 -143.5 67.5t-55.5 179.5 zM213 203q0 -22 11 -35.5t28 -13.5q15 0 25 13.5t10 35.5v600q0 22 -10 35.5t-25 13.5q-17 0 -28 -13.5t-11 -35.5v-600zM471 588h82v213q0 22 -11 37.5t-30 15.5t-30 -15.5t-11 -37.5v-213z" />
<glyph horiz-adv-x="421" />
<glyph horiz-adv-x="577" d="M-4 1364h209l92 -537l82 537h205l-197 -819v-545h-211v545zM139 1450v195h121v-195h-121zM328 1450v195h123v-195h-123z" />
<glyph unicode="&#xa1;" horiz-adv-x="286" d="M55 233l60 431h57l59 -431v-591h-176v591zM68 784v222h149v-222h-149z" />
<glyph unicode="&#xa2;" horiz-adv-x="505" d="M55 410v542q0 89 38.5 151.5t101.5 86.5v174h127v-172q62 -22 97.5 -85t35.5 -155v-141h-142v166q0 27 -12 42t-33 15q-18 0 -30.5 -15t-12.5 -42v-592q0 -27 12.5 -42t30.5 -15q21 0 33 15t12 42v168h142v-143q0 -91 -35.5 -153.5t-97.5 -84.5v-172h-127v174 q-63 24 -101.5 86.5t-38.5 149.5z" />
<glyph unicode="&#xa3;" horiz-adv-x="708" d="M-12 131q0 68 45.5 115t124.5 47q45 0 88 -19q30 67 30 220q0 48 -14 106h-170v156h121q-1 2 -12 41.5t-14.5 57t-11 54.5t-10.5 72t-3 72q0 145 67.5 238t190.5 93q107 0 165 -81t58 -193v-154h-174v144q0 33 -13.5 50t-35.5 17q-24 0 -37.5 -17.5t-13.5 -49.5 q0 -44 3 -85t10 -80.5t12 -63t15 -63.5l13 -52h176v-156h-149q2 -18 2 -55q0 -78 -27.5 -164.5t-71.5 -159.5q58 -43 103 -43q65 0 65 80v145h154v-172q0 -112 -49.5 -181.5t-149.5 -69.5q-56 0 -111 26t-83 64q-52 -90 -142 -90q-66 0 -108.5 42.5t-42.5 108.5zM96 139 q0 -19 12 -30t31 -11q53 0 64 49q-26 33 -64 33q-21 0 -32 -11.5t-11 -29.5z" />
<glyph unicode="&#xa4;" horiz-adv-x="575" d="M41 260v844q0 126 70 203t184 77t178 -74.5t64 -199.5v-186h-179v192q0 29 -15.5 46.5t-45.5 17.5q-61 0 -61 -64v-358h223v-152h-223v-358q0 -64 61 -64q30 0 45.5 17.5t15.5 46.5v190h179v-184q0 -125 -64 -199.5t-178 -74.5t-184 77t-70 203z" />
<glyph unicode="&#xa5;" horiz-adv-x="612" d="M27 1364h196l88 -518l82 518h193l-152 -643h115v-156h-152v-108h152v-154h-152v-303h-196v303h-148v154h148v108h-148v156h113z" />
<glyph unicode="&#xa7;" horiz-adv-x="628" d="M33 -6h188v-92q0 -38 22.5 -62t63.5 -24q44 0 67 26t23 70q0 39 -19.5 77.5t-51 72.5t-69.5 70.5t-76 77t-69.5 84.5t-51 102t-19.5 122q0 91 34.5 168.5t94.5 128.5q-43 56 -64.5 90t-39 86t-17.5 109q0 125 69 204.5t197 79.5q126 0 197.5 -79t71.5 -197v-78h-187v94 q0 76 -69 76q-76 0 -76 -80q0 -49 35.5 -100.5t86.5 -101t102 -104.5t86.5 -130.5t35.5 -159.5q0 -198 -129 -307q68 -95 93.5 -151.5t25.5 -143.5q0 -55 -15.5 -104t-46.5 -89t-83 -63.5t-119 -23.5q-134 0 -212.5 73t-78.5 205v74zM215 561q0 -64 34 -119t109 -116 q28 25 45 65.5t17 83.5q0 123 -141 238q-28 -23 -46 -66t-18 -86z" />
<glyph unicode="&#xa8;" horiz-adv-x="360" d="M25 1122v195h120v-195h-120zM213 1122v195h123v-195h-123z" />
<glyph unicode="&#xa9;" horiz-adv-x="1112" d="M35 639q0 145 67 266.5t186.5 192.5t266.5 71t267 -71t187.5 -192.5t67.5 -266.5q0 -144 -67.5 -265t-187.5 -192t-267 -71q-146 0 -266 71t-187 192t-67 265zM117 639q0 -190 123.5 -321.5t314.5 -131.5q192 0 316 131t124 322q0 192 -124 322.5t-316 130.5 q-191 0 -314.5 -130.5t-123.5 -322.5zM385 530v218q0 67 49.5 109t126.5 42q75 0 122.5 -41t47.5 -108v-33h-80v33q0 34 -23.5 56.5t-64.5 22.5q-43 0 -65.5 -22.5t-22.5 -58.5v-218q0 -34 23 -56.5t65 -22.5q41 0 64.5 21.5t23.5 55.5v35h80v-35q0 -65 -47.5 -107 t-122.5 -42q-76 0 -126 43t-50 108z" />
<glyph unicode="&#xaa;" horiz-adv-x="481" d="M43 805v47q0 89 55 146t168 104v117q0 15 -8.5 24.5t-21.5 9.5t-21 -9.5t-8 -24.5v-78h-144v59q0 82 48 133t135 51q83 0 127.5 -51.5t44.5 -138.5v-414q0 -34 41 -37v-112h-43q-77 0 -113 76q-34 -76 -123 -76q-61 0 -99 46t-38 128zM195 799q0 -45 36 -45q35 0 35 41 v192q-71 -39 -71 -108v-80z" />
<glyph unicode="&#xab;" horiz-adv-x="655" d="M43 338v117q161 87 199 338h69q0 -146 -24 -244t-80 -154q104 -101 104 -395h-69q-38 251 -199 338zM336 338v117q161 87 199 338h67q0 -293 -102 -398q102 -102 102 -395h-67q-38 251 -199 338z" />
<glyph unicode="&#xac;" horiz-adv-x="624" d="M78 549l131 131l-131 133l104 102l131 -133l129 133l105 -102l-133 -131l133 -131l-105 -105l-131 132l-131 -132z" />
<glyph unicode="&#xad;" horiz-adv-x="356" d="M27 557v154h303v-154h-303z" />
<glyph unicode="&#xae;" horiz-adv-x="1112" d="M35 639q0 145 67 266.5t186.5 192.5t266.5 71t267 -71t187.5 -192.5t67.5 -266.5q0 -144 -67.5 -265t-187.5 -192t-267 -71q-146 0 -266 71t-187 192t-67 265zM117 639q0 -190 123.5 -321.5t314.5 -131.5q192 0 316 131t124 322q0 192 -124 322.5t-316 130.5 q-191 0 -314.5 -130.5t-123.5 -322.5zM399 395v496h189q141 0 141 -131v-21q0 -45 -18.5 -70t-61.5 -32q40 -4 61 -33t21 -67v-62q0 -20 27 -20v-66h-25q-51 0 -71.5 17.5t-20.5 62.5v68q0 31 -15 50t-46 19h-91v-211h-90zM489 668h84q64 0 64 65v29q0 57 -55 57h-93v-151z " />
<glyph unicode="&#xaf;" horiz-adv-x="364" d="M23 1165v123h319v-123h-319z" />
<glyph unicode="&#xb0;" horiz-adv-x="409" d="M23 1204q0 74 52 127t130 53q80 0 131 -53t51 -127t-51 -128t-131 -54q-78 0 -130 54t-52 128zM117 1204q0 -45 23.5 -72.5t64.5 -27.5q42 0 66 27.5t24 72.5q0 44 -24 71.5t-66 27.5q-40 0 -64 -27.5t-24 -71.5z" />
<glyph unicode="&#xb1;" horiz-adv-x="1087" d="M49 0v1030h989v-1030h-989zM154 100h780v830h-780v-830z" />
<glyph unicode="&#xb4;" horiz-adv-x="262" d="M49 1102l66 274h151l-125 -274h-92z" />
<glyph unicode="&#xb6;" horiz-adv-x="856" d="M49 860v33q0 210 97.5 340.5t244.5 130.5h400v-1706h-113v1530h-111v-1530h-112v733h-64q-147 0 -244.5 130t-97.5 339zM328 705q0 -72 25.5 -117t70.5 -45h31v645h-31q-43 0 -69.5 -60.5t-26.5 -138.5v-284z" />
<glyph unicode="&#xb7;" horiz-adv-x="243" d="M41 561v240h162v-240h-162z" />
<glyph unicode="&#xb8;" horiz-adv-x="260" d="M23 -152l116 185l45 -35l-75 -119q14 12 49 12q53 0 83.5 -36t30.5 -95q0 -57 -36.5 -95t-90.5 -38q-31 0 -51 15v43h21q49 0 49 51v53q0 51 -49 51q-21 0 -47 -26z" />
<glyph unicode="&#xba;" horiz-adv-x="456" d="M39 829v357q0 89 54.5 143.5t135.5 54.5t135 -54.5t54 -143.5v-357q0 -90 -53.5 -144t-135.5 -54t-136 54t-54 144zM195 801q0 -18 10 -28.5t24 -10.5t24.5 10.5t10.5 28.5v413q0 17 -10.5 28t-24.5 11t-24 -11t-10 -28v-413z" />
<glyph unicode="&#xbb;" horiz-adv-x="653" d="M51 0q0 292 103 395q-103 106 -103 398h68q38 -252 198 -338v-117q-160 -86 -198 -338h-68zM342 0q0 294 104 395q-56 56 -80 154t-24 244h70q38 -252 198 -338v-117q-160 -86 -198 -338h-70z" />
<glyph unicode="&#xbf;" horiz-adv-x="505" d="M6 -84q0 96 35 214t100 230q72 121 72 285h127q0 -106 -19 -199t-75 -256q-53 -157 -53 -241q0 -69 12 -96t43 -27q55 0 55 76v159h172v-178q0 -114 -58.5 -188t-170.5 -74q-123 0 -181.5 79.5t-58.5 215.5zM203 784v222h147v-222h-147z" />
<glyph unicode="&#xc0;" horiz-adv-x="565" d="M-2 0l162 1364h239l162 -1364h-215l-12 233h-125l-21 -233h-190zM104 1704h154l66 -274h-93zM229 428h88l-36 565z" />
<glyph unicode="&#xc1;" horiz-adv-x="565" d="M-2 0l162 1364h239l162 -1364h-215l-12 233h-125l-21 -233h-190zM229 428h88l-36 565zM233 1430l66 274h152l-125 -274h-93z" />
<glyph unicode="&#xc2;" horiz-adv-x="565" d="M-2 0l162 1364h239l162 -1364h-215l-12 233h-125l-21 -233h-190zM92 1446v53q40 0 82.5 53.5t61.5 151.5h106q19 -98 61 -151.5t82 -53.5v-53q-37 -16 -69 -16q-106 0 -131 149q-25 -149 -131 -149q-25 0 -62 16zM229 428h88l-36 565z" />
<glyph unicode="&#xc3;" horiz-adv-x="565" d="M-2 0l162 1364h239l162 -1364h-215l-12 233h-125l-21 -233h-190zM96 1528q0 75 29.5 115t83.5 40q27 0 57 -21.5t55 -43t41 -21.5q14 0 22.5 10.5t8.5 26.5v47h66q18 -41 18 -77q0 -75 -29 -116.5t-83 -41.5q-27 0 -57.5 22t-56 44t-40.5 22q-29 0 -29 -37v-47h-67 q-19 37 -19 78zM229 428h88l-36 565z" />
<glyph unicode="&#xc4;" horiz-adv-x="565" d="M-2 0l162 1364h239l162 -1364h-215l-12 233h-125l-21 -233h-190zM129 1450v195h121v-195h-121zM229 428h88l-36 565zM317 1450v195h123v-195h-123z" />
<glyph unicode="&#xc5;" horiz-adv-x="565" d="M-2 0l162 1364h28q-22 36 -22 80q0 55 31.5 94t81.5 39t82 -39t32 -94q0 -44 -22 -80h28l162 -1364h-215l-12 233h-125l-21 -233h-190zM223 1444q0 -37 15 -57.5t41 -20.5t40.5 20.5t14.5 57.5t-14.5 57.5t-40.5 20.5t-41 -20.5t-15 -57.5zM229 428h88l-36 565z" />
<glyph unicode="&#xc6;" horiz-adv-x="825" d="M-2 0l250 1364h551v-197h-232v-370h154v-189h-154v-405h232v-203h-443v233h-123l-32 -233h-203zM268 428h88v567z" />
<glyph unicode="&#xc7;" horiz-adv-x="587" d="M41 260v844q0 123 78 201.5t194 78.5q115 0 179.5 -75t64.5 -199v-233h-180v239q0 29 -15.5 46.5t-46.5 17.5q-59 0 -59 -64v-868q0 -64 59 -64q31 0 46.5 17.5t15.5 46.5v239h180v-233q0 -124 -63 -198.5t-175 -75.5l-63 -101q14 12 49 12q53 0 84 -36t31 -95 q0 -57 -36.5 -95t-90.5 -38q-36 0 -51 15v43h20q49 0 49 51v53q0 51 -49 51q-23 0 -49 -26l-43 34l84 136q-94 21 -153.5 95t-59.5 181z" />
<glyph unicode="&#xc8;" horiz-adv-x="522" d="M53 0v1364h443v-197h-232v-372h154v-187h-154v-405h232v-203h-443zM98 1704h154l65 -274h-92z" />
<glyph unicode="&#xc9;" horiz-adv-x="522" d="M53 0v1364h443v-197h-232v-372h154v-187h-154v-405h232v-203h-443zM213 1430l66 274h151l-125 -274h-92z" />
<glyph unicode="&#xca;" horiz-adv-x="522" d="M53 0v1364h443v-197h-232v-372h154v-187h-154v-405h232v-203h-443zM76 1446v53q40 0 82 53.5t61 151.5h107q19 -98 61 -151.5t82 -53.5v-53q-37 -16 -70 -16q-106 0 -131 149q-25 -149 -131 -149q-24 0 -61 16z" />
<glyph unicode="&#xcb;" horiz-adv-x="522" d="M53 0v1364h443v-197h-232v-372h154v-187h-154v-405h232v-203h-443zM121 1450v195h121v-195h-121zM309 1450v195h123v-195h-123z" />
<glyph unicode="&#xcc;" horiz-adv-x="317" d="M-12 1704h153l66 -274h-92zM53 0v1364h211v-1364h-211z" />
<glyph unicode="&#xcd;" horiz-adv-x="317" d="M53 0v1364h211v-1364h-211zM111 1430l65 274h152l-125 -274h-92z" />
<glyph unicode="&#xce;" horiz-adv-x="317" d="M-29 1446v53q40 0 82.5 53.5t61.5 151.5h106q19 -98 61.5 -151.5t82.5 -53.5v-53q-37 -16 -70 -16q-106 0 -131 149q-25 -149 -131 -149q-25 0 -62 16zM53 0v1364h211v-1364h-211z" />
<glyph unicode="&#xcf;" horiz-adv-x="317" d="M4 1450v195h121v-195h-121zM53 0v1364h211v-1364h-211zM193 1450v195h122v-195h-122z" />
<glyph unicode="&#xd0;" horiz-adv-x="632" d="M-10 606v152h73v606h281q49 0 92 -15.5t78 -46t55.5 -83t20.5 -121.5v-840q0 -133 -70 -195.5t-176 -62.5h-281v606h-73zM274 195h50q55 0 55 71v832q0 69 -55 69h-50v-409h54v-152h-54v-411z" />
<glyph unicode="&#xd1;" horiz-adv-x="657" d="M51 0v1364h201l135 -612l41 -191v803h178v-1364h-174l-153 616l-48 187v-803h-180zM143 1528q0 75 29.5 115t83.5 40q27 0 57 -21.5t55.5 -43t41.5 -21.5q14 0 22 10.5t8 26.5v47h66q18 -41 18 -77q0 -75 -29 -116.5t-83 -41.5q-27 0 -57.5 22t-56 44t-40.5 22 q-29 0 -29 -37v-47h-67q-19 37 -19 78z" />
<glyph unicode="&#xd2;" horiz-adv-x="620" d="M43 254v856q0 120 77 197t189 77q114 0 190 -77t76 -197v-856q0 -121 -76 -197.5t-190 -76.5q-112 0 -189 76.5t-77 197.5zM137 1704h154l65 -274h-92zM258 240q0 -26 14 -41t37 -15t37 15t14 41v884q0 26 -14 41t-37 15t-37 -15t-14 -41v-884z" />
<glyph unicode="&#xd3;" horiz-adv-x="620" d="M43 254v856q0 120 77 197t189 77q114 0 190 -77t76 -197v-856q0 -121 -76 -197.5t-190 -76.5q-112 0 -189 76.5t-77 197.5zM258 240q0 -26 14 -41t37 -15t37 15t14 41v884q0 26 -14 41t-37 15t-37 -15t-14 -41v-884zM258 1430l66 274h151l-125 -274h-92z" />
<glyph unicode="&#xd4;" horiz-adv-x="620" d="M43 254v856q0 120 77 197t189 77q114 0 190 -77t76 -197v-856q0 -121 -76 -197.5t-190 -76.5q-112 0 -189 76.5t-77 197.5zM117 1446v53q40 0 82 53.5t61 151.5h107q19 -98 61 -151.5t82 -53.5v-53q-37 -16 -70 -16q-106 0 -131 149q-25 -149 -131 -149q-24 0 -61 16z M258 240q0 -26 14 -41t37 -15t37 15t14 41v884q0 26 -14 41t-37 15t-37 -15t-14 -41v-884z" />
<glyph unicode="&#xd5;" horiz-adv-x="620" d="M43 254v856q0 120 77 197t189 77q114 0 190 -77t76 -197v-856q0 -121 -76 -197.5t-190 -76.5q-112 0 -189 76.5t-77 197.5zM117 1528q0 75 29 115t83 40q35 0 86 -43t68 -43q14 0 22.5 10.5t8.5 26.5v47h65q19 -43 19 -77q0 -75 -29.5 -116.5t-83.5 -41.5q-27 0 -57.5 22 t-56 44t-40.5 22q-28 0 -28 -37v-47h-68q-18 35 -18 78zM258 240q0 -26 14 -41t37 -15t37 15t14 41v884q0 26 -14 41t-37 15t-37 -15t-14 -41v-884z" />
<glyph unicode="&#xd6;" horiz-adv-x="620" d="M43 254v856q0 120 77 197t189 77q114 0 190 -77t76 -197v-856q0 -121 -76 -197.5t-190 -76.5q-112 0 -189 76.5t-77 197.5zM156 1450v195h120v-195h-120zM258 240q0 -26 14 -41t37 -15t37 15t14 41v884q0 26 -14 41t-37 15t-37 -15t-14 -41v-884zM344 1450v195h123v-195 h-123z" />
<glyph unicode="&#xd7;" horiz-adv-x="624" d="M78 549l131 131l-131 133l104 102l131 -133l129 133l105 -102l-133 -131l133 -131l-105 -105l-131 132l-131 -132z" />
<glyph unicode="&#xd8;" horiz-adv-x="620" d="M2 -14l59 166q-18 46 -18 102v856q0 121 76 197.5t190 76.5q99 0 176 -61l37 94l94 -39l-61 -164q20 -44 20 -104v-856q0 -121 -77 -197.5t-189 -76.5q-105 0 -174 63l-39 -96zM256 240q0 -26 14.5 -41t38.5 -15q22 0 36.5 15t14.5 41v428l-104 -295v-133zM256 696 l104 295v133q0 26 -14.5 41t-36.5 15q-24 0 -38.5 -15t-14.5 -41v-428z" />
<glyph unicode="&#xd9;" horiz-adv-x="616" d="M49 248v1116h211v-1124q0 -26 14.5 -41t36.5 -15q24 0 39 15t15 41v1124h202v-1116q0 -117 -72.5 -192.5t-183.5 -75.5t-186.5 76t-75.5 192zM139 1704h154l65 -274h-92z" />
<glyph unicode="&#xda;" horiz-adv-x="616" d="M49 248v1116h211v-1124q0 -26 14.5 -41t36.5 -15q24 0 39 15t15 41v1124h202v-1116q0 -117 -72.5 -192.5t-183.5 -75.5t-186.5 76t-75.5 192zM266 1430l66 274h151l-125 -274h-92z" />
<glyph unicode="&#xdb;" horiz-adv-x="616" d="M49 248v1116h211v-1124q0 -26 14.5 -41t36.5 -15q24 0 39 15t15 41v1124h202v-1116q0 -117 -72.5 -192.5t-183.5 -75.5t-186.5 76t-75.5 192zM121 1446v53q40 0 82 53.5t61 151.5h107q19 -98 61 -151.5t82 -53.5v-53q-37 -16 -70 -16q-106 0 -131 149q-25 -149 -131 -149 q-24 0 -61 16z" />
<glyph unicode="&#xdc;" horiz-adv-x="616" d="M49 248v1116h211v-1124q0 -26 14.5 -41t36.5 -15q24 0 39 15t15 41v1124h202v-1116q0 -117 -72.5 -192.5t-183.5 -75.5t-186.5 76t-75.5 192zM158 1450v195h121v-195h-121zM346 1450v195h123v-195h-123z" />
<glyph unicode="&#xdd;" horiz-adv-x="577" d="M-4 1364h209l92 -537l82 537h205l-197 -819v-545h-211v545zM246 1430l65 274h152l-125 -274h-92z" />
<glyph unicode="&#xde;" horiz-adv-x="589" d="M53 0v1364h213v-234h74q43 0 80.5 -13t69.5 -40t50.5 -75t18.5 -113v-348q0 -125 -63.5 -184.5t-155.5 -59.5h-74v-297h-213zM266 475h53q37 0 37 57v349q0 59 -37 59h-53v-465z" />
<glyph unicode="&#xdf;" horiz-adv-x="538" d="M51 0v1073q0 134 58.5 212.5t160.5 78.5q104 0 160.5 -77.5t56.5 -213.5v-160q0 -64 -21 -116t-58 -78q86 -56 86 -195v-311q0 -108 -47 -168.5t-123 -60.5q-36 0 -56 20v105q51 0 51 77v373q0 45 -9.5 66.5t-37.5 21.5v166q60 0 60 88v209q0 88 -51 88q-27 0 -42.5 -23 t-15.5 -65v-1110h-172z" />
<glyph unicode="&#xe0;" horiz-adv-x="481" d="M25 213v84q0 117 60.5 196.5t180.5 149.5v166q0 21 -9 34t-24 13q-30 0 -30 -47v-115h-158v90q0 108 53.5 174t145.5 66q87 0 136.5 -67t49.5 -177v-604q0 -44 33 -49v-143h-39q-77 0 -115 90q-35 -90 -127 -90q-72 0 -114.5 61t-42.5 168zM74 1376h153l66 -274h-92z M188 201q0 -26 10.5 -42t28.5 -16t28.5 15.5t10.5 38.5v282q-78 -60 -78 -151v-127z" />
<glyph unicode="&#xe1;" horiz-adv-x="481" d="M25 213v84q0 117 60.5 196.5t180.5 149.5v166q0 21 -9 34t-24 13q-30 0 -30 -47v-115h-158v90q0 108 53.5 174t145.5 66q87 0 136.5 -67t49.5 -177v-604q0 -44 33 -49v-143h-39q-77 0 -115 90q-35 -90 -127 -90q-72 0 -114.5 61t-42.5 168zM188 201q0 -26 10.5 -42 t28.5 -16t28.5 15.5t10.5 38.5v282q-78 -60 -78 -151v-127zM197 1102l65 274h152l-125 -274h-92z" />
<glyph unicode="&#xe2;" horiz-adv-x="481" d="M25 213v84q0 117 60.5 196.5t180.5 149.5v166q0 21 -9 34t-24 13q-30 0 -30 -47v-115h-158v90q0 108 53.5 174t145.5 66q87 0 136.5 -67t49.5 -177v-604q0 -44 33 -49v-143h-39q-77 0 -115 90q-35 -90 -127 -90q-72 0 -114.5 61t-42.5 168zM51 1118v53q40 0 82.5 53.5 t61.5 151.5h106q19 -98 61 -151.5t82 -53.5v-53q-37 -16 -69 -16q-106 0 -131 149q-25 -149 -131 -149q-25 0 -62 16zM188 201q0 -26 10.5 -42t28.5 -16t28.5 15.5t10.5 38.5v282q-78 -60 -78 -151v-127z" />
<glyph unicode="&#xe3;" horiz-adv-x="481" d="M25 213v84q0 117 60.5 196.5t180.5 149.5v166q0 21 -9 34t-24 13q-30 0 -30 -47v-115h-158v90q0 108 53.5 174t145.5 66q87 0 136.5 -67t49.5 -177v-604q0 -44 33 -49v-143h-39q-77 0 -115 90q-35 -90 -127 -90q-72 0 -114.5 61t-42.5 168zM49 1200q0 75 29.5 115.5 t83.5 40.5q34 0 85 -43t68 -43q14 0 22.5 10.5t8.5 26.5v47h66q18 -40 18 -78q0 -75 -29.5 -116.5t-83.5 -41.5q-27 0 -57.5 22t-55.5 44t-40 22q-29 0 -29 -37v-47h-67q-19 37 -19 78zM188 201q0 -26 10.5 -42t28.5 -16t28.5 15.5t10.5 38.5v282q-78 -60 -78 -151v-127z " />
<glyph unicode="&#xe4;" horiz-adv-x="481" d="M25 213v84q0 117 60.5 196.5t180.5 149.5v166q0 21 -9 34t-24 13q-30 0 -30 -47v-115h-158v90q0 108 53.5 174t145.5 66q87 0 136.5 -67t49.5 -177v-604q0 -44 33 -49v-143h-39q-77 0 -115 90q-35 -90 -127 -90q-72 0 -114.5 61t-42.5 168zM88 1122v195h121v-195h-121z M188 201q0 -26 10.5 -42t28.5 -16t28.5 15.5t10.5 38.5v282q-78 -60 -78 -151v-127zM276 1122v195h123v-195h-123z" />
<glyph unicode="&#xe5;" horiz-adv-x="481" />
<glyph unicode="&#xe6;" horiz-adv-x="712" d="M25 213v84q0 117 60.5 196.5t180.5 149.5v162q0 21 -10.5 34t-24.5 13q-15 0 -24.5 -12.5t-9.5 -34.5v-111h-156v90q0 105 53 172.5t133 67.5q70 0 121 -70q23 33 59.5 51.5t75.5 18.5q87 0 140 -68.5t53 -177.5v-311h-238v-260q0 -53 43 -53q41 0 41 53v164h154v-142 q0 -109 -53 -177t-140 -68q-89 0 -135 67q-49 -67 -153 -67q-82 0 -126 61.5t-44 167.5zM188 203q0 -25 10.5 -40.5t28.5 -15.5t28.5 15t10.5 39v278q-78 -60 -78 -151v-125zM438 588h80v213q0 22 -10 37.5t-29 15.5q-18 0 -29.5 -16t-11.5 -37v-213z" />
<glyph unicode="&#xe7;" horiz-adv-x="473" d="M43 231v545q0 110 59.5 179t147.5 69t140 -67.5t52 -180.5v-143h-143v166q0 27 -11.5 42t-29.5 15q-20 0 -32.5 -15t-12.5 -42v-592q0 -27 12.5 -42t32.5 -15q18 0 29.5 15t11.5 42v168h143v-144q0 -106 -46 -171.5t-124 -73.5l-67 -107q12 12 47 12q54 0 85.5 -36 t31.5 -95q0 -57 -37.5 -95t-91.5 -38q-32 0 -52 15v43h21q49 0 49 51v53q0 51 -49 51q-21 0 -47 -26l-45 34l90 142q-72 14 -118 79.5t-46 161.5z" />
<glyph unicode="&#xe8;" horiz-adv-x="489" d="M43 229v549q0 106 60 176t147 70q88 0 144.5 -69t56.5 -177v-311h-236v-264q0 -22 10.5 -37.5t30.5 -15.5q41 0 41 53v168h154v-142q0 -108 -56.5 -176.5t-144.5 -68.5t-147.5 69t-59.5 176zM82 1376h154l65 -274h-92zM215 588h80v215q0 23 -10.5 38t-28.5 15 q-19 0 -30 -15t-11 -38v-215z" />
<glyph unicode="&#xe9;" horiz-adv-x="489" d="M43 229v549q0 106 60 176t147 70q88 0 144.5 -69t56.5 -177v-311h-236v-264q0 -22 10.5 -37.5t30.5 -15.5q41 0 41 53v168h154v-142q0 -108 -56.5 -176.5t-144.5 -68.5t-147.5 69t-59.5 176zM203 1102l65 274h152l-125 -274h-92zM215 588h80v215q0 23 -10.5 38t-28.5 15 q-19 0 -30 -15t-11 -38v-215z" />
<glyph unicode="&#xea;" horiz-adv-x="489" d="M43 229v549q0 106 60 176t147 70q88 0 144.5 -69t56.5 -177v-311h-236v-264q0 -22 10.5 -37.5t30.5 -15.5q41 0 41 53v168h154v-142q0 -108 -56.5 -176.5t-144.5 -68.5t-147.5 69t-59.5 176zM55 1118v53q40 0 82.5 53.5t61.5 151.5h106q19 -98 61.5 -151.5t82.5 -53.5 v-53q-37 -16 -70 -16q-106 0 -131 149q-25 -149 -131 -149q-25 0 -62 16zM215 588h80v215q0 23 -10.5 38t-28.5 15q-19 0 -30 -15t-11 -38v-215z" />
<glyph unicode="&#xeb;" horiz-adv-x="489" d="M43 229v549q0 106 60 176t147 70q88 0 144.5 -69t56.5 -177v-311h-236v-264q0 -22 10.5 -37.5t30.5 -15.5q41 0 41 53v168h154v-142q0 -108 -56.5 -176.5t-144.5 -68.5t-147.5 69t-59.5 176zM94 1122v195h121v-195h-121zM215 588h80v215q0 23 -10.5 38t-28.5 15 q-19 0 -30 -15t-11 -38v-215zM283 1122v195h123v-195h-123z" />
<glyph unicode="&#xec;" horiz-adv-x="274" />
<glyph unicode="&#xed;" horiz-adv-x="274" />
<glyph unicode="&#xee;" horiz-adv-x="274" />
<glyph unicode="&#xef;" horiz-adv-x="274" />
<glyph unicode="&#xf0;" horiz-adv-x="505" d="M43 231v586q0 74 40 129t95 55q59 0 111 -65q-6 106 -27 186l-96 -49l-33 86l96 49q-37 75 -112 150v6h194q42 -50 60 -84l73 35l33 -84l-67 -35q53 -133 53 -338v-627q0 -111 -60.5 -179t-150.5 -68t-149.5 67.5t-59.5 179.5zM215 199q0 -20 11 -34.5t26 -14.5t26 14.5 t11 34.5v604q0 21 -11 35t-26 14t-26 -14t-11 -35v-604z" />
<glyph unicode="&#xf1;" horiz-adv-x="518" d="M51 0v1006h160l8 -74q15 41 49.5 66.5t71.5 25.5q58 0 94.5 -50.5t36.5 -127.5v-846h-174v803q0 21 -11 35t-26 14t-26 -14t-11 -35v-803h-172zM68 1200q0 75 29 115.5t83 40.5q27 0 57 -21.5t55.5 -43t41.5 -21.5q14 0 22.5 10.5t8.5 26.5v47h65q19 -43 19 -78 q0 -75 -29.5 -116.5t-83.5 -41.5q-27 0 -57.5 22t-56 44t-40.5 22q-28 0 -28 -37v-47h-68q-18 35 -18 78z" />
<glyph unicode="&#xf2;" d="M43 231v543q0 112 59.5 181t149.5 69q88 0 147.5 -69t59.5 -181v-543q0 -111 -59.5 -179t-147.5 -68q-90 0 -149.5 67.5t-59.5 179.5zM80 1376h153l66 -274h-92zM215 199q0 -21 10 -35t27 -14q15 0 25 14.5t10 34.5v608q0 20 -10 34.5t-25 14.5q-17 0 -27 -14t-10 -35 v-608z" />
<glyph unicode="&#xf3;" d="M43 231v543q0 112 59.5 181t149.5 69q88 0 147.5 -69t59.5 -181v-543q0 -111 -59.5 -179t-147.5 -68q-90 0 -149.5 67.5t-59.5 179.5zM207 1102l65 274h152l-125 -274h-92zM215 199q0 -21 10 -35t27 -14q15 0 25 14.5t10 34.5v608q0 20 -10 34.5t-25 14.5q-17 0 -27 -14 t-10 -35v-608z" />
<glyph unicode="&#xf4;" d="M43 231v543q0 112 59.5 181t149.5 69q88 0 147.5 -69t59.5 -181v-543q0 -111 -59.5 -179t-147.5 -68q-90 0 -149.5 67.5t-59.5 179.5zM61 1118v53q40 0 82.5 53.5t61.5 151.5h106q19 -98 61.5 -151.5t82.5 -53.5v-53q-37 -16 -70 -16q-106 0 -131 149q-25 -149 -131 -149 q-25 0 -62 16zM215 199q0 -21 10 -35t27 -14q15 0 25 14.5t10 34.5v608q0 20 -10 34.5t-25 14.5q-17 0 -27 -14t-10 -35v-608z" />
<glyph unicode="&#xf5;" d="M43 231v543q0 112 59.5 181t149.5 69q88 0 147.5 -69t59.5 -181v-543q0 -111 -59.5 -179t-147.5 -68q-90 0 -149.5 67.5t-59.5 179.5zM61 1200q0 75 29.5 115.5t83.5 40.5q27 0 57 -21.5t55.5 -43t41.5 -21.5q14 0 22 10.5t8 26.5v47h66q18 -40 18 -78q0 -75 -29 -116.5 t-83 -41.5q-27 0 -57.5 22t-56 44t-40.5 22q-29 0 -29 -37v-47h-67q-19 37 -19 78zM215 199q0 -21 10 -35t27 -14q15 0 25 14.5t10 34.5v608q0 20 -10 34.5t-25 14.5q-17 0 -27 -14t-10 -35v-608z" />
<glyph unicode="&#xf6;" d="M43 231v543q0 112 59.5 181t149.5 69q88 0 147.5 -69t59.5 -181v-543q0 -111 -59.5 -179t-147.5 -68q-90 0 -149.5 67.5t-59.5 179.5zM96 1122v195h121v-195h-121zM215 199q0 -21 10 -35t27 -14q15 0 25 14.5t10 34.5v608q0 20 -10 34.5t-25 14.5q-17 0 -27 -14t-10 -35 v-608zM285 1122v195h123v-195h-123z" />
<glyph unicode="&#xf8;" d="M-23 20l78 166q-12 18 -12 52v536q0 112 59.5 181t149.5 69q50 0 92 -25t68 -71l53 108l61 -49l-80 -170q13 -19 13 -51v-535q0 -111 -59.5 -179t-147.5 -68q-103 0 -162 94l-51 -107zM215 199q0 -21 10 -35t27 -14q15 0 25 14.5t10 34.5v288l-72 -149v-139zM215 516 l72 150v141q0 20 -10 34.5t-25 14.5q-17 0 -27 -14t-10 -35v-291z" />
<glyph unicode="&#xf9;" horiz-adv-x="518" d="M49 160v846h172v-803q0 -21 11.5 -35t27.5 -14q14 0 24.5 14t10.5 35v803h172v-1006h-156l-8 74q-17 -41 -51 -65.5t-72 -24.5q-58 0 -94.5 50t-36.5 126zM84 1376h154l65 -274h-92z" />
<glyph unicode="&#xfa;" horiz-adv-x="518" d="M49 160v846h172v-803q0 -21 11.5 -35t27.5 -14q14 0 24.5 14t10.5 35v803h172v-1006h-156l-8 74q-17 -41 -51 -65.5t-72 -24.5q-58 0 -94.5 50t-36.5 126zM211 1102l65 274h152l-125 -274h-92z" />
<glyph unicode="&#xfb;" horiz-adv-x="518" d="M49 160v846h172v-803q0 -21 11.5 -35t27.5 -14q14 0 24.5 14t10.5 35v803h172v-1006h-156l-8 74q-17 -41 -51 -65.5t-72 -24.5q-58 0 -94.5 50t-36.5 126zM66 1118v53q40 0 82 53.5t61 151.5h106q19 -98 61.5 -151.5t82.5 -53.5v-53q-37 -16 -70 -16q-106 0 -131 149 q-25 -149 -131 -149q-24 0 -61 16z" />
<glyph unicode="&#xfc;" horiz-adv-x="518" d="M49 160v846h172v-803q0 -21 11.5 -35t27.5 -14q14 0 24.5 14t10.5 35v803h172v-1006h-156l-8 74q-17 -41 -51 -65.5t-72 -24.5q-58 0 -94.5 50t-36.5 126zM104 1122v195h121v-195h-121zM293 1122v195h123v-195h-123z" />
<glyph unicode="&#xfd;" horiz-adv-x="454" d="M12 1006h170l39 -431l12 -184l15 184l37 431h159l-151 -1080q-12 -81 -24.5 -126t-36.5 -81.5t-63 -50.5t-101 -14h-27v158h27q33 0 47 19t20 67l17 137zM188 1102l66 274h152l-125 -274h-93z" />
<glyph unicode="&#xfe;" horiz-adv-x="512" d="M51 -340v1704h172v-406q50 66 109 66q58 0 96.5 -54t38.5 -130v-674q0 -76 -38.5 -130t-96.5 -54q-60 0 -109 65v-387h-172zM223 203q0 -21 11 -35t26 -14t26 14t11 35v600q0 21 -11 35t-26 14t-26 -14t-11 -35v-600z" />
<glyph unicode="&#xff;" horiz-adv-x="454" d="M12 1006h170l39 -431l12 -184l15 184l37 431h159l-151 -1080q-12 -81 -24.5 -126t-36.5 -81.5t-63 -50.5t-101 -14h-27v158h27q33 0 47 19t20 67l17 137zM80 1122v195h121v-195h-121zM268 1122v195h123v-195h-123z" />
<glyph unicode="&#x131;" horiz-adv-x="274" d="M51 0v1006h172v-1006h-172z" />
<glyph unicode="&#x2c7;" horiz-adv-x="421" d="M14 1311v55q32 14 68 14q108 0 133 -149q25 149 131 149q34 0 62 -14v-55q-40 0 -82.5 -53.5t-59.5 -149.5h-108q-19 97 -61.5 150t-82.5 53z" />
<glyph unicode="&#x2d8;" horiz-adv-x="364" d="M23 1268q0 48 14 80h74v-27q0 -96 71 -96q37 0 55.5 26.5t18.5 69.5v27h74q12 -34 12 -80q0 -68 -45.5 -113t-114.5 -45t-114 45t-45 113z" />
<glyph unicode="&#x2d9;" horiz-adv-x="350" d="M115 1122v195h121v-195h-121z" />
<glyph unicode="&#x2da;" horiz-adv-x="276" d="M27 1245q0 54 31.5 93.5t80.5 39.5q48 0 80.5 -39.5t32.5 -93.5q0 -55 -32 -95t-81 -40q-50 0 -81 39.5t-31 95.5zM82 1245q0 -37 15.5 -57.5t41.5 -20.5t41 20.5t15 57.5t-15 57.5t-41 20.5t-41.5 -20.5t-15.5 -57.5z" />
<glyph unicode="&#x2db;" horiz-adv-x="260" d="M31 -162q0 136 174 207l16 -25q-88 -70 -88 -157q0 -88 90 -88h27v-54q-25 -18 -84 -18q-62 0 -98.5 37t-36.5 98z" />
<glyph unicode="&#x2dd;" horiz-adv-x="374" d="M23 1102l51 274h114l-82 -274h-83zM178 1102l72 274h117l-103 -274h-86z" />
<glyph unicode="&#x3a9;" horiz-adv-x="673" d="M20 840v161h70v93q0 133 52 201.5t169 68.5h31v-160h-18q-35 0 -49.5 -20.5t-14.5 -63.5v-119h148v93q0 133 52 201.5t169 68.5h30v-160h-18q-35 0 -49 -20.5t-14 -63.5v-119h84v-161h-80v-840h-174v840h-144v-840h-174v840h-70z" />
<glyph unicode="&#x3c0;" horiz-adv-x="1112" d="M35 639q0 145 67 266.5t186.5 192.5t266.5 71t267 -71t187.5 -192.5t67.5 -266.5q0 -144 -67.5 -265t-187.5 -192t-267 -71q-146 0 -266 71t-187 192t-67 265zM117 639q0 -190 123.5 -321.5t314.5 -131.5q192 0 316 131t124 322q0 192 -124 322.5t-316 130.5 q-191 0 -314.5 -130.5t-123.5 -322.5zM420 395v496h188q142 0 142 -127v-49q0 -60 -34 -95.5t-108 -35.5h-100v-189h-88zM508 655h92q57 0 57 58v51q0 59 -57 59h-92v-168z" />
<glyph unicode="&#x2000;" horiz-adv-x="852" />
<glyph unicode="&#x2001;" horiz-adv-x="1704" />
<glyph unicode="&#x2002;" horiz-adv-x="852" />
<glyph unicode="&#x2003;" horiz-adv-x="1704" />
<glyph unicode="&#x2004;" horiz-adv-x="568" />
<glyph unicode="&#x2005;" horiz-adv-x="426" />
<glyph unicode="&#x2006;" horiz-adv-x="284" />
<glyph unicode="&#x2007;" horiz-adv-x="284" />
<glyph unicode="&#x2008;" horiz-adv-x="213" />
<glyph unicode="&#x2009;" horiz-adv-x="340" />
<glyph unicode="&#x200a;" horiz-adv-x="94" />
<glyph unicode="&#x2010;" horiz-adv-x="356" d="M27 557v154h303v-154h-303z" />
<glyph unicode="&#x2011;" horiz-adv-x="356" d="M27 557v154h303v-154h-303z" />
<glyph unicode="&#x2012;" horiz-adv-x="356" d="M27 557v154h303v-154h-303z" />
<glyph unicode="&#x2013;" horiz-adv-x="1077" d="M27 557v154h1024v-154h-1024z" />
<glyph unicode="&#x2014;" horiz-adv-x="2101" d="M27 557v154h2048v-154h-2048z" />
<glyph unicode="&#x202f;" horiz-adv-x="340" />
<glyph unicode="&#x2044;" horiz-adv-x="190" d="M-449 -94l1018 1603l72 -51l-1018 -1603z" />
<glyph unicode="&#x205f;" horiz-adv-x="426" />
<glyph unicode="&#x220f;" horiz-adv-x="600" d="M53 0v1364h291q93 0 156 -59t63 -185v-315q0 -120 -82 -172l105 -633h-199l-88 569h-35v-569h-211zM264 741h60q38 0 38 58v315q0 57 -38 57h-60v-430z" />
<glyph unicode="&#x221a;" horiz-adv-x="946" d="M20 840v161h70v93q0 133 52 201.5t169 68.5h31v-160h-18q-35 0 -49.5 -20.5t-14.5 -63.5v-119h148v93q0 133 52 201.5t169 68.5h30v-160h-18q-35 0 -49 -20.5t-14 -63.5v-119h84v-161h-80v-840h-174v840h-144v-840h-174v840h-70zM723 0v1364h174v-1364h-174z" />
<glyph unicode="&#x2248;" horiz-adv-x="946" d="M20 840v161h70v93q0 133 52 201.5t169 68.5h31v-160h-18q-35 0 -49.5 -20.5t-14.5 -63.5v-119h148v93q0 133 52 201.5t169 68.5h30v-160h-18q-35 0 -49 -20.5t-14 -63.5v-119h84v-161h-80v-840h-174v840h-144v-840h-174v840h-70zM723 0v1006h174v-1006h-174zM727 1116 v197h166v-197h-166z" />
<glyph unicode="&#x2260;" horiz-adv-x="1060" d="M49 0v1006h963v-1006h-963z" />
<glyph unicode="&#x2264;" horiz-adv-x="671" d="M102 469v27l463 204v-438z" />
<glyph unicode="&#x2265;" horiz-adv-x="671" d="M121 262v438l463 -204v-27z" />
<glyph unicode="&#x25fc;" horiz-adv-x="1003" d="M0 0v1004h1004v-1004h-1004z" />
<glyph unicode="&#xfb01;" horiz-adv-x="628" d="M20 840v161h70v93q0 133 52 201.5t169 68.5h31v-160h-18q-35 0 -49.5 -20.5t-14.5 -63.5v-119h84v-161h-80v-840h-174v840h-70zM406 0v1006h174v-1006h-174zM410 1116v197h165v-197h-165z" />
<glyph unicode="&#xfb02;" horiz-adv-x="628" d="M20 840v161h70v93q0 133 52 201.5t169 68.5h31v-160h-18q-35 0 -49.5 -20.5t-14.5 -63.5v-119h84v-161h-80v-840h-174v840h-70zM406 0v1364h174v-1364h-174z" />
</font>
</defs>
</svg>
