<svg xmlns="http://www.w3.org/2000/svg" width="80" height="80"><path fill="#524741" d="M29.116 46.474c-.954-.081-1.903-.221-2.856-.429l.285-.821v-9.659l-.25-.323c-.286-.063-.572-.13-.86-.208l.825-2.641c.862.193 1.725.322 2.586.406v12.771l.27.904m8.458-12.934v11.406l-1.131 1.279c-1.518.186-3.031.32-4.545.342-.382-.371-.768-.749-1.148-1.136v-11.405c.38-.36.766-.729 1.148-1.109 1.514-.019 3.027-.155 4.545-.342.374.325.755.647 1.131.965m-2.57 1.493c-.574.058-1.147.104-1.724.134l-.269.266v8.567l.269.236c.576-.033 1.15-.079 1.724-.133l.272-.279v-8.564l-.272-.227m11.082-2.741v11.403c-.38.42-.758.842-1.133 1.267-1.516.201-3.029.445-4.542.685l-1.151-.952v-11.402l1.151-1.296c1.513-.237 3.026-.487 4.542-.682l1.133.977m-2.569 1.524c-.574.082-1.147.174-1.728.262l-.265.295v8.564l.265.209c.58-.09 1.153-.179 1.728-.262l.271-.293v-8.566l-.271-.209m7.523-1.925v1.904c-.323.328-.646.663-.969 1.002-.624.004-1.245.031-1.87.069l-1.004-.928v-1.902l1.004-1.046c.625-.04 1.246-.068 1.87-.073.323.317.646.643.969.974m-2.532-.13l-.521.555v1.238l.521.503c.406-.021.813-.036 1.221-.046l.521-.545v-1.238l-.521-.517c-.408.009-.815.026-1.221.05m3.859 12.241l.184.643c-.941-.074-1.883-.094-2.822-.074l.432-1.46c.677-3.867 1.354-7.712 2.027-11.527l-.214-.624c.951.054 1.903.161 2.856.335l-.45 1.361c-.668 3.748-1.341 7.534-2.013 11.346m4.978-1.327v1.888c-.323.233-.646.473-.971.721-.626-.163-1.243-.294-1.868-.396-.335-.392-.67-.776-1.005-1.152v-1.886c.335-.287.67-.571 1.005-.841.625.102 1.242.235 1.868.399.325.411.647.836.971 1.267m-2.533-.825l-.521.434v1.257l.521.608c.407.074.812.162 1.221.259l.52-.385v-1.257l-.52-.655c-.409-.101-.813-.184-1.221-.261m-2.075-13.82c-9.414-.827-18.835 3.897-28.253.905.487.565.978 1.106 1.468 1.63 9.421 2.228 18.835-2.578 28.257-1.136-.492-.482-.979-.946-1.472-1.399m0 18.105c-9.414-.826-18.835 3.898-28.253.905.487.563.978 1.104 1.468 1.629 9.421 2.228 18.835-2.579 28.257-1.135-.492-.482-.979-.948-1.472-1.399"/><path fill="#524741" d="M39.256 78.781c0-.301.237-.537.539-.549.292 0 .541.248.541.538 0 .303-.238.542-.541.542-.302 0-.539-.239-.539-.531zm-1.64.489c-.302-.011-.531-.271-.518-.561.021-.304.269-.531.57-.522.293.024.534.272.507.575-.008.279-.245.508-.539.508h-.02zm3.799-.53c-.021-.303.204-.554.505-.57.295-.023.552.203.574.506.012.293-.217.552-.508.572h-.033c-.281 0-.516-.228-.538-.508zm-5.979.365c-.301-.032-.52-.3-.488-.591.034-.304.302-.519.597-.488.29.033.507.292.482.596-.029.279-.269.483-.539.483h-.052zm8.126-.528c-.033-.302.186-.56.472-.604.296-.032.566.186.604.473.035.306-.181.564-.472.596v.01h-.067c-.267-.001-.505-.204-.537-.475zm-10.296.238c-.302-.054-.496-.323-.453-.614.053-.303.326-.498.624-.454h-.009c.302.045.497.325.453.626-.043.258-.269.452-.53.452l-.085-.01zm12.433-.518c-.044-.301.15-.58.441-.625.291-.054.574.14.625.443.055.29-.148.569-.439.614v.011h-.088c-.259 0-.483-.184-.539-.443zm-14.58.108c-.304-.065-.474-.354-.409-.647.052-.293.346-.478.635-.412.292.068.476.357.409.65-.052.248-.279.42-.526.42l-.109-.011zm16.706-.507c-.063-.303.108-.584.399-.646.291-.075.584.104.646.396.079.292-.107.584-.396.648l-.13.012c-.239.001-.465-.174-.519-.41zm-18.835-.023c-.289-.083-.45-.373-.378-.669.089-.279.378-.45.671-.367.281.075.452.38.365.663-.062.234-.279.396-.515.396l-.143-.023zm20.928-.496c-.085-.291.075-.593.367-.678.283-.077.582.085.669.365.089.291-.074.594-.366.67v.011l-.15.011c-.227 0-.454-.153-.52-.379zm-23.02-.15c-.28-.096-.431-.397-.334-.679.097-.292.399-.445.69-.347.281.096.42.41.335.689-.077.228-.292.369-.521.369l-.17-.032zm25.084-.488c-.102-.29.041-.591.321-.688.282-.096.593.042.692.322.097.281-.045.592-.325.691l-.186.033c-.224.001-.428-.139-.502-.358zm-27.136-.277c-.279-.12-.407-.422-.303-.702.121-.28.434-.412.703-.303.279.117.412.431.303.703-.088.213-.293.345-.497.345l-.206-.043zm29.152-.477c-.119-.272.013-.593.29-.702.273-.117.585.011.705.282.118.279-.011.595-.292.712l-.207.04c-.206 0-.408-.128-.496-.332zm-31.159-.411c-.271-.117-.386-.441-.258-.71.129-.271.451-.39.724-.258.269.126.377.451.258.722-.099.194-.291.302-.497.302-.077 0-.15-.011-.227-.056zm33.136-.454c-.131-.269-.023-.593.246-.723.271-.128.598-.021.724.252.13.269.021.591-.245.72-.079.045-.165.057-.24.057-.206 0-.399-.111-.485-.306zm-35.09-.526c-.258-.15-.355-.477-.215-.734.142-.27.464-.367.735-.217.259.143.355.465.218.724-.1.183-.294.283-.479.283-.086-.001-.182-.013-.259-.056zm37.011-.444c-.144-.259-.054-.582.215-.732.248-.142.583-.055.736.205.139.259.042.592-.216.734-.079.051-.176.076-.262.076-.195.001-.378-.109-.473-.283zm-38.909-.658c-.249-.161-.323-.495-.17-.743.159-.259.483-.336.742-.177.26.155.335.488.172.736-.096.176-.268.26-.452.26-.098 0-.194-.021-.292-.076zm40.777-.419c-.164-.249-.087-.583.172-.745h-.012c.258-.152.594-.087.746.162.159.259.095.595-.164.755-.086.054-.193.074-.289.074-.173 0-.348-.084-.453-.246zm-42.601-.789c-.248-.174-.304-.507-.13-.748.163-.245.497-.312.744-.137.249.171.303.507.143.754-.11.153-.282.227-.456.227-.097 0-.207-.032-.301-.096zm44.4-.389c-.173-.247-.118-.585.131-.754.235-.175.57-.12.745.126.182.24.118.572-.119.746v.008c-.098.067-.206.1-.314.1-.163 0-.335-.074-.443-.226zm-46.158-.907v-.011c-.24-.185-.281-.518-.087-.755.185-.236.519-.271.754-.088.229.185.272.52.086.757-.106.142-.256.204-.418.204-.121.001-.238-.03-.335-.107zm47.898-.377c-.182-.227-.152-.572.086-.758.229-.18.572-.148.756.085.186.229.149.574-.076.759-.107.076-.225.117-.344.117-.163 0-.316-.064-.422-.203zm-49.585-1.027c-.225-.193-.246-.538-.053-.766.194-.215.54-.237.767-.039.227.189.249.535.055.752-.108.13-.26.184-.412.184-.129 0-.259-.041-.357-.131zm51.247-.345c-.196-.226-.186-.571.042-.766.22-.194.562-.171.756.042.204.219.184.563-.031.767-.109.087-.238.13-.357.13-.148 0-.303-.054-.41-.173zm-52.841-1.145c-.216-.215-.229-.548-.013-.764.207-.205.552-.217.756 0 .215.203.226.549.011.754-.108.107-.248.163-.379.163-.138 0-.279-.056-.375-.153zm54.425-.321c-.213-.206-.213-.553 0-.768.206-.203.553-.203.766 0 .209.215.209.551 0 .768-.105.105-.244.159-.388.159-.139.001-.267-.053-.378-.159zm-55.949-1.253c-.205-.217-.183-.562.035-.768.213-.193.561-.182.765.045.193.218.181.562-.044.755-.098.097-.227.14-.357.14-.15 0-.293-.053-.399-.172zm57.451-.3c-.227-.194-.237-.54-.043-.758.195-.225.54-.246.766-.043.218.195.237.539.045.755-.109.12-.258.186-.414.186-.129-.001-.257-.044-.354-.14zm-58.874-1.362c-.194-.226-.163-.563.076-.757.227-.183.571-.15.755.075.194.237.15.572-.076.767-.097.076-.218.119-.346.119-.15 0-.313-.065-.409-.204zm60.288-.272c-.238-.181-.27-.527-.086-.754.184-.235.529-.27.757-.087.226.183.27.521.084.757-.108.14-.259.206-.421.206-.117 0-.237-.043-.334-.122zm-61.627-1.456c-.171-.247-.119-.581.117-.755.237-.172.583-.117.757.119.172.238.117.583-.119.756-.095.067-.203.098-.325.098-.16 0-.323-.077-.43-.218zm62.942-.247c-.235-.172-.301-.508-.128-.755.173-.236.508-.302.754-.132.239.175.304.51.132.756-.108.152-.272.229-.444.229-.106-.001-.215-.035-.314-.098zm-64.172-1.555c-.164-.258-.088-.584.163-.754.244-.162.579-.086.743.17.161.249.086.584-.164.746-.096.053-.193.077-.29.077-.183 0-.356-.089-.452-.239zm65.393-.226c-.249-.162-.324-.496-.162-.744.151-.249.486-.336.735-.175.258.165.334.499.172.746-.098.163-.279.258-.453.258-.1-.001-.195-.031-.292-.085zm-66.527-1.652c-.151-.259-.054-.583.205-.732.258-.144.584-.056.735.203.15.262.054.583-.207.735-.087.043-.172.077-.271.077-.18 0-.366-.098-.462-.283zm67.649-.193c-.261-.14-.357-.474-.205-.735.144-.259.477-.354.735-.214.26.15.354.476.206.733-.1.184-.283.281-.479.281-.085 0-.171-.022-.257-.065zm-68.675-1.736c-.129-.261-.019-.588.251-.725.256-.132.58-.021.722.247.13.271.022.593-.25.722-.074.046-.161.055-.237.055-.207 0-.387-.107-.486-.299zm69.702-.174c-.27-.131-.391-.453-.26-.722.127-.271.453-.38.724-.25.269.129.38.451.247.723-.086.196-.28.303-.483.303l-.228-.054zm-70.619-1.802c-.109-.281.012-.594.292-.711.269-.121.582.011.701.277.119.283-.01.594-.281.713-.066.033-.139.046-.216.046-.204 0-.409-.122-.496-.325zm71.524-.161c-.279-.109-.408-.433-.302-.703.118-.269.433-.397.712-.293.271.12.4.433.293.703-.088.216-.293.334-.495.334l-.208-.041zm-72.32-1.868c-.1-.28.042-.596.321-.693.28-.106.593.047.69.324v-.01c.099.28-.043.592-.324.701l-.185.035c-.213 0-.429-.145-.502-.357zm73.119-.14c-.279-.099-.432-.399-.334-.691v.01c.098-.279.398-.43.679-.335.291.098.435.402.339.68v.012c-.078.213-.284.357-.51.357l-.174-.033zm-73.812-1.943c-.086-.282.075-.584.366-.67.283-.087.585.076.669.369.088.277-.074.581-.354.666l-.163.021c-.227 0-.443-.148-.518-.386zm74.495-.106c-.295-.079-.455-.38-.381-.662.086-.292.389-.452.671-.378.288.086.452.389.365.669-.064.237-.281.39-.518.39l-.137-.019zm-75.058-2.011h-.008c-.065-.292.118-.583.397-.646.292-.066.585.107.658.397.068.295-.107.584-.396.648l-.132.023c-.238.001-.461-.174-.519-.422zm75.617-.066c-.29-.074-.475-.354-.41-.646.066-.291.354-.475.649-.408.289.062.474.355.408.646-.066.246-.28.419-.53.419l-.117-.011zm-76.069-2.071c-.054-.291.139-.57.435-.626.29-.053.57.141.625.432.052.292-.144.572-.433.625l-.096.014c-.262-.001-.489-.187-.531-.445zm76.511-.043c-.29-.052-.484-.321-.442-.624.054-.295.334-.489.625-.444.293.055.486.334.443.626-.043.26-.27.454-.527.454l-.099-.012zm-76.845-2.115c-.033-.303.171-.572.473-.606.296-.042.563.175.607.466.032.301-.173.57-.476.604l-.063.012c-.27-.001-.51-.204-.541-.476zm77.181-.022c-.302-.032-.519-.292-.476-.594.031-.291.29-.506.594-.474.291.031.508.301.475.594-.031.277-.271.485-.541.485l-.052-.011zm-77.386-2.159c-.022-.302.205-.561.503-.568.296-.025.554.19.575.492.022.303-.205.553-.507.572l-.033.016c-.279 0-.517-.229-.538-.512zm77.59.012c-.303-.013-.529-.271-.506-.563.009-.303.27-.527.559-.508.305.012.529.27.52.562-.022.292-.26.51-.539.51l-.034-.001zm-77.678-2.202c-.011-.293.238-.539.529-.539.304-.012.549.227.549.524 0 .297-.233.542-.529.554h-.009c-.292 0-.54-.235-.54-.539zm77.224-.485c0-.216.119-.39.302-.486-.183-.086-.302-.259-.312-.475-.01-.292.229-.541.529-.551.293-.011.541.226.551.529.01.215-.119.398-.293.496.186.086.303.271.303.486 0 .291-.236.54-.539.54-.291.001-.541-.248-.541-.539zm-76.674-1.134c-.301-.023-.526-.271-.516-.561.009-.303.271-.53.557-.52.305.012.531.258.522.561-.013.295-.25.52-.541.52h-.022zm76.556-1.953c-.023-.294.193-.551.496-.573.291-.031.553.195.572.499h.012c.021.289-.206.548-.496.581h-.045c-.279 0-.517-.218-.539-.507zm-76.437-.206c-.292-.031-.517-.291-.487-.583v-.012c.036-.29.294-.505.597-.475.292.021.517.293.485.586-.033.278-.271.483-.541.483l-.054.001zm76.21-1.898c-.043-.302.162-.573.464-.616.29-.031.56.173.604.464.043.302-.161.573-.463.616h-.076c-.259-.001-.497-.197-.529-.464zm-75.973-.238c-.289-.054-.495-.324-.442-.629v.012c.043-.301.314-.508.614-.453.294.041.497.324.455.615-.044.271-.28.455-.54.455h-.087zm75.628-1.867c-.064-.293.131-.572.422-.628.291-.064.582.13.637.423.053.287-.143.581-.433.637l-.097.01c-.259-.001-.485-.184-.529-.442zm-75.259-.27c-.292-.056-.477-.346-.42-.638.063-.291.355-.475.647-.41.29.055.472.345.409.636-.055.249-.28.423-.528.423l-.108-.011zm74.796-1.807c-.076-.289.096-.58.388-.655.291-.074.583.099.658.388.076.29-.108.583-.401.66l-.127.021c-.237 0-.452-.173-.518-.414zm-74.323-.299c-.281-.076-.453-.367-.376-.656.075-.292.376-.454.668-.379.282.077.457.379.378.668-.066.237-.293.388-.518.388l-.152-.021zm73.741-1.747c-.088-.281.073-.584.354-.681.281-.086.585.075.669.356.099.279-.063.595-.345.68l-.16.021c-.241 0-.445-.137-.518-.376zm-73.137-.324c-.29-.087-.441-.399-.345-.68.097-.281.4-.432.683-.337.29.088.429.401.343.682-.076.226-.292.365-.517.365l-.164-.03zm72.443-1.686c-.107-.279.032-.593.313-.698.281-.101.593.044.689.322.111.269-.032.583-.31.69l-.186.031c-.223.001-.43-.128-.506-.345zm-71.729-.354c-.28-.106-.422-.421-.301-.702.109-.27.42-.408.702-.303.27.109.41.434.3.705-.083.212-.289.341-.504.341l-.197-.041zm70.919-1.609c-.115-.281 0-.597.282-.713.269-.117.596 0 .712.27.118.27-.01.594-.281.713-.061.031-.141.056-.215.056-.205 0-.409-.13-.498-.326zm-70.1-.387c-.268-.122-.378-.442-.257-.713.131-.271.455-.39.712-.26.283.12.398.443.271.712-.097.195-.293.313-.496.313-.076 0-.153-.019-.23-.052zm69.194-1.534c-.139-.27-.031-.594.227-.723.27-.137.596-.034.724.228.143.27.033.592-.226.733-.088.043-.162.055-.252.055-.192-.001-.386-.108-.473-.293zm-68.254-.409c-.257-.141-.355-.467-.214-.736.14-.256.464-.355.733-.214.259.141.354.463.215.724-.096.181-.28.291-.475.291-.088 0-.171-.023-.259-.065zm67.23-1.447c-.151-.27-.064-.593.193-.746.26-.15.593-.062.746.195.139.259.053.583-.195.733-.088.054-.184.075-.271.075-.192.001-.377-.096-.473-.257zm-66.183-.442c-.248-.161-.335-.496-.174-.745.153-.246.488-.332.737-.184.258.164.334.484.181.744-.096.172-.277.26-.462.26-.098 0-.196-.022-.282-.075zm65.058-1.37c-.158-.248-.094-.584.154-.743.247-.164.582-.099.756.147.161.249.085.583-.162.746-.088.064-.195.095-.293.095-.172 0-.346-.086-.455-.245zm-63.903-.467c-.247-.159-.314-.507-.14-.743.173-.247.508-.313.755-.139.239.173.301.507.131.753h.008c-.105.151-.281.229-.451.229-.109 0-.208-.035-.303-.1zm62.684-1.27c-.182-.239-.127-.585.108-.757.238-.185.583-.13.758.104.183.239.128.585-.11.758-.098.077-.215.107-.322.107-.162.001-.325-.073-.434-.212zm-61.432-.487c-.236-.184-.281-.52-.097-.756.183-.236.52-.281.754-.098.239.184.281.519.1.756-.11.142-.271.215-.432.215-.111 0-.227-.043-.325-.117zm60.118-1.189c-.195-.228-.164-.561.062-.754.229-.194.573-.164.768.064.186.225.163.572-.075.755-.098.086-.226.131-.347.131-.149.001-.303-.065-.408-.196zm-58.778-.496c-.228-.193-.249-.537-.055-.769v.012c.194-.227.541-.257.769-.063.223.195.245.54.052.766-.108.12-.259.184-.412.184-.128-.001-.247-.044-.354-.13zm57.365-1.099c-.206-.217-.188-.562.03-.758.217-.203.563-.193.756.024.205.216.193.561-.021.764-.098.099-.238.142-.368.142-.139 0-.291-.056-.397-.172zm-55.93-.51c-.206-.215-.218-.549-.011-.764.216-.218.55-.218.764-.014.216.207.216.554.013.757v.013c-.108.105-.249.16-.39.16-.13 0-.267-.054-.376-.152zm54.438-1.003c-.216-.204-.226-.539-.019-.755.202-.227.549-.227.766-.023.213.209.225.552.021.769-.111.106-.249.163-.391.163-.137-.001-.268-.047-.377-.154zm-52.904-.527c-.208-.219-.198-.561.032-.756.213-.206.549-.196.754.021.204.228.183.562-.032.765-.097.098-.238.142-.365.142-.145 0-.295-.055-.389-.172zm51.328-.898c-.227-.195-.257-.54-.066-.765.197-.227.541-.251.767-.055.229.196.249.528.056.755-.107.13-.259.195-.41.195-.12.001-.249-.042-.347-.13zm-49.732-.54c-.185-.236-.152-.571.075-.767.237-.183.572-.15.766.076.184.229.151.574-.077.755-.095.088-.224.132-.344.132-.153 0-.313-.067-.42-.196zm48.082-.798c-.24-.183-.293-.518-.108-.756.184-.237.52-.291.755-.105.236.182.28.517.097.752-.097.141-.259.217-.42.217-.119 0-.228-.031-.324-.108zm-46.4-.549c-.173-.247-.119-.583.12-.755.237-.185.583-.133.753.106.174.248.132.581-.117.757-.097.075-.208.107-.314.107-.172 0-.333-.075-.442-.215zm44.675-.701h-.013c-.238-.164-.304-.511-.141-.747.173-.246.507-.313.755-.141.238.162.3.497.139.743-.104.154-.267.24-.45.24-.098.001-.207-.031-.29-.095zm-42.916-.55c-.161-.262-.095-.583.163-.76.247-.158.583-.085.745.166.162.246.086.581-.162.745-.086.064-.196.083-.292.083-.173 0-.344-.083-.454-.234zm41.122-.594h-.011c-.248-.151-.336-.486-.184-.746.15-.248.486-.336.744-.183.249.151.334.485.186.743-.109.163-.283.261-.467.261-.097 0-.182-.021-.268-.075zm-39.295-.562c-.15-.26-.066-.593.192-.745v.01c.262-.151.594-.062.733.195.152.258.068.582-.194.734-.083.053-.172.073-.268.073-.184.001-.367-.096-.463-.267zm37.426-.485c-.257-.141-.354-.466-.215-.733.129-.261.465-.358.724-.229.26.143.366.478.227.734-.096.181-.279.294-.477.294-.086-.001-.171-.024-.259-.066zm-35.55-.571c-.131-.261-.02-.583.25-.725.257-.129.581-.021.722.249.131.26.023.581-.238.723-.084.031-.161.055-.249.055-.194-.001-.387-.111-.485-.302zm33.641-.369c-.27-.131-.387-.442-.258-.713.119-.268.441-.398.71-.268.272.116.39.44.272.709-.097.208-.291.314-.498.314-.073.001-.15-.009-.226-.042zm-31.699-.572c-.118-.271 0-.597.281-.713.271-.117.584.012.702.281.12.28 0 .593-.27.713l-.216.041c-.216 0-.41-.118-.497-.322zm29.736-.26h.009c-.278-.109-.419-.421-.313-.701.109-.28.421-.412.703-.302.281.107.408.421.303.7-.076.208-.281.337-.497.337l-.205-.034zm-27.748-.57c-.108-.282.031-.596.312-.691.281-.096.595.043.701.322.097.27-.045.582-.321.691l-.186.033c-.226.001-.433-.142-.506-.355zm25.75-.152c-.291-.086-.443-.398-.343-.68.085-.281.386-.443.677-.346.281.097.434.399.346.681-.075.225-.29.378-.519.378l-.161-.033zm-23.722-.563c-.085-.29.075-.592.368-.678.279-.088.581.075.667.353.089.296-.074.598-.355.681l-.161.023c-.227 0-.445-.152-.519-.379zm21.67-.042c-.278-.075-.452-.367-.378-.657.079-.295.378-.454.659-.391v.011c.291.074.464.368.39.659-.064.239-.28.4-.527.4l-.144-.022zm-19.598-.572c-.063-.28.108-.573.398-.647.291-.074.583.108.649.4.075.279-.096.571-.389.646l-.128.022c-.251.001-.466-.173-.53-.421zm17.539.088c-.292-.065-.486-.347-.422-.639.057-.29.345-.485.638-.423.291.057.474.35.421.641-.055.258-.281.431-.529.431l-.108-.01zm-15.435-.573c-.057-.292.14-.572.429-.627.294-.053.575.139.629.433.054.289-.131.583-.431.626l-.098.012c-.245-.001-.485-.185-.529-.444zm13.339.193v.012c-.3-.044-.496-.325-.454-.615.046-.305.315-.507.606-.451.302.04.496.311.454.602-.032.27-.271.465-.529.465l-.077-.013zm-11.213-.56c-.042-.293.174-.562.463-.604.304-.034.574.173.606.462.043.304-.163.574-.465.615h-.066c-.267-.001-.504-.194-.538-.473zm9.1.313c-.293-.034-.518-.289-.486-.585.021-.301.29-.516.582-.496.301.034.518.292.484.596-.021.279-.256.485-.539.485h-.041zm-6.96-.55c-.013-.305.202-.562.505-.585.292-.021.55.195.572.499.022.301-.196.56-.497.581h-.033c-.292 0-.515-.216-.547-.495zm4.834.421v-.012c-.29-.012-.53-.261-.52-.562.012-.291.257-.528.56-.507v-.01c.292.01.529.257.52.558-.011.294-.246.532-.54.532l-.02.001zm-2.678-.55c0-.304.239-.552.529-.552.303-.011.549.226.549.528.014.292-.224.54-.525.55h-.013c-.291.001-.526-.239-.54-.526z"/><path fill="#524741" d="M39.029 65.086c-.302-.01-.527-.258-.527-.55.008-.302.248-.541.548-.529.301 0 .54.247.53.551-.013.292-.25.528-.54.528h-.011zm1.629-.55c-.021-.302.207-.562.508-.583.289-.01.551.207.571.506.012.305-.206.551-.508.573h-.033c-.288 0-.517-.215-.538-.496zm-3.829.409c-.292-.032-.507-.302-.475-.594.029-.301.302-.518.592-.484.292.032.506.303.475.592-.031.282-.257.486-.527.486h-.065zm5.98-.602c-.043-.292.149-.572.452-.615.29-.043.562.149.614.442.045.302-.162.571-.451.625h-.088c-.259 0-.486-.184-.527-.452zm-8.16.268c-.294-.063-.476-.344-.421-.637.066-.29.346-.485.636-.42.29.054.485.334.42.624-.053.261-.279.443-.528.443l-.107-.01zm10.283-.647c-.075-.292.098-.583.389-.657.294-.066.584.108.659.399.065.289-.108.584-.399.646l-.129.023c-.236 0-.467-.162-.52-.411zm-12.423.12c-.29-.089-.442-.389-.364-.669.084-.292.386-.453.667-.367.292.084.453.376.366.667-.062.238-.28.389-.519.389l-.15-.02zm14.508-.689c-.108-.284.043-.586.325-.682.289-.098.592.054.689.335.096.28-.054.582-.335.68l-.173.03c-.226 0-.431-.139-.506-.363zm-16.59-.024c-.281-.109-.422-.423-.301-.702.107-.28.42-.422.688-.302h.014c.269.105.409.423.302.691-.089.215-.292.346-.508.346l-.195-.033zm18.606-.723c-.129-.271 0-.595.27-.713.268-.118.594 0 .711.27.119.268 0 .596-.267.711-.074.032-.151.056-.228.056-.205 0-.397-.13-.486-.324zm-20.624-.185c-.258-.129-.366-.451-.238-.72.129-.263.454-.37.724-.241.27.131.378.454.239.725-.087.195-.283.301-.487.301-.075-.001-.161-.02-.238-.065zm22.568-.744c-.14-.258-.052-.582.207-.732h.01c.248-.14.583-.056.732.202.141.261.046.594-.215.735-.076.045-.172.074-.26.074-.193 0-.377-.096-.474-.279zm-24.489-.323c-.257-.153-.335-.487-.173-.748.153-.247.485-.333.737-.17.256.151.333.486.181.744-.109.165-.281.25-.464.25-.098.001-.196-.023-.281-.076zm26.344-.766c-.161-.25-.096-.583.152-.756.237-.162.572-.096.746.139.172.249.096.585-.141.759-.098.064-.207.095-.303.095-.173-.001-.345-.085-.454-.237zm-28.168-.477c-.238-.171-.291-.517-.109-.755.174-.237.521-.279.757-.108.237.172.28.521.105.757-.105.138-.268.215-.43.215-.12 0-.226-.032-.323-.109zm29.93-.774c-.193-.239-.16-.572.074-.768.229-.185.562-.151.757.077.19.222.159.57-.077.753v.011c-.097.075-.217.118-.336.118-.158 0-.311-.064-.418-.191zm-31.635-.616c-.227-.196-.249-.541-.043-.756.192-.228.54-.249.754-.043.228.195.251.54.044.756-.11.119-.25.184-.4.184-.129-.001-.259-.054-.355-.141zm33.273-.799c-.215-.215-.205-.551 0-.757.217-.215.563-.204.768 0 .205.217.205.561-.01.768-.109.106-.238.15-.379.15-.142 0-.281-.054-.379-.161zm-34.862-.746c-.192-.215-.181-.551.034-.756.218-.203.561-.192.768.022h-.013c.205.217.196.562-.022.768-.105.097-.234.141-.365.141-.141 0-.293-.056-.402-.175zm36.364-.798c-.228-.193-.252-.529-.057-.757.193-.228.529-.257.756-.064.23.196.26.542.066.768-.107.118-.261.183-.412.183-.128-.001-.245-.044-.353-.13zm-37.8-.862c-.182-.237-.137-.582.099-.767.238-.184.571-.143.756.099.183.224.14.57-.088.755-.098.074-.215.119-.334.119-.161 0-.323-.076-.433-.206zm39.17-.8c-.248-.174-.303-.508-.129-.754.173-.24.507-.304.757-.129.237.17.3.505.127.752-.107.152-.271.229-.442.229-.109-.001-.215-.034-.313-.098zm-40.452-.994c-.162-.246-.084-.58.164-.742.244-.174.581-.1.742.15.165.247.096.581-.15.744-.098.062-.195.088-.292.088-.183 0-.357-.088-.464-.24zm41.673-.785c-.26-.163-.347-.487-.197-.745.153-.259.477-.345.737-.196.257.152.345.487.192.745-.11.161-.281.259-.477.259-.086-.001-.182-.021-.255-.063zm-42.784-1.113c-.14-.271-.045-.594.216-.732.268-.143.59-.034.733.226.138.258.041.582-.227.723-.075.044-.162.062-.248.062-.194 0-.377-.096-.474-.279zm43.829-.776c-.269-.132-.388-.454-.26-.727.131-.269.453-.378.722-.246.271.119.378.442.262.713h-.011c-.086.192-.28.312-.485.312l-.228-.052zm-44.78-1.209c-.12-.282.008-.594.28-.715.282-.118.594.012.712.293.119.269-.011.582-.289.7l-.208.044c-.215 0-.406-.121-.495-.322zm45.666-.768c-.28-.098-.432-.409-.326-.689.109-.284.412-.423.691-.313.283.096.431.409.328.69-.09.215-.295.354-.51.354l-.183-.042zm-46.432-1.305c-.098-.28.055-.583.347-.68.282-.088.582.064.68.356.086.28-.067.58-.356.667l-.163.034c-.228.001-.443-.153-.508-.377zm47.133-.722c-.291-.089-.463-.38-.389-.67.086-.282.381-.453.671-.378.278.074.452.378.378.657-.068.249-.295.398-.53.398l-.13-.007zm-47.716-1.404c-.064-.292.106-.572.41-.647.28-.065.574.118.637.409.066.292-.118.581-.409.648l-.118.009c-.238 0-.466-.17-.52-.419zm48.234-.703c-.301-.043-.496-.322-.443-.615v-.01c.056-.293.336-.484.628-.431.291.054.485.333.442.623h-.012c-.044.259-.27.443-.528.443l-.087-.01zm-48.624-1.467c-.043-.291.164-.56.457-.605.301-.04.571.176.611.465.035.293-.168.562-.46.605l-.077.011c-.271-.001-.498-.205-.531-.476zm48.948-.658c-.291-.024-.519-.295-.486-.581.022-.305.28-.52.583-.497.29.028.506.289.485.593-.021.278-.259.485-.537.485h-.045zm-49.149-1.535c-.011-.299.222-.548.515-.558.304-.025.552.213.561.504.013.303-.216.55-.506.562l-.022.012c-.29.001-.53-.228-.548-.52zm48.748-1.152v-.111c0-.29.239-.538.54-.538.292 0 .54.236.54.538v.11c0 .291-.238.54-.54.54-.3.001-.54-.248-.54-.539zm-48.233-.486c-.301-.011-.525-.27-.515-.561.008-.304.268-.542.558-.521.302.011.531.262.518.561-.009.294-.247.521-.537.521h-.024zm48.138-1.728c-.033-.304.194-.561.486-.584.301-.031.56.185.581.486.031.303-.185.562-.483.583l-.043.013c-.282 0-.522-.217-.541-.498zm-48.008-.431c-.291-.032-.495-.306-.465-.603.042-.295.315-.5.606-.465.303.042.506.312.464.604h.01c-.045.271-.27.475-.542.475l-.073-.011zm47.715-1.652c-.053-.289.141-.581.443-.627.293-.064.571.139.625.433.054.29-.14.572-.44.627l-.089.01c-.254-.001-.483-.184-.539-.443zm-47.378-.474c-.293-.064-.486-.356-.412-.649.065-.289.346-.476.638-.409.29.064.473.355.408.65-.054.246-.282.419-.527.419l-.107-.011zm46.914-1.587c-.073-.281.089-.584.379-.659.28-.086.583.087.657.378.086.281-.085.582-.377.659l-.139.021c-.238 0-.455-.161-.52-.399zm-46.409-.506c-.279-.099-.442-.4-.346-.681.088-.281.391-.443.669-.356.282.1.442.4.354.679-.073.227-.289.38-.515.38l-.162-.022zm45.764-1.491v-.011c-.109-.269.028-.585.309-.692.284-.105.595.044.694.326v-.013c.105.28-.033.596-.314.702l-.183.032c-.228.001-.431-.137-.506-.344zm-45.062-.561c-.281-.108-.41-.419-.291-.702.119-.28.43-.398.701-.292.281.119.41.433.292.713-.088.204-.284.322-.498.322l-.204-.041zm44.229-1.382c-.127-.27-.011-.593.259-.724.271-.127.582-.011.712.261v-.013c.129.271.021.595-.247.726-.077.042-.152.055-.237.055-.195 0-.39-.11-.487-.305zm-43.354-.582c-.261-.142-.369-.465-.229-.734.141-.258.466-.366.734-.228.26.142.356.466.228.735-.1.183-.293.291-.487.291-.082.001-.171-.022-.246-.064zm42.36-1.273c-.15-.26-.063-.594.195-.744.248-.152.582-.064.734.183.15.257.064.594-.194.744-.085.056-.173.074-.271.074-.183 0-.366-.096-.464-.257zm-41.315-.616c-.247-.164-.324-.496-.162-.744.162-.249.498-.324.746-.162s.322.497.162.742c-.107.164-.27.25-.455.25-.097 0-.205-.021-.291-.086zm40.162-1.155c-.175-.235-.12-.582.118-.755.247-.173.584-.119.756.128.174.239.117.571-.118.746-.099.074-.219.107-.325.107-.163.001-.324-.073-.431-.226zm-38.954-.627c-.223-.182-.278-.528-.086-.756.174-.235.521-.279.757-.096.226.181.268.519.097.756-.108.141-.268.205-.429.205-.12.001-.242-.034-.339-.109zm37.648-1.023c-.195-.227-.174-.573.055-.768.226-.195.569-.173.751.054.21.227.175.571-.052.766-.098.088-.227.131-.344.131-.154-.001-.302-.066-.41-.183zm-36.287-.648c-.213-.208-.226-.551-.022-.768.205-.217.542-.228.766-.031.217.201.229.55.022.765-.107.12-.247.175-.387.175-.141 0-.269-.046-.379-.141zm34.84-.884c-.217-.218-.228-.562-.01-.768.202-.215.55-.215.766-.012h-.01c.215.206.229.55.01.768-.098.107-.237.162-.378.162-.142 0-.281-.055-.378-.15zm-33.329-.661c-.206-.228-.183-.571.044-.765.215-.208.562-.183.756.042.205.216.184.561-.034.756-.106.097-.233.141-.365.141-.151 0-.291-.054-.401-.174zm31.755-.744c-.24-.193-.272-.529-.076-.766.184-.228.516-.26.755-.077.228.196.258.528.075.757-.107.129-.259.205-.419.205-.121 0-.241-.043-.335-.119zm-30.125-.669c-.173-.238-.13-.571.109-.757.235-.183.581-.129.755.109.185.238.128.572-.109.756-.096.076-.203.107-.326.107-.159.001-.32-.075-.429-.215zm28.427-.592c-.246-.164-.311-.498-.149-.748.171-.246.508-.311.755-.148.25.172.312.508.141.754-.097.153-.273.238-.44.238-.11-.001-.219-.032-.307-.096zm-26.665-.661c-.163-.256-.09-.593.17-.754.249-.151.581-.076.744.184.152.246.077.583-.182.744h.009c-.095.053-.193.075-.291.075-.172 0-.354-.087-.45-.249zm24.865-.441c-.259-.151-.355-.474-.206-.733.14-.262.475-.357.735-.216.256.152.357.476.205.732-.098.184-.282.281-.466.281-.094 0-.18-.021-.268-.064zm-23.022-.657c-.129-.271-.02-.596.249-.736.26-.129.582-.021.724.248.129.261.021.583-.236.723-.089.034-.163.055-.251.055-.195-.001-.389-.107-.486-.29zm21.132-.281c-.271-.121-.388-.444-.271-.715.122-.268.442-.399.715-.28.268.132.4.442.268.712-.085.206-.28.323-.496.323l-.216-.04zm-19.18-.662c-.107-.269.022-.58.304-.7.27-.107.592.032.701.303.109.278-.033.594-.303.702l-.203.042c-.204 0-.408-.129-.499-.347zm17.217-.105c-.281-.096-.433-.411-.335-.69.097-.28.399-.433.691-.335.279.096.432.399.334.679-.076.228-.29.366-.519.366l-.171-.02zm-15.195-.637c-.089-.293.071-.597.366-.682.282-.075.582.085.667.369.087.279-.076.582-.364.666l-.154.023c-.238.001-.452-.15-.515-.376zm13.177.042c-.293-.075-.478-.366-.4-.646.077-.291.365-.476.646-.4.293.065.477.355.4.646-.053.249-.279.413-.528.413l-.118-.013zm-11.096-.624c-.065-.283.129-.572.417-.626.296-.065.576.128.64.42.055.292-.129.571-.421.634l-.108.014c-.247 0-.473-.184-.528-.442zm9.023.212c-.292-.042-.496-.312-.453-.611.044-.292.322-.497.615-.454.301.043.496.323.451.614-.043.271-.269.463-.527.463l-.086-.012zm-6.906-.59c-.035-.294.182-.562.473-.594.303-.034.572.173.604.474.031.302-.184.56-.475.594h-.065c-.269 0-.506-.195-.537-.474zm4.812.363c-.302-.008-.529-.269-.507-.567.018-.294.281-.521.571-.498.304.011.528.27.507.571-.02.28-.258.509-.538.509l-.033-.015zm-2.667-.557c0-.304.239-.554.531-.554.29-.01.54.229.549.53.011.294-.225.539-.518.552h-.013c-.299 0-.536-.239-.549-.528z"/><g fill="#524741"><path d="M6.635 40.243c0-1.413.99-2.435 2.349-2.441 1.339 0 2.353 1.042 2.354 2.434.003 1.392-.998 2.428-2.349 2.431-1.31.002-2.35-1.058-2.354-2.424zm4-.013c-.003-.88-.712-1.565-1.635-1.564-.934 0-1.64.656-1.637 1.569 0 .901.709 1.565 1.642 1.563.912.001 1.63-.688 1.63-1.568zM6.998 35.407l.159-.787 2.615.53c.851.174 1.286-.141 1.423-.814.134-.675-.136-1.157-.994-1.334l-2.61-.528.164-.787 2.614.53c1.332.271 1.774 1.148 1.549 2.268-.228 1.117-.974 1.724-2.306 1.451l-2.614-.529zM8.556 29.166l.551-1.354c.458-1.121 1.306-1.431 2.19-1.072.579.239.942.667.974 1.295l1.868-.496-.354.867-1.608.388-.138.387-.188.462 1.224.497-.303.746-4.216-1.72zm.986-.468l1.651.672.223-.55c.285-.697.011-1.086-.45-1.274-.458-.19-.911-.101-1.196.601l-.228.551zM12.667 21.265l.468-.651 3.689 2.664-.468.651-3.689-2.664zM14.681 18.554l.177-.179 4.066.039-2.076-2.033.56-.576 3.28 3.209-.153.152-4.041.043 2.02 1.979-.562.572-3.271-3.206zM24.044 13.583l1.1 1.605s-.269.812-1.164 1.422c-1.272.868-2.688.611-3.445-.5-.742-1.085-.415-2.564.7-3.325.838-.573 1.534-.6 1.534-.6l.157.722s-.654.089-1.149.427c-.884.602-1.045 1.528-.52 2.296.515.755 1.473.915 2.251.383.349-.237.602-.521.755-.733l-.456-.667-1.049.716-.404-.595 1.69-1.151zM25.027 10.633l1.339-.58c1.112-.481 1.937-.112 2.317.761.186.433.233 1.14-.208 1.658.434.136.712.53 1.213.313l.166-.071.285.654s-.141.104-.386.206c-1.04.452-1.394-.53-2.025-.594l-.215.1-.458.199.527 1.211-.737.32-1.818-4.177zm1.033.357l.71 1.635.546-.239c.69-.297.768-.77.568-1.226-.197-.458-.58-.709-1.276-.408l-.548.238zM30.518 8.529l2.879-.695.171.721-2.094.504.298 1.24 1.898-.46.167.693-1.899.458.256 1.059 2.095-.508.172.719-2.876.694-1.067-4.425zM35.898 7.443l1.715-.087c1.411-.071 2.482.827 2.549 2.147.068 1.3-.925 2.328-2.317 2.4l-1.714.088-.233-4.548zm.845.697l.16 3.073.911-.047c.882-.045 1.534-.72 1.488-1.606-.046-.894-.733-1.513-1.646-1.464l-.913.044zM42.297 7.424l.799.074-.438 4.526-.8-.075.439-4.525zM45.572 7.834l2.882.669-.167.72-2.099-.485-.29 1.241 1.905.442-.16.694-1.905-.441-.247 1.059 2.104.485-.168.72-2.885-.668 1.03-4.436zM50.855 9.228l.232.098 1.424 3.81 1.149-2.668.739.319-1.818 4.206-.197-.084-1.488-3.753-1.121 2.591-.734-.32 1.814-4.199zM56.28 11.82l3.174 2.136-.412.614-1.239-.836-2.133 3.164-.67-.45 2.131-3.166-1.262-.854.411-.608zM58.699 19.438c-.394-.369-.665-.867-.793-1.334l.697-.339c.102.44.326.862.624 1.14.396.367.753.343.952.13.208-.225.208-.472-.186-1.255-.426-.84-.361-1.355.012-1.753.467-.504 1.305-.583 2.016.077.356.333.607.763.706 1.084l-.675.343c-.094-.289-.28-.677-.533-.913-.35-.329-.695-.284-.909-.052-.2.21-.144.512.166 1.118.474.983.411 1.477.007 1.911-.553.593-1.344.534-2.084-.157zM65.148 25.717l-1.138-1.851-.924.568-.426-.689 2.21-1.358c1.19-.73 2.097-.469 2.716.541.622 1.01.46 1.96-.73 2.69l-2.212 1.358-.421-.689.925-.57zm-.596-2.182c.217.339 1.03 1.666 1.143 1.849l.734-.45c.824-.51.868-1.066.536-1.609-.332-.537-.887-.729-1.668-.247l-.745.457zM69.687 27.01l.515 1.363c.434 1.134.022 1.938-.865 2.278-.441.165-1.151.182-1.646-.284-.157.426-.568.688-.376 1.193l.066.172-.665.253s-.097-.144-.19-.39c-.402-1.062.597-1.374.689-1.999l-.091-.22-.177-.469-1.237.469-.286-.753 4.263-1.613zm-.408 1.011l-1.662.635.21.557c.265.703.733.802 1.199.626.467-.179.734-.552.467-1.26l-.214-.558zM71.524 32.566l.559 2.907-.725.14-.405-2.117-1.257.238.37 1.922-.7.137-.371-1.926-1.066.208.408 2.12-.727.139-.56-2.907 4.474-.861zM67.843 40.838l.062-.841 4.42 2.474-.012.181-4.741 1.79.062-.859.936-.334.146-1.95-.873-.461zm1.493.791l-.105 1.383 1.616-.574-1.511-.809zM71.701 46.787l-.188.778-3.704-.906-.513 2.093-.714-.175.703-2.872 4.416 1.082zM70.343 51.547l-.304.743-3.527-1.449-.817 1.992-.682-.282 1.122-2.733 4.208 1.729zM66.762 58.504l-.459.659-3.742-2.595.456-.658 3.745 2.594zM64.787 61.19l-.986 1.073c-.819.895-1.725.889-2.426.247-.461-.429-.654-.958-.464-1.559l-1.926-.185.638-.691 1.638.199.267-.314.334-.367-.972-.898.546-.59 3.351 3.085zm-1.088.091l-1.31-1.203-.405.439c-.51.551-.389 1.013-.021 1.351.365.337.82.411 1.332-.147l.404-.44zM60.744 65.193l-.62.511-2.89-3.515.617-.506 2.893 3.51zM54.691 63.917c.454-.29 1.004-.426 1.488-.435l.157.762c-.456-.012-.919.1-1.267.317-.451.29-.516.647-.359.895.162.257.4.318 1.261.134.921-.203 1.403-.012 1.698.447.368.58.239 1.416-.584 1.937-.408.263-.891.398-1.228.414l-.163-.741c.305-.02.727-.1 1.021-.288.406-.259.448-.598.276-.868-.153-.245-.46-.267-1.126-.118-1.07.208-1.533.028-1.852-.476-.433-.683-.18-1.434.678-1.98zM49.888 68.395l2.057-.845-.681-1.657.743-.307 1.724 4.215-.743.305-.774-1.895-2.055.843.775 1.887-.747.306-1.722-4.205.741-.307.682 1.66zM40.167 70.871l-.172-1.943s.631-.576 1.706-.672c1.54-.141 2.648.775 2.771 2.117.118 1.311-.893 2.442-2.234 2.562-1.016.093-1.634-.221-1.634-.221l.216-.71s.615.244 1.214.188c1.064-.096 1.656-.825 1.57-1.754-.082-.91-.838-1.519-1.781-1.436-.42.038-.779.164-1.013.279l.069.802 1.267-.112.063.715-2.042.185zM35.721 72.814c-1.403-.165-2.302-1.264-2.143-2.617.151-1.327 1.306-2.211 2.687-2.05 1.382.16 2.295 1.278 2.14 2.613-.152 1.307-1.326 2.213-2.684 2.054zm.458-3.965c-.876-.103-1.64.519-1.746 1.438-.107.925.459 1.704 1.367 1.807.893.105 1.636-.519 1.744-1.443.103-.911-.495-1.704-1.365-1.802zM28.832 71.239c-1.334-.456-1.978-1.726-1.537-3.01.438-1.267 1.748-1.881 3.064-1.429 1.315.451 1.967 1.736 1.531 3.008-.43 1.243-1.771 1.876-3.058 1.431zm1.287-3.772c-.829-.287-1.707.156-2.007 1.031-.303.882.087 1.759.948 2.055.852.294 1.708-.156 2.014-1.035.296-.866-.118-1.766-.955-2.051zM24.309 69.283l-1.472-.885c-1.211-.725-1.6-2.068-.92-3.2.67-1.116 2.067-1.419 3.26-.702l1.47.883-2.338 3.904zm-.314-1.053l1.581-2.635-.783-.473c-.755-.451-1.674-.256-2.132.507-.458.765-.233 1.665.548 2.131l.786.47zM18.776 65.664l-.184-.169-.091-4.062-1.968 2.136-.588-.543 3.099-3.368.155.143.173 4.027 1.904-2.072.592.54-3.092 3.368zM14.167 61.002l-1.781-2.365.589-.441 1.298 1.721 1.019-.764-1.177-1.563.571-.429 1.173 1.561.867-.654-1.293-1.721.589-.443 1.779 2.362-3.634 2.736zM14.652 53.387c.251.477.346 1.037.316 1.52l-.772.095c.047-.449-.028-.923-.221-1.283-.251-.476-.6-.569-.856-.433-.272.145-.354.375-.234 1.245.128.936-.103 1.401-.582 1.657-.609.319-1.429.125-1.885-.732-.228-.431-.326-.92-.313-1.256l.751-.104c-.006.304.045.73.206 1.039.227.426.565.495.845.346.257-.135.299-.439.207-1.115-.125-1.084.093-1.527.618-1.807.718-.379 1.444-.069 1.92.828zM12.914 49.431c.175.51.183 1.078.08 1.552l-.78-.027c.116-.437.114-.916-.018-1.3-.178-.509-.509-.657-.786-.56-.286.099-.405.32-.422 1.193-.015.949-.312 1.373-.827 1.553-.65.226-1.433-.094-1.752-1.012-.159-.463-.18-.959-.118-1.292l.761.012c-.055.302-.069.732.044 1.062.157.454.48.575.781.47.276-.095.366-.39.377-1.07.041-1.093.326-1.497.886-1.694.768-.265 1.44.152 1.774 1.113z"/></g><polygon fill="#524741" points="25.108,50.596 27.774,50.596 27.774,51.688 27.035,51.688 27.035,56.245 27.774,56.245 27.774,57.34 25.108,57.34 25.108,56.245 25.844,56.245 25.844,51.688 25.108,51.688"/><path fill="#524741" d="M29.27 50.596h2.895c1.794 0 2.695.989 2.695 2.401 0 1.043-.499 1.858-1.364 2.191l.797 1.057h.863v1.095h-1.418l-1.438-1.968-.366.01h-.738v.863h.731v1.095h-2.657v-1.095h.738v-4.557h-.738v-1.092zm1.926 1.092v2.639h.883c1.111 0 1.497-.595 1.497-1.33 0-.741-.372-1.309-1.497-1.309h-.883z"/><polygon fill="#524741" points="36.499,50.596 39.165,50.596 39.165,51.688 38.429,51.688 38.429,56.245 39.165,56.245 39.165,57.34 36.499,57.34 36.499,56.245 37.239,56.245 37.239,51.688 36.499,51.688"/><path fill="#524741" d="M41.629 55.229v.125c0 .768.689.989 1.316.989.766 0 1.109-.395 1.109-.827 0-.45-.25-.719-1.467-1.167-1.312-.502-1.764-1.161-1.764-2.005 0-.963.75-1.861 2.07-1.861.872 0 1.15.496 1.183.543l-.088-.43h1.076l.008 1.984h-1.074v-.313c-.048-.566-.5-.72-1.038-.72-.67 0-.937.354-.937.768 0 .471.361.767 1.312 1.141 1.505.59 1.938 1.179 1.938 2.061 0 1.199-.911 1.938-2.082 1.938-1.312 0-1.638-.673-1.638-.673l.087.559h-1.077l-.009-2.111h1.075z"/><polygon fill="#524741" points="51.171,50.596 53.836,50.596 53.836,51.688 53.098,51.688 53.098,56.245 53.826,56.245 53.826,57.34 51.171,57.34 51.171,56.245 51.906,56.245 51.906,54.683 48.619,54.683 48.619,56.245 49.349,56.245 49.349,57.34 46.691,57.34 46.691,56.245 47.433,56.245 47.433,51.688 46.691,51.688 46.691,50.596 49.356,50.596 49.356,51.688 48.619,51.688 48.619,53.627 51.906,53.627 51.906,51.688 51.171,51.688"/><path fill="#524741" d="M40.803 27.82c0-1.651 2.222-5.434 5.064-5.434 1.033 0 1.996.756 1.996 2.062 0 1.009-.596 1.81-1.812 1.81l-1.581-.204c-1.88 0-3.575 1.879-3.575 1.879l-.092-.113zm-1.512.114c-.712-3.828-2.292-4.997-2.292-7.954 0-1.397 1.145-2.546 2.544-2.546s2.545 1.148 2.545 2.546c0 2.819-1.744 4.126-2.497 7.954h-.3zm-1.077 0s-1.696-1.879-3.579-1.879l-1.583.204c-1.211 0-1.808-.801-1.808-1.81 0-1.307.962-2.062 1.995-2.062 2.843 0 5.064 3.782 5.064 5.434l-.089.113z"/></svg>