<svg xmlns="http://www.w3.org/2000/svg" width="85.668" height="84.248"><path fill-rule="evenodd" clip-rule="evenodd" fill="#DDDAD5" d="M85.668 18.167c0-8.008-6.409-14.5-14.416-14.5-5.711 0-10.553 3.31-12.917 8.107-2.364-4.798-7.29-8.107-13-8.107-8.008 0-14.501 6.492-14.501 14.5 0 .364.029.721.055 1.078-1.971-1.001-4.193-1.578-6.555-1.578-8.008 0-14.502 6.491-14.502 14.5 0 3.036.934 5.853 2.529 8.182-5.84 1.348-10.203 6.568-10.203 12.818 0 4.934 2.707 9.229 6.725 11.483-1.1 1.923-1.757 3.977-1.757 6.35 0 7.271 5.854 13 13.126 13h65.416v-65.833z"/></svg>