<svg xmlns="http://www.w3.org/2000/svg" width="160" height="20.092"><g fill="#524741"><path d="M26.288 19.34h-2.749v-18.135h2.749c1.06 0 2.395.545 2.395 2.859v3.785c0 1.062-.271 1.905-1.144 2.261.873.38 1.144 1.196 1.144 2.286v4.086c0 2.315-1.335 2.858-2.395 2.858zm.761-15.439c0-.734-.327-1.035-.786-1.035h-1.065v6.507h.897c.573 0 .954-.463.954-1.197v-4.275zm0 8.115c0-.736-.381-1.198-.954-1.198h-.897v6.862h1.065c.459 0 .786-.299.786-1.035v-4.629zM33.338 12.234v7.105h-1.635v-7.105l-2.014-11.03h1.551l1.389 8.497 1.417-8.497h1.554l-2.262 11.03zM45.289 19.34h-4.521v-18.135h4.521c2.369 0 4.168 1.499 4.168 4.221v9.913c0 2.723-1.799 4.001-4.168 4.001zm.679-13.942c0-.762-.299-1.171-.978-1.171h-.709v12.089h.709c.679 0 .978-.381.978-1.143v-9.775zM55.173 19.695c-2.481 0-4.414-1.717-4.414-4.195v-10.456c0-2.477 1.933-4.165 4.414-4.165 2.447 0 4.384 1.688 4.384 4.165v10.456c0 2.479-1.937 4.195-4.384 4.195zm.811-14.868c0-.49-.35-.791-.812-.791-.464 0-.845.301-.845.791v10.894c0 .488.381.787.845.787.462 0 .812-.299.812-.787v-10.894zM67.176 19.34l-2.312-7.434-.818-2.533v9.966h-3.078v-18.134h3.217l2.094 7.434.737 2.561v-9.995h3.048v18.135h-2.888zM76.598 19.34l-.248-2.914h-2.068l-.298 2.914h-3.158l2.64-18.135h4.028l2.614 18.135h-3.51zm-1.145-12.797l-.791 7.053h1.393l-.602-7.053zM80.955 19.34v-18.135h3.484v15.032h3.676v3.104h-7.16zM96.361 19.748c-3.188 0-5.117-1.742-5.117-4.707v-1.307h3.646v1.307c0 .789.461 1.359 1.279 1.359.816 0 1.197-.49 1.197-1.359 0-1.279-1.09-2.232-2.45-3.484-1.632-1.36-3.565-3.159-3.565-5.634 0-2.641 1.713-5.089 5.146-5.089 2.772 0 4.682 2.013 4.682 4.681v1.171h-3.646v-1.309c0-.733-.438-1.171-1.035-1.171-.572 0-1.119.41-1.119 1.201 0 1.44 1.092 2.175 2.477 3.481 1.691 1.499 3.539 3.214 3.539 5.771 0 2.859-1.935 5.089-5.034 5.089zM109.453 19.34l-1.633-6.885-.87 2.34v4.545h-4.194v-18.127h4.194v7.839l2.396-7.839h4.057l-2.615 7.54 2.916 10.587h-4.251zM114.652 19.34v-18.127h8.874v3.511h-4.68v3.758h3.046v3.129h-3.046v4.027h4.68v3.701h-8.874zM131.584 19.34v-6.912h-2.454v6.912h-4.188v-18.127h4.188v7.513h2.454v-7.513h4.16v18.127h-4.16zM143.535 19.34l-.273-2.721h-2.477l-.381 2.721h-3.781l3.158-18.126h4.84l3.104 18.126h-4.19zm-1.361-12.41l-.926 6.586h1.634l-.708-6.586zM155.945 19.34l-2.555-6.668-1.033-2.558v9.226h-3.704v-18.127h3.704l2.393 6.751.979 2.584v-9.335h3.676v18.127h-3.46zM6.969.343h-6.422c-.268 0-.484.244-.484.517v17.939c0 .271.217.516.484.516h6.422c5.232 0 9.514-4.256 9.514-9.513-.001-5.203-4.282-9.459-9.514-9.459zm.108 15.632c-1.94 0-3.288-.617-3.903-1.086-.176-.146-.291-.379-.176-.615l1.402-2.82 1.418.592.013-.023c.151.404.239.883.883 1.176.886.4 2.642.682 2.983-.066.339-.748-1.027-1.889-1.912-2.292-.67-.304-1.1-.021-1.522.13l-1.329-.573c-1.402-.813-2.082-1.86-2.082-3.28 0-1.79 1.322-3.462 4.312-3.462 1.73 0 2.992.496 3.607.912.266.172.411.497.266.788l-1.262 2.519-1.05-.543c-.153-.348-.272-.734-.879-1.035-.534-.262-1.011-.161-2.532-.81l-.103.138 2.471 1.171-.082.16c-.051-.016-2.409-1.066-2.493-1.099l-.114.167 2.472 1.225-.082.172-2.479-1.211-.061.188 2.387 1.305-.077.17-2.434-1.251-.049.163c1.444.817 1.652 1.256 2.185 1.518.6.295.98.161 1.345.069l1.277.659c1.356.742 2.261 1.701 2.261 3.366 0 1.933-1.702 3.578-4.661 3.578z"/></g></svg>