<svg xmlns="http://www.w3.org/2000/svg" width="20.227" height="20.092"><g fill="#524741"><path d="M14.82 9.789c0 2.597-2.109 4.706-4.705 4.706-2.6 0-4.707-2.109-4.707-4.706 0-.591.113-1.149.309-1.668h-5.769v7.008c0 2.809 2.275 5.083 5.083 5.083h10.164c2.809 0 5.082-2.274 5.082-5.083v-7.008h-5.767c.195.519.31 1.077.31 1.668zM10.116 6.964c1.559 0 2.82 1.264 2.82 2.825 0 1.559-1.261 2.825-2.82 2.825-1.561 0-2.823-1.267-2.823-2.825-.001-1.561 1.262-2.825 2.823-2.825zM15.195-.12h-9.896v5.302h-1.111v-5.225c-.387.063-.76.167-1.109.315v4.91h-1.114v-4.263c-1.224.929-2.016 2.391-2.016 4.046v1.487h6.851c.846-.845 2.02-1.371 3.316-1.371 1.293 0 2.464.525 3.316 1.371h6.846v-1.487c-.001-2.806-2.274-5.085-5.083-5.085zm2.276 4.808c0 .315-.262.573-.574.573h-1.713c-.316 0-.574-.258-.574-.573v-1.712c0-.318.258-.573.574-.573h1.713c.312 0 .574.255.574.573v1.712z"/></g></svg>