<svg xmlns="http://www.w3.org/2000/svg" width="30" height="30"><path fill-rule="evenodd" clip-rule="evenodd" fill="#524741" d="M10.51 7.923l1.879-.804c.165-.122.633-.136.769-.305.145-.021.467-.089.558-.202.618-.108 1.077-.391 1.667-.509 1.122-.221 2.483-.569 3.567-.598l.294-.074c.46.104.925-.089 1.435.028l.133-.039.378.023.023-.011c.361.1.605.073.923.154l.22-.026.346.121c.509.11 1.173.161 1.668.448.115.067.288.086.415.125l.138.11.57.219c1.504.86 3.851 2.684 3.595 5.092-.061.569-.68 1.265-1.021 1.562-.203.178-.366.33-.616.531-.199.162-.43.211-.598.373l-.71.345-.228.068-.734.288c-.146.007-.36.054-.453.111-.072.047-.229.037-.258.031l-.027.027s-.436.075-.441.106c-.161-.037-.506-.01-.65.04l-.071-.005c-.063-.018-.409-.062-.417-.045-.322-.084-.607-.264-.905-.423l-.261-.283c-.51-.406-.771-1.122-1.207-1.672-.222-.28-.295-.736-.54-.912l-.204-.366c-.188-.212-.423-.6-.675-.741l-.202-.08-.158-.126-.67-.059-.438.117c-.33.069-.968.172-1.17.322-.097.073-.407.052-.459.181-.254-.052-1.389.585-1.825.722-.106.035-.835.299-.867.381-.148-.009-.86.336-.996.429l-.681.315-.04.005c-.256.058-.68.43-.856.402-.112-.018-.992.584-1.218.591-.085.084-.548.358-.62.358-.039.042-.343.284-.399.274-.266.387-.782.681-.853 1.291-.183 1.654 1.558 3.162 1.729 4.741.126 1.168-.548 2-1.23 2.565-.203.171-.517.446-.765.538-.075.028-.534.316-.427.247l-.171.124c-.131.114-.685.36-.836.392-.087.02-.634.27-.685.307l-.039.033-.04-.023c-.019-.003-.563.167-.668.201l-.038.032c-.339-.067-.658.032-1.132-.188l-.172-.16c-.142-.092-.29-.184-.438-.255-.109-.054-.399-.431-.549-.593-.491-.539-1.263-1.78-1.39-2.581-.134-.86-.143-1.539-.067-2.31l-.024-.191.078-.258c.065-.758.383-1.896.769-2.56.06-.101.333-.784.4-.782.093-.116.413-.825.51-.81.211-.363.63-1.022.9-1.19l.022-.037c.071-.123.151-.231.263-.331.135-.125.681-.777.812-.778.184-.218.314-.361.529-.546l.055.002c.121-.064.249-.221.323-.32l.244-.147c.218-.189.601-.415.745-.608l.366-.257c.095-.104.29-.164.376-.24l.356-.199c.074-.084.357-.314.504-.313.096-.109.345-.264.46-.263.37-.346.808-.418 1.183-.685.217-.155.832-.264.937-.467z"/></svg>