<svg xmlns="http://www.w3.org/2000/svg" width="30" height="30"><path fill-rule="evenodd" clip-rule="evenodd" fill="#231F20" d="M10.917 4.871c.229.354.598.675.934.924.2.147.448.305.562.53.301.586-.638 1.652-1.013 1.77l-.012.045.462.777c.073.034.507-.366.562-.417.381-.334 1.137-1.226 1.005-2.029-.215-1.324-1.4-1.354-1.825-2.345-.349-.812.192-1.643.958-1.668l-.102-.97c-1.213.23-2.295 1.243-1.803 2.807.063.195.166.413.272.576zm3.888.924c.201.157.473.316.576.564.249.597-.633 1.576-1.004 1.725-.062.149.354.644.416.823l.035.023c.693-.36 2.04-1.855 1.386-3.033-.402-.727-1.297-.986-1.657-1.736-.207-.433-.09-1.044.157-1.33.195-.226.48-.239.769-.384.051-.063-.066-.775-.069-.958-1.488.208-2.501 1.782-1.589 3.315.232.391.627.719.98.991zm2.739-.168c.256.192.572.383.746.653.402.634-.629 1.638-.992 1.826.045.24.344.616.475.823h.021c.779-.554 2.158-1.942 1.229-3.269-.4-.572-1.194-.816-1.5-1.477-.379-.825.14-1.684.912-1.725.031-.127-.023-.796-.078-.914l-.078-.022-.552.146c-.558.2-1.052.708-1.208 1.308-.322 1.245.386 2.165 1.025 2.651zm8.354 10.551c-.247-.422-.46-.84-.733-1.229-.379-.541-.868-.972-1.341-1.42-2.044-1.947-5.385-3.112-9.435-3.066l-1.028.067c-.749.145-1.482.185-2.175.361-2.379.607-4.314 1.7-5.781 3.224-.547.567-1.139 1.252-1.443 2.04l-.328.035-.631.146c-.824.287-1.382.938-1.682 1.758-.266.732-.043 1.685.271 2.199.121.194.336.356.418.574.496 1.328.949 2.662 1.455 3.969l.439 1.251c.299.714.932 1.659 1.521 2.085.518.373 1.067.338 1.961.338h2.932l13.54-.01c.686-.138 1.212-.79 1.533-1.309.21-.337.474-.68.643-1.06l1.68-4.634.258-.676.328-.371c.194-.277.361-.648.439-1.027.374-1.835-1.108-3.271-2.841-3.245zm.925 4.994c-.336.825-.557 1.691-.914 2.491l-.236.71c-.393.881-.592 1.717-1.162 2.412-.223.273-.42.596-.754.756-.168.08-1.053.023-1.32.023h-3.245c-4.318-.004-8.636-.009-12.953-.012-.471-.13-.936-.952-1.186-1.352-.228-.367-.366-.776-.529-1.229l-.697-1.838-.283-.834c-.168-.374-.268-.779-.428-1.172-.096-.229-.258-.507-.281-.778l.168-.034 24.102.012c.05.123-.223.697-.282.845zm.958-1.838c-.187.114-1.509.045-1.859.045h-4.882l-18.794-.011c-.182-.306-.066-.872.058-1.139.291-.624.717-.974 1.5-1.104.269-.045.498.066.743.078l.204-.518c.212-.438.459-.889.756-1.252 1.412-1.725 3.106-2.669 5.443-3.483.668-.232 1.426-.314 2.176-.44l1.264-.101c3.941 0 6.399.983 8.614 2.683.967.744 1.902 1.818 2.286 3.123.169.086.674-.15 1.003-.08.869.188 1.388.699 1.546 1.59.042.24-.049.416-.058.609zm-16.235-5.478l-.325.124c-.409.24-.707.559-.937.981-.098.18-.137.599.056.697.204.104.486-.005.633-.09.43-.246.793-.543.989-1.014.177-.414.089-.712-.416-.698zm6.755 0c-.741.509.47 1.536.845 1.736.178.095.508.166.676.022.211-.179.009-.64-.077-.778-.289-.459-.695-.995-1.444-.98zm-3.303.732c-.481.25-.637 1.084-.429 1.736.073.23.186.678.528.609.697-.138.741-2.348-.099-2.345z"/></svg>