<svg xmlns="http://www.w3.org/2000/svg" width="30" height="30"><path fill-rule="evenodd" clip-rule="evenodd" fill="#231F20" d="M18.684 26.516h-9.267l-.232-.044c-.37-.063-.753-.13-1.068-.253-2.394-.94-3.938-2.717-4.352-5.004l.003-.254c-.107-.652-.087-1.445-.067-2.213l.015-.857-.012-1.236c-.072-.281-.304-.356-.472-.41l-.111-.039-.322-.129c-.335-.131-1.033-.402-1.15-.565-.043-.062-.097-.261-.054-.367.039-.095.106-.19.314-.19.283 0 .657.168.931.291l.191.084c.128.07.227.126.343.126l.11-.02c.058-.024.177-.106.192-.167.046-.186.043-.42.04-.647l-.001-.153c0-.91-.077-1.535-.473-2.034-.155-.194-.381-.294-.6-.39-.394-.173-.655-.287-.523-.848l.117-.397c.166-.445.636-.889 1.193-1.117l.752-.173.229-.148.384-.284.844-.528c.562-.337 1.231-.654 2.167-1.024.502-.198 1.026-.351 1.581-.512l.573-.17.276-.054c.208-.033.424-.066.584-.177.163-.113.229-.342.288-.543l.061-.186c.166-.376.452-.732.683-1.018.356-.445 1.137-.96 1.737-1.147l.751-.18.127-.01c.088-.005.188-.01.292-.055l.03.016c1.589 0 2.812.586 3.633 1.742.182.252.338.528.452.799l.045.145c.04.148.091.333.241.437.157.109.371.144.578.177l.271.054.631.181c.384.105.77.211 1.126.351.953.375 1.804.722 2.558 1.167.27.159.526.34.779.519.197.139.392.275.59.401l.459.123.394.096c.442.175 1.005.598 1.202 1.131l.096.356c.134.563-.103.702-.565.918-.166.077-.337.157-.478.273-.367.303-.547.937-.547 1.936l-.006.227c-.013.304-.026.617.086.816l.122.096.125.016c.211 0 .454-.115.735-.25.267-.125.568-.27.785-.27.103 0 .208.026.283.213.043.107.049.195.016.268-.076.178-.372.293-.589.377l-.159.064-.753.332-.124.045c-.181.059-.403.131-.484.332-.074.184-.066.482-.046.885l.009.274v3.027l-.104.856c-.28 1.126-.869 1.977-1.408 2.658-.746.943-2.192 1.824-3.519 2.141-.446.107-1 .121-1.484.121l-1.054-.008zm-14.011-16.307l-.079.017-.213.024-.29.029c-.411.096-1.109.391-1.121.899.124.288.341.41.532.519l.22.136c.318.255.555.762.702 1.504.089.452.078 1.021.067 1.57l-.007.537v5.561c.192 1.008.55 1.779 1.2 2.614.812 1.04 2.005 1.75 3.547 2.111.289.067.642.099 1.114.099l.724-.016.668-.014h4.723l1.101.014c.39.008.785.016 1.175.016 1.015 0 2.165-.045 3.005-.376 1.449-.571 2.626-1.636 3.313-2.994.442-.872.441-1.759.44-2.985v-4.266l-.007-.488c-.01-.478-.021-.972.058-1.373.106-.549.354-1.24.731-1.533l.191-.12c.257-.15.431-.261.499-.401.05-.106.048-.221-.003-.333-.154-.342-.763-.581-.905-.623-.409-.117-.914-.127-1.355-.127l-20.03-.001zm17.499-.715l.284.008.435.012c.33 0 .522-.03.646-.099.062-.036.102-.103.102-.175-.069-.261-.245-.332-.361-.379l-.092-.041c-.307-.179-.647-.316-.979-.45l-.342-.141c-1.928-.816-4.346-1.249-6.993-1.25-.117.033-.196.053-.37.053l-.3-.011-.264-.011-1.433.119-1.945.334c-.942.237-1.774.499-2.494.787-.428.17-.84.345-1.229.544-.238.1-.447.186-.501.397-.016.068.003.141.053.19l.116.075c.16.038.355.056.615.056l.417-.01.369-.009h14.266zm-7.622-5.232c-.206.07-.342.098-.476.125-.148.03-.295.062-.428.116-.523.215-.902.567-1.215.881-.378.382-.521.682-.425.891.026.057.078.099.14.111l.167.018.298-.038.403-.007.546-.054c.198-.015.396-.03.559-.057l1.771.003c.154.027.322.054.536.054l.397.033c.239.025.518.054.72.054.207 0 .36-.025.438-.147l.029-.135c-.045-.325-.314-.585-.51-.774l-.083-.079c-.744-.743-1.465-.994-2.86-.994h-.007z"/></svg>