<svg xmlns="http://www.w3.org/2000/svg" width="30" height="30"><g fill="#524741"><path d="M11.099 10.553c0-.278.227-.505.505-.505h5.718c.279 0 .506-.227.506-.505v-5.093c0-.278-.227-.505-.506-.505h-15.823c-.278 0-.505.227-.505.505v10.432c0 .278.227.505.505.505h1.683c.278 0 .505.227.505.505v3.307c0 .277.167.35.37.161l3.91-3.629c.204-.189.597-.344.875-.344h1.75c.278 0 .505-.227.505-.505v-4.329zM29.006 12.532c0-.278-.227-.505-.504-.505h-14.882c-.278 0-.505.227-.505.505v9.764c0 .277.227.505.505.505h7.134c.277 0 .676.15.883.333l4.299 3.785c.207.184.379.106.379-.171v-3.442c0-.278.227-.505.504-.505h1.684c.277 0 .504-.228.504-.505v-9.764z"/></g></svg>