<svg xmlns="http://www.w3.org/2000/svg" width="20.227" height="20.092"><path fill-rule="evenodd" clip-rule="evenodd" fill="#524741" d="M8.771 15.709c-.197.275-.381.408-.561.408-.116 0-.18-.066-.203-.203l-.008-.339v-3.544h-.877v3.807c0 .342.027.57.078.715.084.244.283.357.564.357.323 0 .649-.193 1.006-.59v.523h.877v-4.812h-.876v3.678z"/><polygon fill-rule="evenodd" clip-rule="evenodd" fill="#524741" points="3.932,11.296 4.966,11.296 4.966,16.844 5.939,16.844 5.939,11.296 6.991,11.296 6.991,10.382 3.932,10.382"/><path fill-rule="evenodd" clip-rule="evenodd" fill="#524741" d="M12.194 11.973c-.326 0-.622.173-.908.52v-2.11h-.881v6.461h.881v-.467c.293.363.594.533.908.533.349 0 .582-.183.701-.539.057-.202.088-.527.088-.971v-1.918c0-.456-.031-.773-.088-.969-.119-.358-.352-.54-.701-.54zm-.087 3.496c0 .435-.132.648-.386.648-.143 0-.291-.066-.436-.214v-2.937c.145-.141.293-.207.436-.207.254 0 .386.218.386.654v2.056z"/><path fill-rule="evenodd" clip-rule="evenodd" fill="#524741" d="M9.913 7.084c.285 0 .422-.227.422-.676v-2.049c0-.449-.137-.673-.422-.673-.293 0-.42.224-.42.673v2.049c0 .449.127.676.42.676z"/><path fill-rule="evenodd" clip-rule="evenodd" fill="#524741" d="M18.267.043h-16.294c-1.108 0-2.002.89-2.002 1.986l-.013 16.03c0 1.096.896 1.989 2 1.989h16.297c1.109 0 2.004-.894 2.004-1.989l.01-16.03c0-1.096-.898-1.986-2.002-1.986zm-6.312 2.912h.889v3.579l.007.34c.018.138.091.21.209.21.173 0 .363-.136.559-.414v-3.715h.89v4.863h-.89v-.53c-.352.4-.689.6-1.012.6-.287 0-.482-.12-.574-.363-.047-.149-.077-.384-.077-.726v-3.844zm-3.352 1.582c0-.52.09-.9.276-1.146.247-.33.589-.497 1.034-.497.443 0 .789.167 1.033.497.186.245.276.626.276 1.146v1.708c0 .514-.091.896-.276 1.142-.244.331-.59.502-1.033.502-.445 0-.787-.171-1.034-.502-.187-.246-.276-.629-.276-1.143v-1.707zm-2.377-3.248l.699 2.562.676-2.562h.994l-1.188 3.886v2.644h-.984v-2.644c-.088-.471-.283-1.158-.602-2.067l-.631-1.819h1.036zm10.903 15.847c-.179.766-.812 1.329-1.573 1.417-1.799.2-3.625.2-5.439.2-1.821 0-3.644 0-5.446-.2-.76-.088-1.392-.651-1.57-1.417-.253-1.095-.253-2.29-.253-3.408 0-1.13.002-2.321.257-3.418.181-.765.809-1.333 1.568-1.418 1.806-.201 3.627-.203 5.445-.201 1.814-.002 3.639 0 5.441.201.763.085 1.394.653 1.569 1.418.255 1.097.251 2.288.251 3.418.001 1.118.001 2.313-.25 3.408z"/><path fill-rule="evenodd" clip-rule="evenodd" fill="#524741" d="M14.992 11.973c-.45 0-.8.165-1.051.49-.188.246-.274.623-.274 1.139v1.685c0 .508.096.894.283 1.13.25.329.603.494 1.062.494.455 0 .82-.17 1.064-.52.102-.154.172-.329.201-.521.01-.09.02-.283.02-.563v-.127h-.896c0 .348-.009.541-.015.593-.055.23-.181.346-.395.346-.302 0-.45-.221-.45-.666v-.855h1.756v-.994c0-.516-.088-.893-.271-1.139-.245-.327-.594-.492-1.034-.492zm.427 1.898h-.877v-.446c0-.447.148-.665.441-.665.289 0 .436.218.436.665v.446z"/></svg>