<svg xmlns="http://www.w3.org/2000/svg" width="125" height="30"><path fill="#fff" d="M3.062 4.469c1.586 1.319 6.83-2.091 8.528-.883 1.681 1.196.175 7.267 1.958 8.347 1.764 1.068 6.449-3.076 8.307-2.127 1.836.938 1.217 7.164 3.137 7.979 1.896.806 5.951-3.957 7.924-3.276 1.947.673 2.197 6.924 4.213 7.469 1.988.537 5.355-4.734 7.403-4.326 2.019.402 3.106 6.562 5.178 6.834 2.04.268 4.679-5.404 6.765-5.27 2.053.133 3.936 6.099 6.027 6.099s3.974-5.966 6.027-6.099c2.086-.135 4.725 5.536 6.766 5.27 2.07-.271 3.158-6.432 5.177-6.834 2.048-.408 5.415 4.863 7.403 4.326 2.016-.545 2.264-6.797 4.211-7.469 1.973-.681 6.025 4.082 7.923 3.277 1.92-.816 1.302-7.041 3.137-7.979 1.857-.949 6.542 3.194 8.306 2.127 1.783-1.08.277-7.15 1.959-8.346 1.697-1.208 6.941 2.202 8.527.884.837-.696.582-2.603.357-4.472h-119.59c-.225 1.868-.478 3.773.357 4.469z"/></svg>