<?xml version="1.0" encoding="utf-8"?>
<!-- Generator: Adobe Illustrator 16.0.0, SVG Export Plug-In . SVG Version: 6.00 Build 0)  -->
<!DOCTYPE svg PUBLIC "-//W3C//DTD SVG 1.1//EN" "http://www.w3.org/Graphics/SVG/1.1/DTD/svg11.dtd">
<svg version="1.1" id="Layer_1" xmlns="http://www.w3.org/2000/svg" xmlns:xlink="http://www.w3.org/1999/xlink" x="0px" y="0px"
	 width="80px" height="80px" viewBox="0 0 80 80" enable-background="new 0 0 80 80" xml:space="preserve">
<g>
	<g>
		<path fill="#524741" d="M29.116,46.474c-0.954-0.081-1.903-0.221-2.856-0.429c0.095-0.274,0.192-0.547,0.285-0.821v-9.659
			c-0.081-0.108-0.164-0.217-0.25-0.323c-0.286-0.063-0.572-0.13-0.86-0.208c0.274-0.874,0.549-1.755,0.825-2.641
			c0.862,0.193,1.725,0.322,2.586,0.406V45.57C28.937,45.871,29.023,46.174,29.116,46.474 M37.574,33.54v11.406
			c-0.376,0.427-0.757,0.856-1.131,1.279c-1.518,0.186-3.031,0.32-4.545,0.342c-0.382-0.371-0.768-0.749-1.148-1.136V34.026
			c0.38-0.36,0.766-0.729,1.148-1.109c1.514-0.019,3.027-0.155,4.545-0.342C36.817,32.9,37.198,33.222,37.574,33.54 M35.004,35.033
			c-0.574,0.058-1.147,0.104-1.724,0.134c-0.09,0.089-0.179,0.178-0.269,0.266V44c0.09,0.08,0.179,0.157,0.269,0.236
			c0.576-0.033,1.15-0.079,1.724-0.133c0.09-0.092,0.181-0.188,0.272-0.279V35.26C35.185,35.185,35.094,35.111,35.004,35.033
			 M46.086,32.292v11.403c-0.38,0.42-0.758,0.842-1.133,1.267c-1.516,0.201-3.029,0.445-4.542,0.685
			c-0.383-0.316-0.769-0.634-1.151-0.952V33.293c0.382-0.43,0.768-0.863,1.151-1.296c1.513-0.237,3.026-0.487,4.542-0.682
			C45.33,31.639,45.706,31.963,46.086,32.292 M43.517,33.816c-0.574,0.082-1.147,0.174-1.728,0.262
			c-0.088,0.1-0.178,0.198-0.265,0.295v8.564c0.087,0.07,0.177,0.141,0.265,0.209c0.58-0.09,1.153-0.179,1.728-0.262
			c0.09-0.098,0.181-0.194,0.271-0.293v-8.566C43.697,33.959,43.606,33.887,43.517,33.816 M51.04,31.891v1.904
			c-0.323,0.328-0.646,0.663-0.969,1.002c-0.624,0.004-1.245,0.031-1.87,0.069c-0.332-0.312-0.67-0.62-1.004-0.928v-1.902
			c0.334-0.354,0.672-0.701,1.004-1.046c0.625-0.04,1.246-0.068,1.87-0.073C50.394,31.234,50.717,31.56,51.04,31.891 M48.508,31.761
			c-0.172,0.181-0.348,0.368-0.521,0.555v1.238c0.174,0.168,0.35,0.335,0.521,0.503c0.406-0.021,0.813-0.036,1.221-0.046
			c0.173-0.182,0.347-0.366,0.521-0.545v-1.238c-0.175-0.175-0.349-0.348-0.521-0.517C49.321,31.72,48.914,31.737,48.508,31.761
			 M52.367,44.002c0.062,0.218,0.121,0.43,0.184,0.643c-0.941-0.074-1.883-0.094-2.822-0.074c0.144-0.486,0.285-0.975,0.432-1.46
			c0.677-3.867,1.354-7.712,2.027-11.527c-0.068-0.207-0.143-0.415-0.214-0.624c0.951,0.054,1.903,0.161,2.856,0.335
			c-0.152,0.452-0.299,0.904-0.45,1.361C53.712,36.404,53.039,40.19,52.367,44.002 M57.345,42.675v1.888
			c-0.323,0.233-0.646,0.473-0.971,0.721c-0.626-0.163-1.243-0.294-1.868-0.396c-0.335-0.392-0.67-0.776-1.005-1.152V41.85
			c0.335-0.287,0.67-0.571,1.005-0.841c0.625,0.102,1.242,0.235,1.868,0.399C56.699,41.819,57.021,42.244,57.345,42.675
			 M54.812,41.85c-0.174,0.143-0.348,0.287-0.521,0.434v1.257c0.173,0.2,0.347,0.404,0.521,0.608
			c0.407,0.074,0.812,0.162,1.221,0.259c0.175-0.129,0.345-0.259,0.52-0.385v-1.257c-0.175-0.223-0.345-0.44-0.52-0.655
			C55.624,42.01,55.22,41.927,54.812,41.85 M52.737,28.03c-9.414-0.827-18.835,3.897-28.253,0.905
			c0.487,0.565,0.978,1.106,1.468,1.63c9.421,2.228,18.835-2.578,28.257-1.136C53.717,28.947,53.23,28.483,52.737,28.03
			 M52.737,46.135c-9.414-0.826-18.835,3.898-28.253,0.905c0.487,0.563,0.978,1.104,1.468,1.629
			c9.421,2.228,18.835-2.579,28.257-1.135C53.717,47.052,53.23,46.586,52.737,46.135"/>
	</g>
	<g>
		<path fill="#524741" d="M39.256,78.781c0-0.301,0.237-0.537,0.539-0.549l0,0c0.292,0,0.541,0.248,0.541,0.538l0,0
			c0,0.303-0.238,0.542-0.541,0.542l0,0l0,0l0,0C39.493,79.312,39.256,79.073,39.256,78.781z M37.616,79.27
			c-0.302-0.011-0.531-0.271-0.518-0.561l0,0c0.021-0.304,0.269-0.531,0.57-0.522l0,0c0.293,0.024,0.534,0.272,0.507,0.575l0,0
			c-0.008,0.279-0.245,0.508-0.539,0.508l0,0C37.627,79.27,37.627,79.27,37.616,79.27z M41.415,78.74
			c-0.021-0.303,0.204-0.554,0.505-0.57l0,0c0.295-0.023,0.552,0.203,0.574,0.506l0,0c0.012,0.293-0.217,0.552-0.508,0.572l0,0
			c-0.012,0-0.02,0-0.033,0l0,0C41.672,79.248,41.437,79.02,41.415,78.74z M35.436,79.105c-0.301-0.032-0.52-0.3-0.488-0.591l0,0
			c0.034-0.304,0.302-0.519,0.597-0.488l0,0c0.29,0.033,0.507,0.292,0.482,0.596l0,0c-0.029,0.279-0.269,0.483-0.539,0.483l0,0
			C35.465,79.105,35.444,79.105,35.436,79.105z M43.562,78.577c-0.033-0.302,0.186-0.56,0.472-0.604l0,0
			c0.296-0.032,0.566,0.186,0.604,0.473l0,0c0.035,0.306-0.181,0.564-0.472,0.596l0,0c0,0,0,0,0,0.01l0,0c-0.022,0-0.045,0-0.067,0
			l0,0C43.832,79.051,43.594,78.848,43.562,78.577z M33.266,78.815L33.266,78.815L33.266,78.815
			c-0.302-0.054-0.496-0.323-0.453-0.614l0,0c0.053-0.303,0.326-0.498,0.624-0.454h-0.009c0.302,0.045,0.497,0.325,0.453,0.626l0,0
			c-0.043,0.258-0.269,0.452-0.53,0.452l0,0C33.319,78.825,33.288,78.815,33.266,78.815z M45.699,78.297
			c-0.044-0.301,0.15-0.58,0.441-0.625l0,0c0.291-0.054,0.574,0.14,0.625,0.443l0,0c0.055,0.29-0.148,0.569-0.439,0.614l0,0v0.011
			l0,0c-0.023,0-0.055,0-0.088,0l0,0C45.979,78.74,45.755,78.556,45.699,78.297z M31.119,78.405
			c-0.304-0.065-0.474-0.354-0.409-0.647l0,0c0.052-0.293,0.346-0.478,0.635-0.412l0,0c0.292,0.068,0.476,0.357,0.409,0.65l0,0
			c-0.052,0.248-0.279,0.42-0.526,0.42l0,0C31.193,78.416,31.148,78.416,31.119,78.405z M47.825,77.898
			c-0.063-0.303,0.108-0.584,0.399-0.646l0,0c0.291-0.075,0.584,0.104,0.646,0.396l0,0c0.079,0.292-0.107,0.584-0.396,0.648l0,0l0,0
			l0,0c-0.045,0.012-0.09,0.012-0.13,0.012l0,0C48.105,78.309,47.879,78.134,47.825,77.898z M28.99,77.875
			c-0.289-0.083-0.45-0.373-0.378-0.669l0,0c0.089-0.279,0.378-0.45,0.671-0.367l0,0c0.281,0.075,0.452,0.38,0.365,0.663l0,0
			c-0.062,0.234-0.279,0.396-0.515,0.396l0,0C29.089,77.898,29.036,77.889,28.99,77.875z M49.918,77.379
			c-0.085-0.291,0.075-0.593,0.367-0.678l0,0c0.283-0.077,0.582,0.085,0.669,0.365l0,0c0.089,0.291-0.074,0.594-0.366,0.67l0,0
			c0,0,0,0,0,0.011l0,0c-0.043,0.011-0.098,0.011-0.15,0.011l0,0C50.211,77.758,49.984,77.605,49.918,77.379z M26.898,77.229
			L26.898,77.229L26.898,77.229c-0.28-0.096-0.431-0.397-0.334-0.679l0,0c0.097-0.292,0.399-0.445,0.69-0.347l0,0
			c0.281,0.096,0.42,0.41,0.335,0.689l0,0c-0.077,0.228-0.292,0.369-0.521,0.369l0,0C27.017,77.262,26.952,77.253,26.898,77.229z
			 M51.982,76.741c-0.102-0.29,0.041-0.591,0.321-0.688l0,0c0.282-0.096,0.593,0.042,0.692,0.322l0,0
			c0.097,0.281-0.045,0.592-0.325,0.691l0,0l0,0l0,0c-0.065,0.021-0.128,0.033-0.186,0.033l0,0
			C52.26,77.1,52.056,76.96,51.982,76.741z M24.846,76.464c-0.279-0.12-0.407-0.422-0.303-0.702l0,0
			c0.121-0.28,0.434-0.412,0.703-0.303l0,0c0.279,0.117,0.412,0.431,0.303,0.703l0,0c-0.088,0.213-0.293,0.345-0.497,0.345l0,0
			C24.977,76.507,24.913,76.482,24.846,76.464z M53.998,75.987c-0.119-0.272,0.013-0.593,0.29-0.702l0,0
			c0.273-0.117,0.585,0.011,0.705,0.282l0,0c0.118,0.279-0.011,0.595-0.292,0.712l0,0c-0.066,0.02-0.129,0.04-0.207,0.04l0,0
			C54.288,76.319,54.086,76.191,53.998,75.987z M22.839,75.576c-0.271-0.117-0.386-0.441-0.258-0.71l0,0
			c0.129-0.271,0.451-0.39,0.724-0.258l0,0c0.269,0.126,0.377,0.451,0.258,0.722l0,0c-0.099,0.194-0.291,0.302-0.497,0.302l0,0
			C22.989,75.632,22.916,75.621,22.839,75.576z M55.975,75.122c-0.131-0.269-0.023-0.593,0.246-0.723l0,0
			c0.271-0.128,0.598-0.021,0.724,0.252l0,0c0.13,0.269,0.021,0.591-0.245,0.72l0,0l0,0l0,0c-0.079,0.045-0.165,0.057-0.24,0.057
			l0,0C56.254,75.428,56.061,75.317,55.975,75.122z M20.885,74.596c-0.258-0.15-0.355-0.477-0.215-0.734l0,0
			c0.142-0.27,0.464-0.367,0.735-0.217l0,0c0.259,0.143,0.355,0.465,0.218,0.724l0,0c-0.1,0.183-0.294,0.283-0.479,0.283l0,0
			C21.058,74.651,20.962,74.639,20.885,74.596z M57.896,74.152c-0.144-0.259-0.054-0.582,0.215-0.732l0,0
			c0.248-0.142,0.583-0.055,0.736,0.205l0,0c0.139,0.259,0.042,0.592-0.216,0.734l0,0c-0.079,0.051-0.176,0.076-0.262,0.076l0,0
			C58.174,74.436,57.991,74.326,57.896,74.152z M18.987,73.494c-0.249-0.161-0.323-0.495-0.17-0.743l0,0
			c0.159-0.259,0.483-0.336,0.742-0.177l0,0c0.26,0.155,0.335,0.488,0.172,0.736l0,0c-0.096,0.176-0.268,0.26-0.452,0.26l0,0
			C19.181,73.57,19.085,73.549,18.987,73.494z M59.764,73.075c-0.164-0.249-0.087-0.583,0.172-0.745h-0.012
			c0.258-0.152,0.594-0.087,0.746,0.162l0,0c0.159,0.259,0.095,0.595-0.164,0.755l0,0c-0.086,0.054-0.193,0.074-0.289,0.074l0,0
			C60.044,73.321,59.869,73.237,59.764,73.075z M17.163,72.286c-0.248-0.174-0.304-0.507-0.13-0.748l0,0
			c0.163-0.245,0.497-0.312,0.744-0.137l0,0c0.249,0.171,0.303,0.507,0.143,0.754l0,0c-0.11,0.153-0.282,0.227-0.456,0.227l0,0
			C17.367,72.382,17.257,72.35,17.163,72.286z M61.563,71.897c-0.173-0.247-0.118-0.585,0.131-0.754l0,0
			c0.235-0.175,0.57-0.12,0.745,0.126l0,0c0.182,0.24,0.118,0.572-0.119,0.746l0,0c0,0,0,0,0,0.008l0,0
			c-0.098,0.067-0.206,0.1-0.314,0.1l0,0C61.843,72.123,61.671,72.049,61.563,71.897z M15.405,70.99c0,0,0,0,0-0.011l0,0
			c-0.24-0.185-0.281-0.518-0.087-0.755l0,0c0.185-0.236,0.519-0.271,0.754-0.088l0,0c0.229,0.185,0.272,0.52,0.086,0.757l0,0
			c-0.106,0.142-0.256,0.204-0.418,0.204l0,0C15.619,71.098,15.502,71.067,15.405,70.99z M63.303,70.613
			c-0.182-0.227-0.152-0.572,0.086-0.758l0,0c0.229-0.18,0.572-0.148,0.756,0.085l0,0c0.186,0.229,0.149,0.574-0.076,0.759l0,0
			c-0.107,0.076-0.225,0.117-0.344,0.117l0,0C63.562,70.816,63.409,70.752,63.303,70.613z M13.718,69.586
			c-0.225-0.193-0.246-0.538-0.053-0.766l0,0c0.194-0.215,0.54-0.237,0.767-0.039l0,0c0.227,0.189,0.249,0.535,0.055,0.752l0,0
			c-0.108,0.13-0.26,0.184-0.412,0.184l0,0C13.946,69.717,13.816,69.676,13.718,69.586z M64.965,69.241
			c-0.196-0.226-0.186-0.571,0.042-0.766l0,0c0.22-0.194,0.562-0.171,0.756,0.042l0,0c0.204,0.219,0.184,0.563-0.031,0.767l0,0l0,0
			l0,0c-0.109,0.087-0.238,0.13-0.357,0.13l0,0C65.227,69.414,65.072,69.36,64.965,69.241z M12.124,68.096
			c-0.216-0.215-0.229-0.548-0.013-0.764l0,0c0.207-0.205,0.552-0.217,0.756,0l0,0c0.215,0.203,0.226,0.549,0.011,0.754l0,0
			c-0.108,0.107-0.248,0.163-0.379,0.163l0,0C12.361,68.249,12.22,68.193,12.124,68.096z M66.549,67.775
			c-0.213-0.206-0.213-0.553,0-0.768l0,0c0.206-0.203,0.553-0.203,0.766,0l0,0c0.209,0.215,0.209,0.551,0,0.768l0,0
			c-0.105,0.105-0.244,0.159-0.388,0.159l0,0C66.788,67.935,66.66,67.881,66.549,67.775z M10.6,66.522L10.6,66.522L10.6,66.522
			c-0.205-0.217-0.183-0.562,0.035-0.768l0,0c0.213-0.193,0.561-0.182,0.765,0.045l0,0c0.193,0.218,0.181,0.562-0.044,0.755l0,0
			c-0.098,0.097-0.227,0.14-0.357,0.14l0,0C10.849,66.694,10.706,66.641,10.6,66.522z M68.051,66.222
			c-0.227-0.194-0.237-0.54-0.043-0.758l0,0c0.195-0.225,0.54-0.246,0.766-0.043l0,0c0.218,0.195,0.237,0.539,0.045,0.755l0,0
			c-0.109,0.12-0.258,0.186-0.414,0.186l0,0C68.276,66.361,68.148,66.318,68.051,66.222z M9.177,64.86L9.177,64.86L9.177,64.86
			c-0.194-0.226-0.163-0.563,0.076-0.757l0,0c0.227-0.183,0.571-0.15,0.755,0.075l0,0c0.194,0.237,0.15,0.572-0.076,0.767l0,0
			c-0.097,0.076-0.218,0.119-0.346,0.119l0,0C9.436,65.064,9.273,64.999,9.177,64.86z M69.465,64.588
			c-0.238-0.181-0.27-0.527-0.086-0.754l0,0c0.184-0.235,0.529-0.27,0.757-0.087l0,0c0.226,0.183,0.27,0.521,0.084,0.757l0,0l0,0
			l0,0c-0.108,0.14-0.259,0.206-0.421,0.206l0,0C69.682,64.71,69.562,64.667,69.465,64.588z M7.838,63.132L7.838,63.132
			L7.838,63.132c-0.171-0.247-0.119-0.581,0.117-0.755l0,0c0.237-0.172,0.583-0.117,0.757,0.119l0,0
			c0.172,0.238,0.117,0.583-0.119,0.756l0,0C8.498,63.319,8.39,63.35,8.268,63.35l0,0C8.108,63.35,7.945,63.273,7.838,63.132z
			 M70.78,62.885c-0.235-0.172-0.301-0.508-0.128-0.755l0,0c0.173-0.236,0.508-0.302,0.754-0.132l0,0
			c0.239,0.175,0.304,0.51,0.132,0.756l0,0c-0.108,0.152-0.272,0.229-0.444,0.229l0,0C70.988,62.982,70.879,62.948,70.78,62.885z
			 M6.608,61.33c-0.164-0.258-0.088-0.584,0.163-0.754l0,0c0.244-0.162,0.579-0.086,0.743,0.17l0,0
			c0.161,0.249,0.086,0.584-0.164,0.746l0,0c-0.096,0.053-0.193,0.077-0.29,0.077l0,0C6.877,61.569,6.704,61.48,6.608,61.33z
			 M72.001,61.104c-0.249-0.162-0.324-0.496-0.162-0.744l0,0c0.151-0.249,0.486-0.336,0.735-0.175l0,0
			c0.258,0.165,0.334,0.499,0.172,0.746l0,0c-0.098,0.163-0.279,0.258-0.453,0.258l0,0C72.193,61.188,72.098,61.158,72.001,61.104z
			 M5.474,59.452c-0.151-0.259-0.054-0.583,0.205-0.732l0,0c0.258-0.144,0.584-0.056,0.735,0.203l0,0
			c0.15,0.262,0.054,0.583-0.207,0.735l0,0c-0.087,0.043-0.172,0.077-0.271,0.077l0,0C5.756,59.735,5.57,59.637,5.474,59.452z
			 M73.123,59.259c-0.261-0.14-0.357-0.474-0.205-0.735l0,0c0.144-0.259,0.477-0.354,0.735-0.214l0,0
			c0.26,0.15,0.354,0.476,0.206,0.733l0,0c-0.1,0.184-0.283,0.281-0.479,0.281l0,0C73.295,59.324,73.209,59.302,73.123,59.259z
			 M4.448,57.523c-0.129-0.261-0.019-0.588,0.251-0.725l0,0c0.256-0.132,0.58-0.021,0.722,0.247l0,0
			c0.13,0.271,0.022,0.593-0.25,0.722l0,0c-0.074,0.046-0.161,0.055-0.237,0.055l0,0C4.727,57.822,4.547,57.715,4.448,57.523z
			 M74.15,57.349c-0.27-0.131-0.391-0.453-0.26-0.722l0,0c0.127-0.271,0.453-0.38,0.724-0.25l0,0
			c0.269,0.129,0.38,0.451,0.247,0.723l0,0l0,0l0,0c-0.086,0.196-0.28,0.303-0.483,0.303l0,0
			C74.301,57.402,74.224,57.381,74.15,57.349z M3.531,55.547c-0.109-0.281,0.012-0.594,0.292-0.711l0,0
			c0.269-0.121,0.582,0.011,0.701,0.277l0,0c0.119,0.283-0.01,0.594-0.281,0.713l0,0c-0.066,0.033-0.139,0.046-0.216,0.046l0,0
			C3.823,55.872,3.618,55.75,3.531,55.547z M75.055,55.386c-0.279-0.109-0.408-0.433-0.302-0.703l0,0
			c0.118-0.269,0.433-0.397,0.712-0.293l0,0c0.271,0.12,0.4,0.433,0.293,0.703l0,0c-0.088,0.216-0.293,0.334-0.495,0.334l0,0
			C75.186,55.427,75.121,55.418,75.055,55.386z M2.735,53.518c-0.1-0.28,0.042-0.596,0.321-0.693l0,0
			c0.28-0.106,0.593,0.047,0.69,0.324v-0.01c0.099,0.28-0.043,0.592-0.324,0.701l0,0c-0.065,0.023-0.117,0.035-0.185,0.035l0,0
			C3.024,53.875,2.808,53.73,2.735,53.518z M75.854,53.378c-0.279-0.099-0.432-0.399-0.334-0.691v0.01
			c0.098-0.279,0.398-0.43,0.679-0.335l0,0c0.291,0.098,0.435,0.402,0.339,0.68l0,0c0,0,0,0,0,0.012l0,0
			c-0.078,0.213-0.284,0.357-0.51,0.357l0,0C75.973,53.41,75.91,53.399,75.854,53.378z M2.042,51.435
			c-0.086-0.282,0.075-0.584,0.366-0.67l0,0c0.283-0.087,0.585,0.076,0.669,0.369l0,0c0.088,0.277-0.074,0.581-0.354,0.666l0,0
			c-0.056,0.013-0.109,0.021-0.163,0.021l0,0C2.333,51.821,2.117,51.673,2.042,51.435z M76.537,51.329
			c-0.295-0.079-0.455-0.38-0.381-0.662l0,0c0.086-0.292,0.389-0.452,0.671-0.378l0,0c0.288,0.086,0.452,0.389,0.365,0.669l0,0
			c-0.064,0.237-0.281,0.39-0.518,0.39l0,0C76.633,51.348,76.579,51.348,76.537,51.329z M1.479,49.318c0,0,0,0-0.008,0l0,0
			c-0.065-0.292,0.118-0.583,0.397-0.646l0,0c0.292-0.066,0.585,0.107,0.658,0.397l0,0c0.068,0.295-0.107,0.584-0.396,0.648l0,0
			c-0.043,0.01-0.088,0.023-0.132,0.023l0,0C1.76,49.741,1.537,49.566,1.479,49.318z M77.096,49.252
			c-0.29-0.074-0.475-0.354-0.41-0.646l0,0c0.066-0.291,0.354-0.475,0.649-0.408l0,0c0.289,0.062,0.474,0.355,0.408,0.646l0,0
			c-0.066,0.246-0.28,0.419-0.53,0.419l0,0C77.172,49.263,77.137,49.252,77.096,49.252z M1.027,47.181
			c-0.054-0.291,0.139-0.57,0.435-0.626l0,0c0.29-0.053,0.57,0.141,0.625,0.432l0,0c0.052,0.292-0.144,0.572-0.433,0.625l0,0
			c-0.034,0.014-0.065,0.014-0.096,0.014l0,0C1.296,47.625,1.069,47.439,1.027,47.181z M77.538,47.138
			c-0.29-0.052-0.484-0.321-0.442-0.624l0,0c0.054-0.295,0.334-0.489,0.625-0.444l0,0c0.293,0.055,0.486,0.334,0.443,0.626l0,0
			c-0.043,0.26-0.27,0.454-0.527,0.454l0,0C77.604,47.149,77.572,47.138,77.538,47.138z M0.693,45.023
			c-0.033-0.303,0.171-0.572,0.473-0.606l0,0c0.296-0.042,0.563,0.175,0.607,0.466l0,0c0.032,0.301-0.173,0.57-0.476,0.604l0,0
			c-0.019,0-0.042,0.012-0.063,0.012l0,0C0.964,45.498,0.724,45.295,0.693,45.023z M77.874,45.001
			c-0.302-0.032-0.519-0.292-0.476-0.594l0,0c0.031-0.291,0.29-0.506,0.594-0.474l0,0c0.291,0.031,0.508,0.301,0.475,0.594l0,0
			c-0.031,0.277-0.271,0.485-0.541,0.485l0,0C77.906,45.013,77.895,45.013,77.874,45.001z M0.488,42.842L0.488,42.842L0.488,42.842
			c-0.022-0.302,0.205-0.561,0.503-0.568l0,0c0.296-0.025,0.554,0.19,0.575,0.492l0,0c0.022,0.303-0.205,0.553-0.507,0.572l0,0
			c-0.014,0-0.022,0.016-0.033,0.016l0,0C0.747,43.354,0.509,43.125,0.488,42.842z M78.078,42.854
			c-0.303-0.013-0.529-0.271-0.506-0.563l0,0c0.009-0.303,0.27-0.527,0.559-0.508l0,0c0.305,0.012,0.529,0.27,0.52,0.562l0,0l0,0
			l0,0c-0.022,0.292-0.26,0.51-0.539,0.51l0,0C78.1,42.854,78.09,42.854,78.078,42.854z M0.4,40.652L0.4,40.652L0.4,40.652
			c-0.011-0.293,0.238-0.539,0.529-0.539l0,0c0.304-0.012,0.549,0.227,0.549,0.524l0,0c0,0.297-0.233,0.542-0.529,0.554l0,0H0.94
			l0,0C0.648,41.191,0.4,40.956,0.4,40.652z M77.624,40.167c0-0.216,0.119-0.39,0.302-0.486l0,0
			c-0.183-0.086-0.302-0.259-0.312-0.475l0,0c-0.01-0.292,0.229-0.541,0.529-0.551l0,0c0.293-0.011,0.541,0.226,0.551,0.529l0,0
			c0.01,0.215-0.119,0.398-0.293,0.496l0,0c0.186,0.086,0.303,0.271,0.303,0.486l0,0c0,0.291-0.236,0.54-0.539,0.54l0,0
			C77.874,40.707,77.624,40.458,77.624,40.167z M0.95,39.033c-0.301-0.023-0.526-0.271-0.516-0.561l0,0l0,0l0,0
			c0.009-0.303,0.271-0.53,0.557-0.52l0,0c0.305,0.012,0.531,0.258,0.522,0.561l0,0c-0.013,0.295-0.25,0.52-0.541,0.52l0,0
			C0.964,39.033,0.964,39.033,0.95,39.033z M77.506,37.08L77.506,37.08c-0.023-0.294,0.193-0.551,0.496-0.573l0,0
			c0.291-0.031,0.553,0.195,0.572,0.499l0,0c0,0,0,0,0.012,0l0,0c0.021,0.289-0.206,0.548-0.496,0.581l0,0c-0.012,0-0.035,0-0.045,0
			l0,0C77.766,37.587,77.528,37.369,77.506,37.08z M1.069,36.874c-0.292-0.031-0.517-0.291-0.487-0.583l0,0c0,0,0,0,0-0.012l0,0
			c0.036-0.29,0.294-0.505,0.597-0.475l0,0c0.292,0.021,0.517,0.293,0.485,0.586l0,0c-0.033,0.278-0.271,0.483-0.541,0.483l0,0
			C1.104,36.874,1.093,36.874,1.069,36.874z M77.279,34.976L77.279,34.976c-0.043-0.302,0.162-0.573,0.464-0.616l0,0
			c0.29-0.031,0.56,0.173,0.604,0.464l0,0l0,0l0,0c0.043,0.302-0.161,0.573-0.463,0.616l0,0c-0.023,0-0.043,0-0.076,0l0,0
			C77.549,35.439,77.311,35.243,77.279,34.976z M1.306,34.738c-0.289-0.054-0.495-0.324-0.442-0.629l0,0c0,0,0,0,0,0.012l0,0
			c0.043-0.301,0.314-0.508,0.614-0.453l0,0c0.294,0.041,0.497,0.324,0.455,0.615l0,0c-0.044,0.271-0.28,0.455-0.54,0.455l0,0
			C1.361,34.738,1.34,34.738,1.306,34.738z M76.934,32.871L76.934,32.871c-0.064-0.293,0.131-0.572,0.422-0.628l0,0
			c0.291-0.064,0.582,0.13,0.637,0.423l0,0l0,0l0,0c0.053,0.287-0.143,0.581-0.433,0.637l0,0c-0.031,0-0.064,0.01-0.097,0.01l0,0
			C77.204,33.312,76.978,33.129,76.934,32.871z M1.675,32.601c-0.292-0.056-0.477-0.346-0.42-0.638l0,0l0,0l0,0
			c0.063-0.291,0.355-0.475,0.647-0.41l0,0c0.29,0.055,0.472,0.345,0.409,0.636l0,0c-0.055,0.249-0.28,0.423-0.528,0.423l0,0
			C1.751,32.611,1.706,32.611,1.675,32.601z M76.471,30.794L76.471,30.794c-0.076-0.289,0.096-0.58,0.388-0.655l0,0
			c0.291-0.074,0.583,0.099,0.658,0.388l0,0l0,0l0,0c0.076,0.29-0.108,0.583-0.401,0.66l0,0c-0.04,0.01-0.086,0.021-0.127,0.021l0,0
			C76.752,31.208,76.537,31.035,76.471,30.794z M2.148,30.495c-0.281-0.076-0.453-0.367-0.376-0.656l0,0
			c0.075-0.292,0.376-0.454,0.668-0.379l0,0c0.282,0.077,0.457,0.379,0.378,0.668l0,0c-0.066,0.237-0.293,0.388-0.518,0.388l0,0
			C2.247,30.516,2.204,30.516,2.148,30.495z M75.889,28.748c-0.088-0.281,0.073-0.584,0.354-0.681l0,0
			c0.281-0.086,0.585,0.075,0.669,0.356l0,0c0.099,0.279-0.063,0.595-0.345,0.68l0,0c-0.053,0.011-0.107,0.021-0.16,0.021l0,0
			C76.166,29.124,75.962,28.987,75.889,28.748z M2.752,28.424c-0.29-0.087-0.441-0.399-0.345-0.68l0,0l0,0l0,0
			c0.097-0.281,0.4-0.432,0.683-0.337l0,0c0.29,0.088,0.429,0.401,0.343,0.682l0,0c-0.076,0.226-0.292,0.365-0.517,0.365l0,0
			C2.863,28.454,2.808,28.443,2.752,28.424z M75.195,26.738L75.195,26.738c-0.107-0.279,0.032-0.593,0.313-0.698l0,0
			c0.281-0.101,0.593,0.044,0.689,0.322l0,0c0.111,0.269-0.032,0.583-0.31,0.69l0,0c-0.068,0.022-0.131,0.031-0.186,0.031l0,0
			C75.478,27.084,75.271,26.955,75.195,26.738z M3.466,26.384c-0.28-0.106-0.422-0.421-0.301-0.702l0,0l0,0l0,0
			c0.109-0.27,0.42-0.408,0.702-0.303l0,0c0.27,0.109,0.41,0.434,0.3,0.705l0,0c-0.083,0.212-0.289,0.341-0.504,0.341l0,0
			C3.596,26.425,3.531,26.414,3.466,26.384z M74.385,24.775c-0.115-0.281,0-0.597,0.282-0.713l0,0c0.269-0.117,0.596,0,0.712,0.27
			l0,0l0,0l0,0c0.118,0.27-0.01,0.594-0.281,0.713l0,0c-0.061,0.031-0.141,0.056-0.215,0.056l0,0
			C74.678,25.101,74.474,24.971,74.385,24.775z M4.285,24.388c-0.268-0.122-0.378-0.442-0.257-0.713l0,0l0,0l0,0
			c0.131-0.271,0.455-0.39,0.712-0.26l0,0c0.283,0.12,0.398,0.443,0.271,0.712l0,0c-0.097,0.195-0.293,0.313-0.496,0.313l0,0
			C4.439,24.44,4.362,24.421,4.285,24.388z M73.479,22.854c-0.139-0.27-0.031-0.594,0.227-0.723l0,0
			c0.27-0.137,0.596-0.034,0.724,0.228l0,0c0.143,0.27,0.033,0.592-0.226,0.733l0,0c-0.088,0.043-0.162,0.055-0.252,0.055l0,0
			C73.76,23.146,73.566,23.039,73.479,22.854z M5.225,22.445c-0.257-0.141-0.355-0.467-0.214-0.736l0,0l0,0l0,0
			c0.14-0.256,0.464-0.355,0.733-0.214l0,0c0.259,0.141,0.354,0.463,0.215,0.724l0,0C5.863,22.4,5.679,22.51,5.484,22.51l0,0
			C5.396,22.51,5.313,22.487,5.225,22.445z M72.455,20.998c-0.151-0.27-0.064-0.593,0.193-0.746l0,0
			c0.26-0.15,0.593-0.062,0.746,0.195l0,0c0.139,0.259,0.053,0.583-0.195,0.733l0,0c-0.088,0.054-0.184,0.075-0.271,0.075l0,0
			C72.736,21.256,72.551,21.159,72.455,20.998z M6.272,20.556c-0.248-0.161-0.335-0.496-0.174-0.745l0,0l0,0l0,0
			c0.153-0.246,0.488-0.332,0.737-0.184l0,0c0.258,0.164,0.334,0.484,0.181,0.744l0,0c-0.096,0.172-0.277,0.26-0.462,0.26l0,0
			C6.456,20.631,6.358,20.609,6.272,20.556z M71.33,19.186L71.33,19.186c-0.158-0.248-0.094-0.584,0.154-0.743l0,0
			c0.247-0.164,0.582-0.099,0.756,0.147l0,0l0,0l0,0c0.161,0.249,0.085,0.583-0.162,0.746l0,0c-0.088,0.064-0.195,0.095-0.293,0.095
			l0,0C71.613,19.431,71.439,19.345,71.33,19.186z M7.427,18.719c-0.247-0.159-0.314-0.507-0.14-0.743l0,0
			c0.173-0.247,0.508-0.313,0.755-0.139l0,0c0.239,0.173,0.301,0.507,0.131,0.753h0.008C8.076,18.741,7.9,18.819,7.73,18.819l0,0
			C7.621,18.819,7.522,18.784,7.427,18.719z M70.111,17.449c-0.182-0.239-0.127-0.585,0.108-0.757l0,0
			c0.238-0.185,0.583-0.13,0.758,0.104l0,0c0.183,0.239,0.128,0.585-0.11,0.758l0,0c-0.098,0.077-0.215,0.107-0.322,0.107l0,0
			C70.383,17.662,70.22,17.588,70.111,17.449z M8.679,16.962c-0.236-0.184-0.281-0.52-0.097-0.756l0,0
			c0.183-0.236,0.52-0.281,0.754-0.098l0,0c0.239,0.184,0.281,0.519,0.1,0.756l0,0c-0.11,0.142-0.271,0.215-0.432,0.215l0,0
			C8.893,17.079,8.777,17.036,8.679,16.962z M68.797,15.773c-0.195-0.228-0.164-0.561,0.062-0.754l0,0
			c0.229-0.194,0.573-0.164,0.768,0.064l0,0l0,0l0,0c0.186,0.225,0.163,0.572-0.075,0.755l0,0c-0.098,0.086-0.226,0.131-0.347,0.131
			l0,0C69.056,15.97,68.902,15.904,68.797,15.773z M10.019,15.277c-0.228-0.193-0.249-0.537-0.055-0.769l0,0c0,0,0,0,0,0.012l0,0
			c0.194-0.227,0.541-0.257,0.769-0.063l0,0c0.223,0.195,0.245,0.54,0.052,0.766l0,0c-0.108,0.12-0.259,0.184-0.412,0.184l0,0
			C10.245,15.406,10.126,15.363,10.019,15.277z M67.384,14.178c-0.206-0.217-0.188-0.562,0.03-0.758l0,0
			c0.217-0.203,0.563-0.193,0.756,0.024l0,0l0,0l0,0c0.205,0.216,0.193,0.561-0.021,0.764l0,0c-0.098,0.099-0.238,0.142-0.368,0.142
			l0,0C67.642,14.35,67.49,14.294,67.384,14.178z M11.454,13.668c-0.206-0.215-0.218-0.549-0.011-0.764l0,0
			c0.216-0.218,0.55-0.218,0.764-0.014l0,0c0.216,0.207,0.216,0.554,0.013,0.757v0.013c-0.108,0.105-0.249,0.16-0.39,0.16l0,0
			C11.7,13.82,11.563,13.766,11.454,13.668z M65.892,12.665c-0.216-0.204-0.226-0.539-0.019-0.755l0,0
			c0.202-0.227,0.549-0.227,0.766-0.023l0,0l0,0l0,0c0.213,0.209,0.225,0.552,0.021,0.769l0,0c-0.111,0.106-0.249,0.163-0.391,0.163
			l0,0C66.132,12.818,66.001,12.772,65.892,12.665z M12.988,12.138c-0.208-0.219-0.198-0.561,0.032-0.756l0,0
			c0.213-0.206,0.549-0.196,0.754,0.021l0,0c0.204,0.228,0.183,0.562-0.032,0.765l0,0c-0.097,0.098-0.238,0.142-0.365,0.142l0,0
			C13.232,12.31,13.082,12.255,12.988,12.138z M64.316,11.24L64.316,11.24c-0.227-0.195-0.257-0.54-0.066-0.765l0,0
			c0.197-0.227,0.541-0.251,0.767-0.055l0,0l0,0l0,0c0.229,0.196,0.249,0.528,0.056,0.755l0,0c-0.107,0.13-0.259,0.195-0.41,0.195
			l0,0C64.543,11.371,64.414,11.328,64.316,11.24z M14.584,10.7c-0.185-0.236-0.152-0.571,0.075-0.767l0,0
			c0.237-0.183,0.572-0.15,0.766,0.076l0,0c0.184,0.229,0.151,0.574-0.077,0.755l0,0c-0.095,0.088-0.224,0.132-0.344,0.132l0,0
			C14.851,10.896,14.691,10.829,14.584,10.7z M62.666,9.902L62.666,9.902c-0.24-0.183-0.293-0.518-0.108-0.756l0,0
			c0.184-0.237,0.52-0.291,0.755-0.105l0,0c0.236,0.182,0.28,0.517,0.097,0.752l0,0c-0.097,0.141-0.259,0.217-0.42,0.217l0,0
			C62.871,10.01,62.762,9.979,62.666,9.902z M16.266,9.353c-0.173-0.247-0.119-0.583,0.12-0.755l0,0
			c0.237-0.185,0.583-0.133,0.753,0.106l0,0c0.174,0.248,0.132,0.581-0.117,0.757l0,0c-0.097,0.075-0.208,0.107-0.314,0.107l0,0
			C16.536,9.568,16.375,9.493,16.266,9.353z M60.941,8.652h-0.013c-0.238-0.164-0.304-0.511-0.141-0.747l0,0
			c0.173-0.246,0.507-0.313,0.755-0.141l0,0c0.238,0.162,0.3,0.497,0.139,0.743l0,0c-0.104,0.154-0.267,0.24-0.45,0.24l0,0
			C61.133,8.748,61.024,8.716,60.941,8.652z M18.025,8.102c-0.161-0.262-0.095-0.583,0.163-0.76l0,0
			c0.247-0.158,0.583-0.085,0.745,0.166l0,0c0.162,0.246,0.086,0.581-0.162,0.745l0,0c-0.086,0.064-0.196,0.083-0.292,0.083l0,0
			C18.306,8.336,18.135,8.253,18.025,8.102z M59.147,7.508h-0.011c-0.248-0.151-0.336-0.486-0.184-0.746l0,0
			c0.15-0.248,0.486-0.336,0.744-0.183l0,0l0,0l0,0c0.249,0.151,0.334,0.485,0.186,0.743l0,0c-0.109,0.163-0.283,0.261-0.467,0.261
			l0,0C59.318,7.583,59.233,7.562,59.147,7.508z M19.852,6.946c-0.15-0.26-0.066-0.593,0.192-0.745l0,0c0,0,0,0,0,0.01l0,0
			c0.262-0.151,0.594-0.062,0.733,0.195l0,0c0.152,0.258,0.068,0.582-0.194,0.734l0,0c-0.083,0.053-0.172,0.073-0.268,0.073l0,0
			C20.131,7.214,19.948,7.117,19.852,6.946z M57.278,6.461c-0.257-0.141-0.354-0.466-0.215-0.733l0,0
			c0.129-0.261,0.465-0.358,0.724-0.229l0,0c0.26,0.143,0.366,0.478,0.227,0.734l0,0c-0.096,0.181-0.279,0.294-0.477,0.294l0,0
			C57.451,6.526,57.366,6.503,57.278,6.461z M21.728,5.89c-0.131-0.261-0.02-0.583,0.25-0.725l0,0
			c0.257-0.129,0.581-0.021,0.722,0.249l0,0c0.131,0.26,0.023,0.581-0.238,0.723l0,0c-0.084,0.031-0.161,0.055-0.249,0.055l0,0
			C22.019,6.191,21.826,6.081,21.728,5.89z M55.369,5.521c-0.27-0.131-0.387-0.442-0.258-0.713l0,0
			c0.119-0.268,0.441-0.398,0.71-0.268l0,0c0.272,0.116,0.39,0.44,0.272,0.709l0,0c-0.097,0.208-0.291,0.314-0.498,0.314l0,0
			C55.522,5.564,55.445,5.554,55.369,5.521z M23.67,4.949c-0.118-0.271,0-0.597,0.281-0.713l0,0l0,0l0,0
			c0.271-0.117,0.584,0.012,0.702,0.281l0,0c0.12,0.28,0,0.593-0.27,0.713l0,0c-0.074,0.03-0.15,0.041-0.216,0.041l0,0
			C23.951,5.271,23.757,5.153,23.67,4.949z M53.406,4.689h0.009c-0.278-0.109-0.419-0.421-0.313-0.701l0,0
			c0.109-0.28,0.421-0.412,0.703-0.302l0,0l0,0l0,0c0.281,0.107,0.408,0.421,0.303,0.7l0,0c-0.076,0.208-0.281,0.337-0.497,0.337
			l0,0C53.535,4.724,53.471,4.713,53.406,4.689z M25.658,4.119c-0.108-0.282,0.031-0.596,0.312-0.691l0,0
			c0.281-0.096,0.595,0.043,0.701,0.322l0,0c0.097,0.27-0.045,0.582-0.321,0.691l0,0c-0.066,0.021-0.118,0.033-0.186,0.033l0,0
			C25.938,4.475,25.731,4.332,25.658,4.119z M51.408,3.967c-0.291-0.086-0.443-0.398-0.343-0.68l0,0
			c0.085-0.281,0.386-0.443,0.677-0.346l0,0c0.281,0.097,0.434,0.399,0.346,0.681l0,0C52.013,3.847,51.798,4,51.569,4l0,0
			C51.517,4,51.463,3.988,51.408,3.967z M27.686,3.404c-0.085-0.29,0.075-0.592,0.368-0.678l0,0l0,0l0,0
			c0.279-0.088,0.581,0.075,0.667,0.353l0,0c0.089,0.296-0.074,0.598-0.355,0.681l0,0c-0.055,0.014-0.106,0.023-0.161,0.023l0,0
			C27.978,3.783,27.76,3.631,27.686,3.404z M49.356,3.362c-0.278-0.075-0.452-0.367-0.378-0.657l0,0
			c0.079-0.295,0.378-0.454,0.659-0.391l0,0c0,0,0,0,0,0.011l0,0c0.291,0.074,0.464,0.368,0.39,0.659l0,0
			c-0.064,0.239-0.28,0.4-0.527,0.4l0,0C49.456,3.385,49.41,3.375,49.356,3.362z M29.758,2.79c-0.063-0.28,0.108-0.573,0.398-0.647
			l0,0c0.291-0.074,0.583,0.108,0.649,0.4l0,0c0.075,0.279-0.096,0.571-0.389,0.646l0,0c-0.044,0.012-0.087,0.022-0.128,0.022l0,0
			C30.037,3.212,29.822,3.038,29.758,2.79z M47.297,2.878c-0.292-0.065-0.486-0.347-0.422-0.639l0,0
			c0.057-0.29,0.345-0.485,0.638-0.423l0,0l0,0l0,0c0.291,0.057,0.474,0.35,0.421,0.641l0,0c-0.055,0.258-0.281,0.431-0.529,0.431
			l0,0C47.371,2.888,47.329,2.888,47.297,2.878z M31.862,2.305c-0.057-0.292,0.14-0.572,0.429-0.627l0,0
			c0.294-0.053,0.575,0.139,0.629,0.433l0,0c0.054,0.289-0.131,0.583-0.431,0.626l0,0c-0.033,0.012-0.068,0.012-0.098,0.012l0,0
			C32.146,2.748,31.906,2.564,31.862,2.305z M45.201,2.498V2.51c-0.3-0.044-0.496-0.325-0.454-0.615l0,0
			c0.046-0.305,0.315-0.507,0.606-0.451l0,0l0,0l0,0c0.302,0.04,0.496,0.311,0.454,0.602l0,0c-0.032,0.27-0.271,0.465-0.529,0.465
			l0,0C45.257,2.51,45.225,2.51,45.201,2.498z M33.988,1.938c-0.042-0.293,0.174-0.562,0.463-0.604l0,0
			c0.304-0.034,0.574,0.173,0.606,0.462l0,0c0.043,0.304-0.163,0.574-0.465,0.615l0,0c-0.019,0-0.045,0-0.066,0l0,0
			C34.259,2.41,34.022,2.217,33.988,1.938z M43.088,2.251c-0.293-0.034-0.518-0.289-0.486-0.585l0,0
			c0.021-0.301,0.29-0.516,0.582-0.496l0,0c0.301,0.034,0.518,0.292,0.484,0.596l0,0c-0.021,0.279-0.256,0.485-0.539,0.485l0,0
			C43.121,2.251,43.098,2.251,43.088,2.251z M36.128,1.701c-0.013-0.305,0.202-0.562,0.505-0.585l0,0
			c0.292-0.021,0.55,0.195,0.572,0.499l0,0c0.022,0.301-0.196,0.56-0.497,0.581l0,0c-0.011,0-0.022,0-0.033,0l0,0
			C36.383,2.196,36.16,1.98,36.128,1.701z M40.962,2.122V2.11c-0.29-0.012-0.53-0.261-0.52-0.562l0,0
			c0.012-0.291,0.257-0.528,0.56-0.507l0,0c0,0,0,0,0-0.01l0,0c0.292,0.01,0.529,0.257,0.52,0.558l0,0
			c-0.011,0.294-0.246,0.532-0.54,0.532l0,0C40.974,2.122,40.974,2.122,40.962,2.122z M38.284,1.572
			c0-0.304,0.239-0.552,0.529-0.552l0,0c0.303-0.011,0.549,0.226,0.549,0.528l0,0c0.014,0.292-0.224,0.54-0.525,0.55l0,0h-0.013l0,0
			C38.533,2.099,38.298,1.859,38.284,1.572z"/>
	</g>
	<g>
		<path fill="#524741" d="M39.029,65.086c-0.302-0.01-0.527-0.258-0.527-0.55l0,0c0.008-0.302,0.248-0.541,0.548-0.529l0,0
			c0.301,0,0.54,0.247,0.53,0.551l0,0c-0.013,0.292-0.25,0.528-0.54,0.528l0,0H39.029z M40.658,64.536
			c-0.021-0.302,0.207-0.562,0.508-0.583l0,0c0.289-0.01,0.551,0.207,0.571,0.506l0,0c0.012,0.305-0.206,0.551-0.508,0.573l0,0
			c-0.008,0-0.021,0-0.033,0l0,0C40.908,65.032,40.679,64.817,40.658,64.536z M36.829,64.945L36.829,64.945L36.829,64.945
			c-0.292-0.032-0.507-0.302-0.475-0.594l0,0c0.029-0.301,0.302-0.518,0.592-0.484l0,0c0.292,0.032,0.506,0.303,0.475,0.592l0,0
			c-0.031,0.282-0.257,0.486-0.527,0.486l0,0C36.87,64.945,36.849,64.945,36.829,64.945z M42.809,64.343
			c-0.043-0.292,0.149-0.572,0.452-0.615l0,0c0.29-0.043,0.562,0.149,0.614,0.442l0,0c0.045,0.302-0.162,0.571-0.451,0.625l0,0
			c-0.022,0-0.057,0-0.088,0l0,0C43.077,64.795,42.85,64.611,42.809,64.343z M34.649,64.611L34.649,64.611L34.649,64.611
			c-0.294-0.063-0.476-0.344-0.421-0.637l0,0c0.066-0.29,0.346-0.485,0.636-0.42l0,0c0.29,0.054,0.485,0.334,0.42,0.624l0,0
			c-0.053,0.261-0.279,0.443-0.528,0.443l0,0C34.724,64.622,34.69,64.622,34.649,64.611z M44.932,63.964
			c-0.075-0.292,0.098-0.583,0.389-0.657l0,0c0.294-0.066,0.584,0.108,0.659,0.399l0,0c0.065,0.289-0.108,0.584-0.399,0.646l0,0
			c-0.044,0.01-0.085,0.023-0.129,0.023l0,0C45.216,64.375,44.985,64.213,44.932,63.964z M32.509,64.084L32.509,64.084
			L32.509,64.084c-0.29-0.089-0.442-0.389-0.364-0.669l0,0c0.084-0.292,0.386-0.453,0.667-0.367l0,0
			c0.292,0.084,0.453,0.376,0.366,0.667l0,0c-0.062,0.238-0.28,0.389-0.519,0.389l0,0C32.616,64.104,32.562,64.093,32.509,64.084z
			 M47.017,63.395c-0.108-0.284,0.043-0.586,0.325-0.682l0,0c0.289-0.098,0.592,0.054,0.689,0.335l0,0
			c0.096,0.28-0.054,0.582-0.335,0.68l0,0c-0.065,0.02-0.121,0.03-0.173,0.03l0,0C47.297,63.758,47.092,63.619,47.017,63.395z
			 M30.427,63.371c-0.281-0.109-0.422-0.423-0.301-0.702l0,0c0.107-0.28,0.42-0.422,0.688-0.302h0.014
			c0.269,0.105,0.409,0.423,0.302,0.691l0,0c-0.089,0.215-0.292,0.346-0.508,0.346l0,0C30.56,63.404,30.492,63.395,30.427,63.371z
			 M49.033,62.648c-0.129-0.271,0-0.595,0.27-0.713l0,0c0.268-0.118,0.594,0,0.711,0.27l0,0c0.119,0.268,0,0.596-0.267,0.711l0,0
			l0,0l0,0c-0.074,0.032-0.151,0.056-0.228,0.056l0,0C49.314,62.972,49.122,62.842,49.033,62.648z M28.409,62.463L28.409,62.463
			L28.409,62.463c-0.258-0.129-0.366-0.451-0.238-0.72l0,0c0.129-0.263,0.454-0.37,0.724-0.241l0,0
			c0.27,0.131,0.378,0.454,0.239,0.725l0,0c-0.087,0.195-0.283,0.301-0.487,0.301l0,0C28.572,62.527,28.486,62.508,28.409,62.463z
			 M50.977,61.719c-0.14-0.258-0.052-0.582,0.207-0.732h0.01c0.248-0.14,0.583-0.056,0.732,0.202l0,0
			c0.141,0.261,0.046,0.594-0.215,0.735l0,0c-0.076,0.045-0.172,0.074-0.26,0.074l0,0C51.258,61.998,51.074,61.902,50.977,61.719z
			 M26.488,61.396c-0.257-0.153-0.335-0.487-0.173-0.748l0,0c0.153-0.247,0.485-0.333,0.737-0.17l0,0
			c0.256,0.151,0.333,0.486,0.181,0.744l0,0c-0.109,0.165-0.281,0.25-0.464,0.25l0,0C26.671,61.473,26.573,61.449,26.488,61.396z
			 M52.832,60.63c-0.161-0.25-0.096-0.583,0.152-0.756l0,0c0.237-0.162,0.572-0.096,0.746,0.139l0,0
			c0.172,0.249,0.096,0.585-0.141,0.759l0,0l0,0l0,0c-0.098,0.064-0.207,0.095-0.303,0.095l0,0
			C53.113,60.866,52.941,60.782,52.832,60.63z M24.664,60.153c-0.238-0.171-0.291-0.517-0.109-0.755l0,0
			c0.174-0.237,0.521-0.279,0.757-0.108l0,0c0.237,0.172,0.28,0.521,0.105,0.757l0,0c-0.105,0.138-0.268,0.215-0.43,0.215l0,0
			C24.867,60.262,24.761,60.23,24.664,60.153z M54.594,59.379c-0.193-0.239-0.16-0.572,0.074-0.768l0,0
			c0.229-0.185,0.562-0.151,0.757,0.077l0,0c0.19,0.222,0.159,0.57-0.077,0.753l0,0c0,0,0,0,0,0.011l0,0
			c-0.097,0.075-0.217,0.118-0.336,0.118l0,0C54.854,59.57,54.701,59.506,54.594,59.379z M22.959,58.763L22.959,58.763
			L22.959,58.763c-0.227-0.196-0.249-0.541-0.043-0.756l0,0c0.192-0.228,0.54-0.249,0.754-0.043l0,0
			c0.228,0.195,0.251,0.54,0.044,0.756l0,0c-0.11,0.119-0.25,0.184-0.4,0.184l0,0C23.185,58.903,23.055,58.85,22.959,58.763z
			 M56.232,57.964c-0.215-0.215-0.205-0.551,0-0.757l0,0c0.217-0.215,0.563-0.204,0.768,0l0,0c0.205,0.217,0.205,0.561-0.01,0.768
			l0,0c-0.109,0.106-0.238,0.15-0.379,0.15l0,0C56.469,58.125,56.33,58.071,56.232,57.964z M21.37,57.218
			c-0.192-0.215-0.181-0.551,0.034-0.756l0,0c0.218-0.203,0.561-0.192,0.768,0.022h-0.013c0.205,0.217,0.196,0.562-0.022,0.768l0,0
			c-0.105,0.097-0.234,0.141-0.365,0.141l0,0C21.631,57.393,21.479,57.337,21.37,57.218z M57.734,56.42
			c-0.228-0.193-0.252-0.529-0.057-0.757l0,0c0.193-0.228,0.529-0.257,0.756-0.064l0,0c0.23,0.196,0.26,0.542,0.066,0.768l0,0
			c-0.107,0.118-0.261,0.183-0.412,0.183l0,0C57.959,56.549,57.842,56.506,57.734,56.42z M19.934,55.558
			c-0.182-0.237-0.137-0.582,0.099-0.767l0,0c0.238-0.184,0.571-0.143,0.756,0.099l0,0c0.183,0.224,0.14,0.57-0.088,0.755l0,0
			c-0.098,0.074-0.215,0.119-0.334,0.119l0,0C20.206,55.764,20.044,55.688,19.934,55.558z M59.104,54.758
			c-0.248-0.174-0.303-0.508-0.129-0.754l0,0c0.173-0.24,0.507-0.304,0.757-0.129l0,0c0.237,0.17,0.3,0.505,0.127,0.752l0,0
			c-0.107,0.152-0.271,0.229-0.442,0.229l0,0C59.308,54.855,59.202,54.822,59.104,54.758z M18.652,53.764
			c-0.162-0.246-0.084-0.58,0.164-0.742l0,0c0.244-0.174,0.581-0.1,0.742,0.15l0,0c0.165,0.247,0.096,0.581-0.15,0.744l0,0
			c-0.098,0.062-0.195,0.088-0.292,0.088l0,0C18.933,54.004,18.759,53.916,18.652,53.764z M60.325,52.979
			c-0.26-0.163-0.347-0.487-0.197-0.745l0,0c0.153-0.259,0.477-0.345,0.737-0.196l0,0c0.257,0.152,0.345,0.487,0.192,0.745l0,0l0,0
			l0,0c-0.11,0.161-0.281,0.259-0.477,0.259l0,0C60.494,53.041,60.398,53.021,60.325,52.979z M17.541,51.866
			c-0.14-0.271-0.045-0.594,0.216-0.732l0,0c0.268-0.143,0.59-0.034,0.733,0.226l0,0c0.138,0.258,0.041,0.582-0.227,0.723l0,0
			c-0.075,0.044-0.162,0.062-0.248,0.062l0,0C17.821,52.145,17.638,52.049,17.541,51.866z M61.37,51.09
			c-0.269-0.132-0.388-0.454-0.26-0.727l0,0c0.131-0.269,0.453-0.378,0.722-0.246l0,0c0.271,0.119,0.378,0.442,0.262,0.713l0,0
			c0,0,0,0-0.011,0l0,0c-0.086,0.192-0.28,0.312-0.485,0.312l0,0C61.521,51.143,61.445,51.118,61.37,51.09z M16.59,49.881
			c-0.12-0.282,0.008-0.594,0.28-0.715l0,0c0.282-0.118,0.594,0.012,0.712,0.293l0,0c0.119,0.269-0.011,0.582-0.289,0.7l0,0
			c-0.066,0.032-0.142,0.044-0.208,0.044l0,0C16.87,50.203,16.679,50.082,16.59,49.881z M62.256,49.113
			c-0.28-0.098-0.432-0.409-0.326-0.689l0,0c0.109-0.284,0.412-0.423,0.691-0.313l0,0c0.283,0.096,0.431,0.409,0.328,0.69l0,0l0,0
			l0,0c-0.09,0.215-0.295,0.354-0.51,0.354l0,0C62.373,49.155,62.309,49.145,62.256,49.113z M15.824,47.808L15.824,47.808
			L15.824,47.808c-0.098-0.28,0.055-0.583,0.347-0.68l0,0c0.282-0.088,0.582,0.064,0.68,0.356l0,0
			c0.086,0.28-0.067,0.58-0.356,0.667l0,0c-0.053,0.024-0.107,0.034-0.163,0.034l0,0C16.104,48.186,15.889,48.032,15.824,47.808z
			 M62.957,47.086c-0.291-0.089-0.463-0.38-0.389-0.67l0,0c0.086-0.282,0.381-0.453,0.671-0.378l0,0
			c0.278,0.074,0.452,0.378,0.378,0.657l0,0c-0.068,0.249-0.295,0.398-0.53,0.398l0,0C63.043,47.094,63,47.094,62.957,47.086z
			 M15.241,45.682c-0.064-0.292,0.106-0.572,0.41-0.647l0,0c0.28-0.065,0.574,0.118,0.637,0.409l0,0
			c0.066,0.292-0.118,0.581-0.409,0.648l0,0c-0.031,0.009-0.076,0.009-0.118,0.009l0,0C15.523,46.101,15.295,45.931,15.241,45.682z
			 M63.475,44.979c-0.301-0.043-0.496-0.322-0.443-0.615v-0.01c0.056-0.293,0.336-0.484,0.628-0.431l0,0
			c0.291,0.054,0.485,0.333,0.442,0.623l0,0c0,0,0,0-0.012,0l0,0c-0.044,0.259-0.27,0.443-0.528,0.443l0,0
			C63.528,44.989,63.508,44.989,63.475,44.979z M14.851,43.512c-0.043-0.291,0.164-0.56,0.457-0.605l0,0
			c0.301-0.04,0.571,0.176,0.611,0.465l0,0c0.035,0.293-0.168,0.562-0.46,0.605l0,0c-0.021,0-0.053,0.011-0.077,0.011l0,0
			C15.111,43.987,14.884,43.783,14.851,43.512z M63.799,42.854c-0.291-0.024-0.519-0.295-0.486-0.581l0,0
			c0.022-0.305,0.28-0.52,0.583-0.497l0,0c0.29,0.028,0.506,0.289,0.485,0.593l0,0c-0.021,0.278-0.259,0.485-0.537,0.485l0,0
			C63.83,42.854,63.811,42.854,63.799,42.854z M14.65,41.319c-0.011-0.299,0.222-0.548,0.515-0.558l0,0
			c0.304-0.025,0.552,0.213,0.561,0.504l0,0c0.013,0.303-0.216,0.55-0.506,0.562l0,0c-0.012,0.012-0.022,0.012-0.022,0.012l0,0
			C14.908,41.84,14.668,41.611,14.65,41.319z M63.398,40.167c0-0.024,0-0.033,0-0.054l0,0c0-0.012,0-0.035,0-0.057l0,0
			c0-0.29,0.239-0.538,0.54-0.538l0,0c0.292,0,0.54,0.236,0.54,0.538l0,0c0,0.014,0,0.021,0,0.045l0,0c0,0.02,0,0.041,0,0.065l0,0
			c0,0.291-0.238,0.54-0.54,0.54l0,0C63.638,40.707,63.398,40.458,63.398,40.167z M15.165,39.681
			c-0.301-0.011-0.525-0.27-0.515-0.561l0,0c0.008-0.304,0.268-0.542,0.558-0.521l0,0c0.302,0.011,0.531,0.262,0.518,0.561l0,0
			c-0.009,0.294-0.247,0.521-0.537,0.521l0,0C15.177,39.681,15.165,39.681,15.165,39.681z M63.303,37.953
			c-0.033-0.304,0.194-0.561,0.486-0.584l0,0c0.301-0.031,0.56,0.185,0.581,0.486l0,0c0.031,0.303-0.185,0.562-0.483,0.583l0,0
			c-0.012,0-0.035,0.013-0.043,0.013l0,0C63.562,38.451,63.322,38.234,63.303,37.953z M15.295,37.522
			c-0.291-0.032-0.495-0.306-0.465-0.603l0,0c0.042-0.295,0.315-0.5,0.606-0.465l0,0c0.303,0.042,0.506,0.312,0.464,0.604h0.01
			c-0.045,0.271-0.27,0.475-0.542,0.475l0,0C15.348,37.533,15.327,37.533,15.295,37.522z M63.01,35.87
			c-0.053-0.289,0.141-0.581,0.443-0.627l0,0c0.293-0.064,0.571,0.139,0.625,0.433l0,0l0,0l0,0c0.054,0.29-0.14,0.572-0.44,0.627
			l0,0c-0.032,0-0.065,0.01-0.089,0.01l0,0C63.295,36.312,63.066,36.129,63.01,35.87z M15.632,35.396
			c-0.293-0.064-0.486-0.356-0.412-0.649l0,0l0,0l0,0c0.065-0.289,0.346-0.476,0.638-0.409l0,0c0.29,0.064,0.473,0.355,0.408,0.65
			l0,0c-0.054,0.246-0.282,0.419-0.527,0.419l0,0C15.704,35.407,15.662,35.396,15.632,35.396z M62.546,33.809
			c-0.073-0.281,0.089-0.584,0.379-0.659l0,0c0.28-0.086,0.583,0.087,0.657,0.378l0,0c0.086,0.281-0.085,0.582-0.377,0.659l0,0
			c-0.043,0.009-0.099,0.021-0.139,0.021l0,0C62.828,34.208,62.611,34.047,62.546,33.809z M16.137,33.303
			c-0.279-0.099-0.442-0.4-0.346-0.681l0,0c0.088-0.281,0.391-0.443,0.669-0.356l0,0c0.282,0.1,0.442,0.4,0.354,0.679l0,0
			c-0.073,0.227-0.289,0.38-0.515,0.38l0,0C16.245,33.324,16.192,33.312,16.137,33.303z M61.901,31.812v-0.011
			c-0.109-0.269,0.028-0.585,0.309-0.692l0,0c0.284-0.105,0.595,0.044,0.694,0.326l0,0c0,0,0,0,0-0.013l0,0
			c0.105,0.28-0.033,0.596-0.314,0.702l0,0c-0.064,0.022-0.117,0.032-0.183,0.032l0,0C62.179,32.157,61.976,32.019,61.901,31.812z
			 M16.839,31.251c-0.281-0.108-0.41-0.419-0.291-0.702l0,0l0,0l0,0c0.119-0.28,0.43-0.398,0.701-0.292l0,0
			c0.281,0.119,0.41,0.433,0.292,0.713l0,0c-0.088,0.204-0.284,0.322-0.498,0.322l0,0C16.978,31.292,16.902,31.283,16.839,31.251z
			 M61.068,29.869c-0.127-0.27-0.011-0.593,0.259-0.724l0,0c0.271-0.127,0.582-0.011,0.712,0.261l0,0c0,0,0,0,0-0.013l0,0
			c0.129,0.271,0.021,0.595-0.247,0.726l0,0c-0.077,0.042-0.152,0.055-0.237,0.055l0,0C61.36,30.174,61.165,30.064,61.068,29.869z
			 M17.714,29.287c-0.261-0.142-0.369-0.465-0.229-0.734l0,0c0.141-0.258,0.466-0.366,0.734-0.228l0,0
			c0.26,0.142,0.356,0.466,0.228,0.735l0,0c-0.1,0.183-0.293,0.291-0.487,0.291l0,0C17.878,29.352,17.789,29.329,17.714,29.287z
			 M60.074,28.014L60.074,28.014c-0.15-0.26-0.063-0.594,0.195-0.744l0,0c0.248-0.152,0.582-0.064,0.734,0.183l0,0
			c0.15,0.257,0.064,0.594-0.194,0.744l0,0c-0.085,0.056-0.173,0.074-0.271,0.074l0,0C60.355,28.271,60.172,28.175,60.074,28.014z
			 M18.759,27.398c-0.247-0.164-0.324-0.496-0.162-0.744l0,0c0.162-0.249,0.498-0.324,0.746-0.162l0,0
			c0.248,0.162,0.322,0.497,0.162,0.742l0,0c-0.107,0.164-0.27,0.25-0.455,0.25l0,0C18.953,27.484,18.845,27.463,18.759,27.398z
			 M58.921,26.243L58.921,26.243c-0.175-0.235-0.12-0.582,0.118-0.755l0,0c0.247-0.173,0.584-0.119,0.756,0.128l0,0
			c0.174,0.239,0.117,0.571-0.118,0.746l0,0c-0.099,0.074-0.219,0.107-0.325,0.107l0,0C59.189,26.47,59.028,26.396,58.921,26.243z
			 M19.967,25.616c-0.223-0.182-0.278-0.528-0.086-0.756l0,0c0.174-0.235,0.521-0.279,0.757-0.096l0,0
			c0.226,0.181,0.268,0.519,0.097,0.756l0,0c-0.108,0.141-0.268,0.205-0.429,0.205l0,0C20.186,25.726,20.064,25.691,19.967,25.616z
			 M57.615,24.593c-0.195-0.227-0.174-0.573,0.055-0.768l0,0c0.226-0.195,0.569-0.173,0.751,0.054l0,0
			c0.21,0.227,0.175,0.571-0.052,0.766l0,0c-0.098,0.088-0.227,0.131-0.344,0.131l0,0C57.871,24.775,57.723,24.71,57.615,24.593z
			 M21.328,23.945c-0.213-0.208-0.226-0.551-0.022-0.768l0,0c0.205-0.217,0.542-0.228,0.766-0.031l0,0
			c0.217,0.201,0.229,0.55,0.022,0.765l0,0c-0.107,0.12-0.247,0.175-0.387,0.175l0,0C21.566,24.086,21.438,24.04,21.328,23.945z
			 M56.168,23.061L56.168,23.061c-0.217-0.218-0.228-0.562-0.01-0.768l0,0c0.202-0.215,0.55-0.215,0.766-0.012l0,0c0,0,0,0-0.01,0
			l0,0c0.215,0.206,0.229,0.55,0.01,0.768l0,0c-0.098,0.107-0.237,0.162-0.378,0.162l0,0C56.404,23.211,56.265,23.156,56.168,23.061
			z M22.839,22.4c-0.206-0.228-0.183-0.571,0.044-0.765l0,0c0.215-0.208,0.562-0.183,0.756,0.042l0,0
			c0.205,0.216,0.184,0.561-0.034,0.756l0,0c-0.106,0.097-0.233,0.141-0.365,0.141l0,0C23.089,22.574,22.949,22.52,22.839,22.4z
			 M54.594,21.656c-0.24-0.193-0.272-0.529-0.076-0.766l0,0c0.184-0.228,0.516-0.26,0.755-0.077l0,0
			c0.228,0.196,0.258,0.528,0.075,0.757l0,0c-0.107,0.129-0.259,0.205-0.419,0.205l0,0C54.808,21.775,54.688,21.732,54.594,21.656z
			 M24.469,20.987c-0.173-0.238-0.13-0.571,0.109-0.757l0,0c0.235-0.183,0.581-0.129,0.755,0.109l0,0
			c0.185,0.238,0.128,0.572-0.109,0.756l0,0c-0.096,0.076-0.203,0.107-0.326,0.107l0,0C24.739,21.203,24.578,21.127,24.469,20.987z
			 M52.896,20.395c-0.246-0.164-0.311-0.498-0.149-0.748l0,0c0.171-0.246,0.508-0.311,0.755-0.148l0,0
			c0.25,0.172,0.312,0.508,0.141,0.754l0,0c-0.097,0.153-0.273,0.238-0.44,0.238l0,0C53.093,20.49,52.984,20.459,52.896,20.395z
			 M26.231,19.734c-0.163-0.256-0.09-0.593,0.17-0.754l0,0c0.249-0.151,0.581-0.076,0.744,0.184l0,0
			c0.152,0.246,0.077,0.583-0.182,0.744h0.009c-0.095,0.053-0.193,0.075-0.291,0.075l0,0C26.509,19.983,26.327,19.896,26.231,19.734
			z M51.096,19.293c-0.259-0.151-0.355-0.474-0.206-0.733l0,0c0.14-0.262,0.475-0.357,0.735-0.216l0,0
			c0.256,0.152,0.357,0.476,0.205,0.732l0,0c-0.098,0.184-0.282,0.281-0.466,0.281l0,0C51.27,19.357,51.184,19.336,51.096,19.293z
			 M28.074,18.636c-0.129-0.271-0.02-0.596,0.249-0.736l0,0c0.26-0.129,0.582-0.021,0.724,0.248l0,0
			c0.129,0.261,0.021,0.583-0.236,0.723l0,0c-0.089,0.034-0.163,0.055-0.251,0.055l0,0C28.365,18.925,28.171,18.819,28.074,18.636z
			 M49.206,18.355c-0.271-0.121-0.388-0.444-0.271-0.715l0,0c0.122-0.268,0.442-0.399,0.715-0.28l0,0
			c0.268,0.132,0.4,0.442,0.268,0.712l0,0c-0.085,0.206-0.28,0.323-0.496,0.323l0,0C49.356,18.396,49.281,18.385,49.206,18.355z
			 M30.026,17.693c-0.107-0.269,0.022-0.58,0.304-0.7l0,0l0,0l0,0c0.27-0.107,0.592,0.032,0.701,0.303l0,0
			c0.109,0.278-0.033,0.594-0.303,0.702l0,0c-0.062,0.031-0.128,0.042-0.203,0.042l0,0C30.321,18.04,30.117,17.911,30.026,17.693z
			 M47.243,17.588c-0.281-0.096-0.433-0.411-0.335-0.69l0,0c0.097-0.28,0.399-0.433,0.691-0.335l0,0
			c0.279,0.096,0.432,0.399,0.334,0.679l0,0c-0.076,0.228-0.29,0.366-0.519,0.366l0,0C47.36,17.607,47.308,17.598,47.243,17.588z
			 M32.048,16.951c-0.089-0.293,0.071-0.597,0.366-0.682l0,0c0.282-0.075,0.582,0.085,0.667,0.369l0,0
			c0.087,0.279-0.076,0.582-0.364,0.666l0,0c-0.057,0.023-0.101,0.023-0.154,0.023l0,0C32.325,17.328,32.111,17.177,32.048,16.951z
			 M45.225,16.993L45.225,16.993c-0.293-0.075-0.478-0.366-0.4-0.646l0,0c0.077-0.291,0.365-0.476,0.646-0.4l0,0l0,0l0,0
			c0.293,0.065,0.477,0.355,0.4,0.646l0,0c-0.053,0.249-0.279,0.413-0.528,0.413l0,0C45.311,17.006,45.268,17.006,45.225,16.993z
			 M34.129,16.369c-0.065-0.283,0.129-0.572,0.417-0.626l0,0c0.296-0.065,0.576,0.128,0.64,0.42l0,0
			c0.055,0.292-0.129,0.571-0.421,0.634l0,0c-0.042,0-0.076,0.014-0.108,0.014l0,0C34.41,16.811,34.184,16.627,34.129,16.369z
			 M43.152,16.581L43.152,16.581c-0.292-0.042-0.496-0.312-0.453-0.611l0,0c0.044-0.292,0.322-0.497,0.615-0.454l0,0
			c0.301,0.043,0.496,0.323,0.451,0.614l0,0c-0.043,0.271-0.269,0.463-0.527,0.463l0,0C43.208,16.593,43.184,16.593,43.152,16.581z
			 M36.246,15.991c-0.035-0.294,0.182-0.562,0.473-0.594l0,0c0.303-0.034,0.572,0.173,0.604,0.474l0,0
			c0.031,0.302-0.184,0.56-0.475,0.594l0,0c-0.02,0-0.043,0-0.065,0l0,0C36.514,16.465,36.277,16.27,36.246,15.991z M41.058,16.354
			c-0.302-0.008-0.529-0.269-0.507-0.567l0,0c0.018-0.294,0.281-0.521,0.571-0.498l0,0c0.304,0.011,0.528,0.27,0.507,0.571l0,0
			c-0.02,0.28-0.258,0.509-0.538,0.509l0,0C41.079,16.369,41.068,16.369,41.058,16.354z M38.391,15.797
			c0-0.304,0.239-0.554,0.531-0.554l0,0c0.29-0.01,0.54,0.229,0.549,0.53l0,0c0.011,0.294-0.225,0.539-0.518,0.552l0,0
			c-0.013,0-0.013,0-0.013,0l0,0C38.641,16.325,38.404,16.086,38.391,15.797z"/>
	</g>
	<g>
		<path fill="#524741" d="M6.635,40.243c0-1.413,0.99-2.435,2.349-2.441c1.339,0,2.353,1.042,2.354,2.434
			c0.003,1.392-0.998,2.428-2.349,2.431C7.679,42.669,6.639,41.609,6.635,40.243z M10.635,40.23C10.632,39.35,9.923,38.665,9,38.666
			c-0.934,0-1.64,0.656-1.637,1.569c0,0.901,0.709,1.565,1.642,1.563C9.917,41.799,10.635,41.11,10.635,40.23z"/>
		<path fill="#524741" d="M6.998,35.407l0.159-0.787l2.615,0.53c0.851,0.174,1.286-0.141,1.423-0.814
			c0.134-0.675-0.136-1.157-0.994-1.334l-2.61-0.528l0.164-0.787l2.614,0.53c1.332,0.271,1.774,1.148,1.549,2.268
			c-0.228,1.117-0.974,1.724-2.306,1.451L6.998,35.407z"/>
		<path fill="#524741" d="M8.556,29.166l0.551-1.354c0.458-1.121,1.306-1.431,2.19-1.072c0.579,0.239,0.942,0.667,0.974,1.295
			l1.868-0.496l-0.354,0.867l-1.608,0.388c-0.035,0.126-0.083,0.255-0.138,0.387l-0.188,0.462l1.224,0.497l-0.303,0.746
			L8.556,29.166z M9.542,28.698l1.651,0.672l0.223-0.55c0.285-0.697,0.011-1.086-0.45-1.274c-0.458-0.19-0.911-0.101-1.196,0.601
			L9.542,28.698z"/>
		<path fill="#524741" d="M12.667,21.265l0.468-0.651l3.689,2.664l-0.468,0.651L12.667,21.265z"/>
		<path fill="#524741" d="M14.681,18.554l0.177-0.179l4.066,0.039l-2.076-2.033l0.56-0.576l3.28,3.209l-0.153,0.152l-4.041,0.043
			l2.02,1.979l-0.562,0.572L14.681,18.554z"/>
		<path fill="#524741" d="M24.044,13.583l1.1,1.605c0,0-0.269,0.812-1.164,1.422c-1.272,0.868-2.688,0.611-3.445-0.5
			c-0.742-1.085-0.415-2.564,0.7-3.325c0.838-0.573,1.534-0.6,1.534-0.6l0.157,0.722c0,0-0.654,0.089-1.149,0.427
			c-0.884,0.602-1.045,1.528-0.52,2.296c0.515,0.755,1.473,0.915,2.251,0.383c0.349-0.237,0.602-0.521,0.755-0.733l-0.456-0.667
			l-1.049,0.716l-0.404-0.595L24.044,13.583z"/>
		<path fill="#524741" d="M25.027,10.633l1.339-0.58c1.112-0.481,1.937-0.112,2.317,0.761c0.186,0.433,0.233,1.14-0.208,1.658
			c0.434,0.136,0.712,0.53,1.213,0.313l0.166-0.071l0.285,0.654c0,0-0.141,0.104-0.386,0.206c-1.04,0.452-1.394-0.53-2.025-0.594
			c-0.068,0.034-0.139,0.067-0.215,0.1l-0.458,0.199l0.527,1.211l-0.737,0.32L25.027,10.633z M26.06,10.99l0.71,1.635l0.546-0.239
			c0.69-0.297,0.768-0.77,0.568-1.226c-0.197-0.458-0.58-0.709-1.276-0.408L26.06,10.99z"/>
		<path fill="#524741" d="M30.518,8.529l2.879-0.695l0.171,0.721l-2.094,0.504l0.298,1.24l1.898-0.46l0.167,0.693l-1.899,0.458
			l0.256,1.059l2.095-0.508l0.172,0.719l-2.876,0.694L30.518,8.529z"/>
		<path fill="#524741" d="M35.898,7.443l1.715-0.087c1.411-0.071,2.482,0.827,2.549,2.147c0.068,1.3-0.925,2.328-2.317,2.4
			l-1.714,0.088L35.898,7.443z M36.743,8.14l0.16,3.073l0.911-0.047c0.882-0.045,1.534-0.72,1.488-1.606
			c-0.046-0.894-0.733-1.513-1.646-1.464L36.743,8.14z"/>
		<path fill="#524741" d="M42.297,7.424l0.799,0.074l-0.438,4.526l-0.8-0.075L42.297,7.424z"/>
		<path fill="#524741" d="M45.572,7.834l2.882,0.669l-0.167,0.72l-2.099-0.485l-0.29,1.241l1.905,0.442l-0.16,0.694l-1.905-0.441
			l-0.247,1.059l2.104,0.485l-0.168,0.72l-2.885-0.668L45.572,7.834z"/>
		<path fill="#524741" d="M50.855,9.228l0.232,0.098l1.424,3.81l1.149-2.668l0.739,0.319l-1.818,4.206l-0.197-0.084l-1.488-3.753
			l-1.121,2.591l-0.734-0.32L50.855,9.228z"/>
		<path fill="#524741" d="M56.28,11.82l3.174,2.136l-0.412,0.614l-1.239-0.836l-2.133,3.164L55,16.448l2.131-3.166l-1.262-0.854
			L56.28,11.82z"/>
		<path fill="#524741" d="M58.699,19.438c-0.394-0.369-0.665-0.867-0.793-1.334l0.697-0.339c0.102,0.44,0.326,0.862,0.624,1.14
			c0.396,0.367,0.753,0.343,0.952,0.13c0.208-0.225,0.208-0.472-0.186-1.255c-0.426-0.84-0.361-1.355,0.012-1.753
			c0.467-0.504,1.305-0.583,2.016,0.077c0.356,0.333,0.607,0.763,0.706,1.084l-0.675,0.343c-0.094-0.289-0.28-0.677-0.533-0.913
			c-0.35-0.329-0.695-0.284-0.909-0.052c-0.2,0.21-0.144,0.512,0.166,1.118c0.474,0.983,0.411,1.477,0.007,1.911
			C60.23,20.188,59.439,20.129,58.699,19.438z"/>
		<path fill="#524741" d="M65.148,25.717l-1.138-1.851l-0.924,0.568l-0.426-0.689l2.21-1.358c1.19-0.73,2.097-0.469,2.716,0.541
			c0.622,1.01,0.46,1.96-0.73,2.69l-2.212,1.358l-0.421-0.689L65.148,25.717z M64.552,23.535c0.217,0.339,1.03,1.666,1.143,1.849
			l0.734-0.45c0.824-0.51,0.868-1.066,0.536-1.609c-0.332-0.537-0.887-0.729-1.668-0.247L64.552,23.535z"/>
		<path fill="#524741" d="M69.687,27.01l0.515,1.363c0.434,1.134,0.022,1.938-0.865,2.278c-0.441,0.165-1.151,0.182-1.646-0.284
			c-0.157,0.426-0.568,0.688-0.376,1.193l0.066,0.172l-0.665,0.253c0,0-0.097-0.144-0.19-0.39c-0.402-1.062,0.597-1.374,0.689-1.999
			c-0.033-0.071-0.06-0.144-0.091-0.22l-0.177-0.469l-1.237,0.469l-0.286-0.753L69.687,27.01z M69.279,28.021l-1.662,0.635
			l0.21,0.557c0.265,0.703,0.733,0.802,1.199,0.626c0.467-0.179,0.734-0.552,0.467-1.26L69.279,28.021z"/>
		<path fill="#524741" d="M71.524,32.566l0.559,2.907l-0.725,0.14l-0.405-2.117l-1.257,0.238l0.37,1.922l-0.7,0.137l-0.371-1.926
			l-1.066,0.208l0.408,2.12l-0.727,0.139l-0.56-2.907L71.524,32.566z"/>
		<path fill="#524741" d="M67.843,40.838l0.062-0.841l4.42,2.474l-0.012,0.181l-4.741,1.79l0.062-0.859l0.936-0.334l0.146-1.95
			L67.843,40.838z M69.336,41.629l-0.105,1.383l1.616-0.574L69.336,41.629z"/>
		<path fill="#524741" d="M71.701,46.787l-0.188,0.778l-3.704-0.906l-0.513,2.093l-0.714-0.175l0.703-2.872L71.701,46.787z"/>
		<path fill="#524741" d="M70.343,51.547l-0.304,0.743l-3.527-1.449l-0.817,1.992l-0.682-0.282l1.122-2.733L70.343,51.547z"/>
		<path fill="#524741" d="M66.762,58.504l-0.459,0.659l-3.742-2.595l0.456-0.658L66.762,58.504z"/>
		<path fill="#524741" d="M64.787,61.19l-0.986,1.073c-0.819,0.895-1.725,0.889-2.426,0.247c-0.461-0.429-0.654-0.958-0.464-1.559
			l-1.926-0.185l0.638-0.691l1.638,0.199c0.081-0.105,0.17-0.211,0.267-0.314l0.334-0.367l-0.972-0.898l0.546-0.59L64.787,61.19z
			 M63.699,61.281l-1.31-1.203l-0.405,0.439c-0.51,0.551-0.389,1.013-0.021,1.351c0.365,0.337,0.82,0.411,1.332-0.147L63.699,61.281
			z"/>
		<path fill="#524741" d="M60.744,65.193l-0.62,0.511l-2.89-3.515l0.617-0.506L60.744,65.193z"/>
		<path fill="#524741" d="M54.691,63.917c0.454-0.29,1.004-0.426,1.488-0.435l0.157,0.762c-0.456-0.012-0.919,0.1-1.267,0.317
			c-0.451,0.29-0.516,0.647-0.359,0.895c0.162,0.257,0.4,0.318,1.261,0.134c0.921-0.203,1.403-0.012,1.698,0.447
			c0.368,0.58,0.239,1.416-0.584,1.937c-0.408,0.263-0.891,0.398-1.228,0.414l-0.163-0.741c0.305-0.02,0.727-0.1,1.021-0.288
			c0.406-0.259,0.448-0.598,0.276-0.868c-0.153-0.245-0.46-0.267-1.126-0.118c-1.07,0.208-1.533,0.028-1.852-0.476
			C53.58,65.214,53.833,64.463,54.691,63.917z"/>
		<path fill="#524741" d="M49.888,68.395l2.057-0.845l-0.681-1.657l0.743-0.307l1.724,4.215l-0.743,0.305l-0.774-1.895l-2.055,0.843
			l0.775,1.887l-0.747,0.306l-1.722-4.205l0.741-0.307L49.888,68.395z"/>
		<path fill="#524741" d="M40.167,70.871l-0.172-1.943c0,0,0.631-0.576,1.706-0.672c1.54-0.141,2.648,0.775,2.771,2.117
			c0.118,1.311-0.893,2.442-2.234,2.562c-1.016,0.093-1.634-0.221-1.634-0.221l0.216-0.71c0,0,0.615,0.244,1.214,0.188
			c1.064-0.096,1.656-0.825,1.57-1.754c-0.082-0.91-0.838-1.519-1.781-1.436c-0.42,0.038-0.779,0.164-1.013,0.279l0.069,0.802
			l1.267-0.112l0.063,0.715L40.167,70.871z"/>
		<path fill="#524741" d="M35.721,72.814c-1.403-0.165-2.302-1.264-2.143-2.617c0.151-1.327,1.306-2.211,2.687-2.05
			c1.382,0.16,2.295,1.278,2.14,2.613C38.253,72.067,37.079,72.973,35.721,72.814z M36.179,68.849
			c-0.876-0.103-1.64,0.519-1.746,1.438c-0.107,0.925,0.459,1.704,1.367,1.807c0.893,0.105,1.636-0.519,1.744-1.443
			C37.647,69.74,37.049,68.947,36.179,68.849z"/>
		<path fill="#524741" d="M28.832,71.239c-1.334-0.456-1.978-1.726-1.537-3.01c0.438-1.267,1.748-1.881,3.064-1.429
			c1.315,0.451,1.967,1.736,1.531,3.008C31.46,71.051,30.119,71.684,28.832,71.239z M30.119,67.467
			c-0.829-0.287-1.707,0.156-2.007,1.031c-0.303,0.882,0.087,1.759,0.948,2.055c0.852,0.294,1.708-0.156,2.014-1.035
			C31.37,68.652,30.956,67.752,30.119,67.467z"/>
		<path fill="#524741" d="M24.309,69.283l-1.472-0.885c-1.211-0.725-1.6-2.068-0.92-3.2c0.67-1.116,2.067-1.419,3.26-0.702
			l1.47,0.883L24.309,69.283z M23.995,68.23l1.581-2.635l-0.783-0.473c-0.755-0.451-1.674-0.256-2.132,0.507
			c-0.458,0.765-0.233,1.665,0.548,2.131L23.995,68.23z"/>
		<path fill="#524741" d="M18.776,65.664l-0.184-0.169l-0.091-4.062l-1.968,2.136l-0.588-0.543l3.099-3.368l0.155,0.143l0.173,4.027
			l1.904-2.072l0.592,0.54L18.776,65.664z"/>
		<path fill="#524741" d="M14.167,61.002l-1.781-2.365l0.589-0.441l1.298,1.721l1.019-0.764l-1.177-1.563l0.571-0.429l1.173,1.561
			l0.867-0.654l-1.293-1.721l0.589-0.443l1.779,2.362L14.167,61.002z"/>
		<path fill="#524741" d="M14.652,53.387c0.251,0.477,0.346,1.037,0.316,1.52l-0.772,0.095c0.047-0.449-0.028-0.923-0.221-1.283
			c-0.251-0.476-0.6-0.569-0.856-0.433c-0.272,0.145-0.354,0.375-0.234,1.245c0.128,0.936-0.103,1.401-0.582,1.657
			c-0.609,0.319-1.429,0.125-1.885-0.732c-0.228-0.431-0.326-0.92-0.313-1.256l0.751-0.104c-0.006,0.304,0.045,0.73,0.206,1.039
			c0.227,0.426,0.565,0.495,0.845,0.346c0.257-0.135,0.299-0.439,0.207-1.115c-0.125-1.084,0.093-1.527,0.618-1.807
			C13.45,52.18,14.176,52.49,14.652,53.387z"/>
		<path fill="#524741" d="M12.914,49.431c0.175,0.51,0.183,1.078,0.08,1.552l-0.78-0.027c0.116-0.437,0.114-0.916-0.018-1.3
			c-0.178-0.509-0.509-0.657-0.786-0.56c-0.286,0.099-0.405,0.32-0.422,1.193c-0.015,0.949-0.312,1.373-0.827,1.553
			c-0.65,0.226-1.433-0.094-1.752-1.012c-0.159-0.463-0.18-0.959-0.118-1.292l0.761,0.012c-0.055,0.302-0.069,0.732,0.044,1.062
			c0.157,0.454,0.48,0.575,0.781,0.47c0.276-0.095,0.366-0.39,0.377-1.07c0.041-1.093,0.326-1.497,0.886-1.694
			C11.908,48.053,12.58,48.47,12.914,49.431z"/>
	</g>
	<g>
		<polygon fill="#524741" points="25.108,50.596 27.774,50.596 27.774,51.688 27.035,51.688 27.035,56.245 27.774,56.245 
			27.774,57.34 25.108,57.34 25.108,56.245 25.844,56.245 25.844,51.688 25.108,51.688 		"/>
	</g>
	<g>
		<path fill="#524741" d="M29.27,50.596h2.895c1.794,0,2.695,0.989,2.695,2.401c0,1.043-0.499,1.858-1.364,2.191l0.797,1.057h0.863
			v1.095h-1.418L32.3,55.372c-0.115,0.01-0.238,0.01-0.366,0.01h-0.738v0.863h0.731v1.095H29.27v-1.095h0.738v-4.557H29.27V50.596z
			 M31.196,51.688v2.639h0.883c1.111,0,1.497-0.595,1.497-1.33c0-0.741-0.372-1.309-1.497-1.309H31.196z"/>
	</g>
	<g>
		<polygon fill="#524741" points="36.499,50.596 39.165,50.596 39.165,51.688 38.429,51.688 38.429,56.245 39.165,56.245 
			39.165,57.34 36.499,57.34 36.499,56.245 37.239,56.245 37.239,51.688 36.499,51.688 		"/>
	</g>
	<g>
		<path fill="#524741" d="M41.629,55.229v0.125c0,0.768,0.689,0.989,1.316,0.989c0.766,0,1.109-0.395,1.109-0.827
			c0-0.45-0.25-0.719-1.467-1.167c-1.312-0.502-1.764-1.161-1.764-2.005c0-0.963,0.75-1.861,2.07-1.861
			c0.872,0,1.15,0.496,1.183,0.543l-0.088-0.43h1.076l0.008,1.984h-1.074v-0.313c-0.048-0.566-0.5-0.72-1.038-0.72
			c-0.67,0-0.937,0.354-0.937,0.768c0,0.471,0.361,0.767,1.312,1.141c1.505,0.59,1.938,1.179,1.938,2.061
			c0,1.199-0.911,1.938-2.082,1.938c-1.312,0-1.638-0.673-1.638-0.673l0.087,0.559h-1.077l-0.009-2.111H41.629z"/>
	</g>
	<g>
		<polygon fill="#524741" points="51.171,50.596 53.836,50.596 53.836,51.688 53.098,51.688 53.098,56.245 53.826,56.245 
			53.826,57.34 51.171,57.34 51.171,56.245 51.906,56.245 51.906,54.683 48.619,54.683 48.619,56.245 49.349,56.245 49.349,57.34 
			46.691,57.34 46.691,56.245 47.433,56.245 47.433,51.688 46.691,51.688 46.691,50.596 49.356,50.596 49.356,51.688 48.619,51.688 
			48.619,53.627 51.906,53.627 51.906,51.688 51.171,51.688 		"/>
	</g>
	<g>
		<path fill="#524741" d="M40.803,27.82c0-1.651,2.222-5.434,5.064-5.434c1.033,0,1.996,0.756,1.996,2.062
			c0,1.009-0.596,1.81-1.812,1.81c-0.619,0-0.938-0.204-1.581-0.204c-1.88,0-3.575,1.879-3.575,1.879L40.803,27.82z M39.291,27.934
			c-0.712-3.828-2.292-4.997-2.292-7.954c0-1.397,1.145-2.546,2.544-2.546s2.545,1.148,2.545,2.546c0,2.819-1.744,4.126-2.497,7.954
			H39.291z M38.214,27.934c0,0-1.696-1.879-3.579-1.879c-0.638,0-0.961,0.204-1.583,0.204c-1.211,0-1.808-0.801-1.808-1.81
			c0-1.307,0.962-2.062,1.995-2.062c2.843,0,5.064,3.782,5.064,5.434L38.214,27.934z"/>
	</g>
</g>
</svg>
