<?xml version="1.0" encoding="utf-8"?>
<!-- Generator: Adobe Illustrator 16.0.0, SVG Export Plug-In . SVG Version: 6.00 Build 0)  -->
<!DOCTYPE svg PUBLIC "-//W3C//DTD SVG 1.1//EN" "http://www.w3.org/Graphics/SVG/1.1/DTD/svg11.dtd">
<svg version="1.1" id="Layer_1" xmlns="http://www.w3.org/2000/svg" xmlns:xlink="http://www.w3.org/1999/xlink" x="0px" y="0px"
	 width="85.668px" height="84.248px" viewBox="0 0 85.668 84.248" enable-background="new 0 0 85.668 84.248" xml:space="preserve">
<path fill-rule="evenodd" clip-rule="evenodd" fill="#DDDAD5" d="M85.668,18.167c0-8.008-6.409-14.5-14.416-14.5
	c-5.711,0-10.553,3.31-12.917,8.107c-2.364-4.798-7.29-8.107-13-8.107c-8.008,0-14.501,6.492-14.501,14.5
	c0,0.364,0.029,0.721,0.055,1.078c-1.971-1.001-4.193-1.578-6.555-1.578c-8.008,0-14.502,6.491-14.502,14.5
	c0,3.036,0.934,5.853,2.529,8.182c-5.84,1.348-10.203,6.568-10.203,12.818c0,4.934,2.707,9.229,6.725,11.483
	c-1.1,1.923-1.757,3.977-1.757,6.35c0,7.271,5.854,13,13.126,13h65.416V18.167z"/>
</svg>
