<?xml version="1.0" encoding="utf-8"?>
<!-- Generator: Adobe Illustrator 16.0.0, SVG Export Plug-In . SVG Version: 6.00 Build 0)  -->
<!DOCTYPE svg PUBLIC "-//W3C//DTD SVG 1.1//EN" "http://www.w3.org/Graphics/SVG/1.1/DTD/svg11.dtd">
<svg version="1.1" id="Layer_1" xmlns="http://www.w3.org/2000/svg" xmlns:xlink="http://www.w3.org/1999/xlink" x="0px" y="0px"
	 width="25px" height="30px" viewBox="0 0 25 30" enable-background="new 0 0 25 30" xml:space="preserve">
<g>
	<path fill="#010101" d="M20.255,28.325c-4.784,0.167-8.364,0.167-12.733,0.25c-1.665,0-3.33,0.125-4.786-0.374
		c-0.499-0.792-0.25-1.79-0.25-2.747c0-4.536-0.081-9.821-0.081-14.647c0-0.958,0-3.018,0-4.058c0.041-1.54-0.335-4.985,1.123-5.111
		C4.607,1.512,5.898,1.68,7.023,1.68c3.91,0,8.112-0.042,11.984,0.041c0.914,0,3.037-0.249,3.578,0.208
		c0.457,0.375,0.499,3.156,0.541,4.154c0.207,2.747-0.166,6.928-0.166,9.883c0,2.039-0.25,4.037-0.334,5.993
		c-0.084,1.997-0.041,3.994-0.125,5.991C21.918,28.409,21.047,28.284,20.255,28.325z M18.301,2.179c-2.125,0-3.83-0.25-5.328-0.125
		c-3.537,0.333-7.116-0.291-9.863,0.25C2.693,3.178,2.901,6.499,2.901,7.622c6.243,0.126,13.4-0.082,19.85-0.291
		c-0.208-0.75,0.21-4.445-0.497-5.028C21.67,1.887,19.506,2.179,18.301,2.179z M2.901,24.58c2.582,0,5.411,0.042,7.907-0.042
		c3.662-0.166,7.367,0.084,11.194-0.25c0.332-4.992,0.54-11.089,0.708-16.332C16.26,7.788,9.395,8.204,2.901,8.247
		C2.82,13.199,2.901,19.877,2.901,24.58z M3.193,27.867c1.58,0.417,3.246,0.251,4.828,0.251c3.203,0,6.198-0.168,8.28-0.208
		c1.748,0,3.412,0.124,5.616-0.251c0.167-0.707,0.209-2.164-0.039-2.788c0,0-0.041,0-0.084,0
		c-6.285,0.208-12.734,0.042-18.894,0.292C3.027,26.078,2.777,27.202,3.193,27.867z M20.534,11.305
		c-1.454,0.291-1.819,0.083-3.358,0.125c-4.495,0.167-8.011,0.416-12.423,0.25c-0.166-0.374-0.208-1.124,0.042-1.457
		c4.619-0.374,8.387-0.125,13.171-0.332c1.165-0.042,1.198-0.083,2.404,0.041C20.621,10.182,20.744,10.931,20.534,11.305z
		 M16.051,10.431c-1.08,0.042-2.662-0.125-3.992-0.042c-1.541,0.125-1.938,0.042-3.52,0.167c-0.541,0-1.206,0.042-1.956,0.042
		c-0.249,0-1.706-0.084-1.496,0.54c0.124,0.375,1.414,0.25,1.997,0.25c5.117,0,7.961-0.582,13.076-0.458
		c0.126-0.833-0.832-0.625-1.455-0.583C17.498,10.389,17.176,10.431,16.051,10.431z M8.395,5.869c-1.289-0.042-2.871,0.333-4.035,0
		c-0.084-0.458-0.168-1.332,0-1.873c0.707-0.042,1.456-0.042,2.164-0.083c0.624-0.041,1.455-0.125,1.913,0.208
		C8.603,4.663,8.479,5.37,8.395,5.869z M4.816,5.578c1.082,0,1.997-0.125,3.08-0.083c0.125-0.25,0.166-0.832,0.082-1.124
		c-1.039,0.084-2.246,0-3.162,0.042C4.691,4.663,4.773,5.203,4.816,5.578z M19.423,20.127c0,0.624,0.042,1.789-0.292,2.08
		c-0.416,0.458-2.496,0.333-3.453,0.375c-1.207,0.041-2.539-0.084-3.663-0.042c-2.538,0-4.785,0-7.033-0.166
		c-0.081-1.291-0.081-2.788,0-4.286c0.043-1.499-0.165-3.039,0.167-4.287c1.83-0.208,3.871-0.25,5.91-0.25
		c2.04,0,4.077-0.083,5.993-0.167c0.581-0.041,1.54-0.124,2.204,0.042C19.714,15.258,19.506,17.588,19.423,20.127z M5.65,14.217
		c-0.211,1.79-0.211,4.246-0.167,6.159c0,0.583-0.168,1.207,0.206,1.582c2.873,0.166,6.242,0.166,9.07,0.124
		c1.5-0.041,2.957,0.125,4.039-0.291c0.25-2.455,0.332-5.326,0.209-7.865c-0.583-0.083-1.166-0.125-1.707-0.083
		C13.431,14.01,9.436,14.01,5.65,14.217z M9.645,16.423c-0.25,0.333-0.544,0.873-0.834,1.249c-0.248,0.332-0.832,1.372-1.205,0.916
		c0.624-0.958,1.579-2.373,2.371-3.205c0.084-0.083,0.416-0.208,0.582,0.041C10.435,15.84,9.977,16.049,9.645,16.423z
		 M10.017,19.543c-0.248,0-0.332-0.124-0.416-0.248c0.333-0.583,0.876-1.249,1.333-1.956c0.499-0.708,0.915-1.415,1.416-1.873
		c0.125-0.083,0.414-0.166,0.623,0.083C11.849,16.756,10.934,18.129,10.017,19.543z M15.552,16.049
		c-0.872,0.791-1.663,1.83-2.413,2.871c-0.248,0.332-0.581,1.082-1.124,0.874c0.044-0.458,0.46-0.792,0.792-1.206
		c0.789-1.041,1.748-2.498,2.787-3.122c0.126-0.042,0.29-0.125,0.457,0.125C16.012,15.882,15.76,15.924,15.552,16.049z
		 M14.281,4.699c0.164,1.249-2.167,1.831-2.583,0.791c-0.374-0.874,0.416-1.415,1.248-1.498C13.571,3.909,14.195,4.117,14.281,4.699
		z M13.656,4.658c-1.043-1.124-2.416,1.29-0.418,0.874C13.489,5.365,13.779,4.99,13.656,4.658z M15.406,5.282
		c-0.207-1.207,1.747-1.832,2.33-0.708C17.901,5.822,15.613,6.53,15.406,5.282z M17.193,4.699c-0.332-0.708-1.746,0-1.08,0.749
		C16.653,5.573,17.111,5.198,17.193,4.699z M21.149,5.24c-0.165,0.708-1.58,0.79-2.206,0.333C17.946,3.575,21.609,3.367,21.149,5.24
		z M20.691,5.074c-0.039-0.25-0.083-0.458-0.207-0.583c-0.623-0.166-1.287,0.042-1.164,0.791C19.693,5.532,20.484,5.49,20.691,5.074
		z"/>
</g>
</svg>
