<?xml version="1.0" encoding="utf-8"?>
<!-- Generator: Adobe Illustrator 16.0.0, SVG Export Plug-In . SVG Version: 6.00 Build 0)  -->
<!DOCTYPE svg PUBLIC "-//W3C//DTD SVG 1.1//EN" "http://www.w3.org/Graphics/SVG/1.1/DTD/svg11.dtd">
<svg version="1.1" id="Layer_1" xmlns="http://www.w3.org/2000/svg" xmlns:xlink="http://www.w3.org/1999/xlink" x="0px" y="0px"
	 width="160px" height="20.092px" viewBox="0 0 160 20.092" enable-background="new 0 0 160 20.092" xml:space="preserve">
<g>
	<g>
		<path fill="#524741" d="M26.288,19.34h-2.749V1.205h2.749c1.06,0,2.395,0.545,2.395,2.859v3.785c0,1.062-0.271,1.905-1.144,2.261
			c0.873,0.38,1.144,1.196,1.144,2.286v4.086C28.683,18.797,27.348,19.34,26.288,19.34z M27.049,3.901
			c0-0.734-0.327-1.035-0.786-1.035h-1.065v6.507h0.897c0.573,0,0.954-0.463,0.954-1.197V3.901z M27.049,12.016
			c0-0.736-0.381-1.198-0.954-1.198h-0.897v6.862h1.065c0.459,0,0.786-0.299,0.786-1.035V12.016z"/>
		<path fill="#524741" d="M33.338,12.234v7.105h-1.635v-7.105l-2.014-11.03h1.551l1.389,8.497l1.417-8.497H35.6L33.338,12.234z"/>
	</g>
	<g>
		<path fill="#524741" d="M45.289,19.34h-4.521V1.205h4.521c2.369,0,4.168,1.499,4.168,4.221v9.913
			C49.457,18.062,47.658,19.34,45.289,19.34z M45.968,5.398c0-0.762-0.299-1.171-0.978-1.171h-0.709v12.089h0.709
			c0.679,0,0.978-0.381,0.978-1.143V5.398z"/>
		<path fill="#524741" d="M55.173,19.695c-2.481,0-4.414-1.717-4.414-4.195V5.044c0-2.477,1.933-4.165,4.414-4.165
			c2.447,0,4.384,1.688,4.384,4.165V15.5C59.557,17.979,57.62,19.695,55.173,19.695z M55.984,4.827c0-0.49-0.35-0.791-0.812-0.791
			c-0.464,0-0.845,0.301-0.845,0.791v10.894c0,0.488,0.381,0.787,0.845,0.787c0.462,0,0.812-0.299,0.812-0.787V4.827z"/>
		<path fill="#524741" d="M67.176,19.34l-2.312-7.434l-0.818-2.533v9.966h-3.078V1.205h3.217l2.094,7.434l0.737,2.561V1.205h3.048
			V19.34H67.176z"/>
		<path fill="#524741" d="M76.598,19.34l-0.248-2.914h-2.068l-0.298,2.914h-3.158l2.64-18.135h4.028l2.614,18.135H76.598z
			 M75.453,6.543l-0.791,7.053h1.393L75.453,6.543z"/>
		<path fill="#524741" d="M80.955,19.34V1.205h3.484v15.032h3.676v3.104H80.955z"/>
	</g>
	<g>
		<path fill="#524741" d="M96.361,19.748c-3.188,0-5.117-1.742-5.117-4.707v-1.307h3.646v1.307c0,0.789,0.461,1.359,1.279,1.359
			c0.816,0,1.197-0.49,1.197-1.359c0-1.279-1.09-2.232-2.45-3.484c-1.632-1.36-3.565-3.159-3.565-5.634
			c0-2.641,1.713-5.089,5.146-5.089c2.772,0,4.682,2.013,4.682,4.681v1.171h-3.646V5.377c0-0.733-0.438-1.171-1.035-1.171
			c-0.572,0-1.119,0.41-1.119,1.201c0,1.44,1.092,2.175,2.477,3.481c1.691,1.499,3.539,3.214,3.539,5.771
			C101.395,17.518,99.46,19.748,96.361,19.748z"/>
		<path fill="#524741" d="M109.453,19.34l-1.633-6.885l-0.87,2.34v4.545h-4.194V1.213h4.194v7.839l2.396-7.839h4.057l-2.615,7.54
			l2.916,10.587H109.453z"/>
		<path fill="#524741" d="M114.652,19.34V1.213h8.874v3.511h-4.68v3.758h3.046v3.129h-3.046v4.027h4.68v3.701H114.652z"/>
		<path fill="#524741" d="M131.584,19.34v-6.912h-2.454v6.912h-4.188V1.213h4.188v7.513h2.454V1.213h4.16V19.34H131.584z"/>
		<path fill="#524741" d="M143.535,19.34l-0.273-2.721h-2.477l-0.381,2.721h-3.781l3.158-18.126h4.84l3.104,18.126H143.535z
			 M142.174,6.93l-0.926,6.586h1.634L142.174,6.93z"/>
		<path fill="#524741" d="M155.945,19.34l-2.555-6.668l-1.033-2.558v9.226h-3.704V1.213h3.704l2.393,6.751l0.979,2.584V1.213h3.676
			V19.34H155.945z"/>
	</g>
	<path fill="#524741" d="M6.969,0.343H0.547c-0.268,0-0.484,0.244-0.484,0.517v17.939c0,0.271,0.217,0.516,0.484,0.516h6.422
		c5.232,0,9.514-4.256,9.514-9.513C16.482,4.599,12.201,0.343,6.969,0.343z M7.077,15.975c-1.94,0-3.288-0.617-3.903-1.086
		c-0.176-0.146-0.291-0.379-0.176-0.615l1.402-2.82l1.418,0.592l0.013-0.023c0.151,0.404,0.239,0.883,0.883,1.176
		c0.886,0.4,2.642,0.682,2.983-0.066c0.339-0.748-1.027-1.889-1.912-2.292c-0.67-0.304-1.1-0.021-1.522,0.13l-1.329-0.573
		c-1.402-0.813-2.082-1.86-2.082-3.28c0-1.79,1.322-3.462,4.312-3.462c1.73,0,2.992,0.496,3.607,0.912
		c0.266,0.172,0.411,0.497,0.266,0.788L9.775,7.875L8.725,7.332C8.572,6.984,8.453,6.598,7.846,6.297
		C7.312,6.035,6.835,6.136,5.314,5.487L5.211,5.625l2.471,1.171L7.6,6.956C7.549,6.94,5.191,5.89,5.107,5.857L4.993,6.024
		l2.472,1.225L7.383,7.421L4.904,6.21L4.843,6.398L7.23,7.703l-0.077,0.17L4.719,6.622L4.67,6.785
		c1.444,0.817,1.652,1.256,2.185,1.518C7.455,8.598,7.835,8.464,8.2,8.372l1.277,0.659c1.356,0.742,2.261,1.701,2.261,3.366
		C11.738,14.33,10.036,15.975,7.077,15.975z"/>
</g>
</svg>
