<?xml version="1.0" encoding="utf-8"?>
<!-- Generator: Adobe Illustrator 16.0.0, SVG Export Plug-In . SVG Version: 6.00 Build 0)  -->
<!DOCTYPE svg PUBLIC "-//W3C//DTD SVG 1.1//EN" "http://www.w3.org/Graphics/SVG/1.1/DTD/svg11.dtd">
<svg version="1.1" id="Layer_1" xmlns="http://www.w3.org/2000/svg" xmlns:xlink="http://www.w3.org/1999/xlink" x="0px" y="0px"
	 width="4px" height="75px" viewBox="0 0 4 75" enable-background="new 0 0 4 75" xml:space="preserve">
<g>
	<path fill="#808285" d="M0.5,72.5L0.5,72.5C0.5,73.328,1.172,74,2,74s1.5-0.672,1.5-1.5S2.828,71,2,71S0.5,71.672,0.5,72.5z
		 M0.5,65.5L0.5,65.5C0.5,66.328,1.172,67,2,67s1.5-0.672,1.5-1.5S2.828,64,2,64S0.5,64.672,0.5,65.5z M0.5,58.5L0.5,58.5
		C0.5,59.328,1.172,60,2,60s1.5-0.672,1.5-1.5S2.828,57,2,57S0.5,57.672,0.5,58.5z M0.5,51.5L0.5,51.5C0.5,52.328,1.172,53,2,53
		s1.5-0.672,1.5-1.5S2.828,50,2,50S0.5,50.672,0.5,51.5z M0.5,44.5L0.5,44.5C0.5,45.328,1.172,46,2,46s1.5-0.672,1.5-1.5
		C3.5,43.671,2.828,43,2,43S0.5,43.671,0.5,44.5z M0.5,37.5L0.5,37.5C0.5,38.328,1.172,39,2,39s1.5-0.672,1.5-1.5
		C3.5,36.671,2.828,36,2,36S0.5,36.671,0.5,37.5z M0.5,30.5L0.5,30.5C0.5,31.328,1.172,32,2,32s1.5-0.672,1.5-1.5
		C3.5,29.671,2.828,29,2,29S0.5,29.671,0.5,30.5z M0.5,23.5L0.5,23.5C0.5,24.328,1.172,25,2,25s1.5-0.672,1.5-1.5
		C3.5,22.671,2.828,22,2,22S0.5,22.671,0.5,23.5z M0.5,16.5L0.5,16.5C0.5,17.328,1.172,18,2,18s1.5-0.672,1.5-1.5
		C3.5,15.671,2.828,15,2,15S0.5,15.671,0.5,16.5z M0.5,9.5L0.5,9.5C0.5,10.328,1.172,11,2,11s1.5-0.672,1.5-1.5
		C3.5,8.671,2.828,8,2,8S0.5,8.671,0.5,9.5z M0.5,2.5L0.5,2.5C0.5,3.328,1.172,4,2,4s1.5-0.672,1.5-1.5C3.5,1.671,2.828,1,2,1
		S0.5,1.671,0.5,2.5z"/>
</g>
</svg>
