<?xml version="1.0" encoding="utf-8"?>
<!-- Generator: Adobe Illustrator 16.0.0, SVG Export Plug-In . SVG Version: 6.00 Build 0)  -->
<!DOCTYPE svg PUBLIC "-//W3C//DTD SVG 1.1//EN" "http://www.w3.org/Graphics/SVG/1.1/DTD/svg11.dtd">
<svg version="1.1" id="Layer_1" xmlns="http://www.w3.org/2000/svg" xmlns:xlink="http://www.w3.org/1999/xlink" x="0px" y="0px"
	 width="20.227px" height="20.092px" viewBox="0 0 20.227 20.092" enable-background="new 0 0 20.227 20.092" xml:space="preserve">
<path fill="#524741" d="M9.545,18.652v-6.72H7.572V8.605h1.973c0,0,0-1.083,0-2.268c0-2.485,1.508-3.865,4.732-3.865
	c1.08,0,1.884,0.101,1.884,0.101L16.1,6.096c0,0-0.819-0.003-1.717-0.003c-0.957,0-1.118,0.435-1.118,1.166c0,0.108,0,0.137,0,0.124
	c0,0.202,0,0.102,0,1.223h2.907l-0.125,3.327h-2.782v6.72v1.439h5.81c0.633,0,1.151-0.521,1.151-1.152V1.151
	C20.226,0.516,19.707,0,19.074,0H1.153C0.525,0,0.001,0.516,0.001,1.151v17.788c0,0.631,0.524,1.152,1.152,1.152h8.392V18.652z"/>
</svg>
