<?xml version="1.0" encoding="utf-8"?>
<!-- Generator: Adobe Illustrator 16.0.0, SVG Export Plug-In . SVG Version: 6.00 Build 0)  -->
<!DOCTYPE svg PUBLIC "-//W3C//DTD SVG 1.1//EN" "http://www.w3.org/Graphics/SVG/1.1/DTD/svg11.dtd">
<svg version="1.1" id="Layer_1" xmlns="http://www.w3.org/2000/svg" xmlns:xlink="http://www.w3.org/1999/xlink" x="0px" y="0px"
	 width="20.227px" height="20.092px" viewBox="0 0 20.227 20.092" enable-background="new 0 0 20.227 20.092" xml:space="preserve">
<g id="Your_Icon_6_">
	<g id="Instagram_Icon_6_">
		<g>
			<path fill="#524741" d="M14.82,9.789c0,2.597-2.109,4.706-4.705,4.706c-2.6,0-4.707-2.109-4.707-4.706
				c0-0.591,0.113-1.149,0.309-1.668h-5.769v7.008c0,2.809,2.275,5.083,5.083,5.083h10.164c2.809,0,5.082-2.274,5.082-5.083V8.121
				H14.51C14.705,8.64,14.82,9.198,14.82,9.789z"/>
			<path fill="#524741" d="M10.116,6.964c1.559,0,2.82,1.264,2.82,2.825c0,1.559-1.261,2.825-2.82,2.825
				c-1.561,0-2.823-1.267-2.823-2.825C7.292,8.228,8.555,6.964,10.116,6.964z"/>
			<path fill="#524741" d="M15.195-0.12H5.299v5.302H4.188v-5.225C3.801,0.02,3.428,0.124,3.079,0.272v4.91H1.965V0.919
				C0.741,1.848-0.051,3.31-0.051,4.965v1.487h6.851c0.846-0.845,2.02-1.371,3.316-1.371c1.293,0,2.464,0.525,3.316,1.371h6.846
				V4.965C20.277,2.159,18.004-0.12,15.195-0.12z M17.471,4.688c0,0.315-0.262,0.573-0.574,0.573h-1.713
				c-0.316,0-0.574-0.258-0.574-0.573V2.976c0-0.318,0.258-0.573,0.574-0.573h1.713c0.312,0,0.574,0.255,0.574,0.573V4.688z"/>
		</g>
	</g>
</g>
</svg>
