<?xml version="1.0" encoding="utf-8"?>
<!-- Generator: Adobe Illustrator 16.0.0, SVG Export Plug-In . SVG Version: 6.00 Build 0)  -->
<!DOCTYPE svg PUBLIC "-//W3C//DTD SVG 1.1//EN" "http://www.w3.org/Graphics/SVG/1.1/DTD/svg11.dtd">
<svg version="1.1" id="Layer_1" xmlns="http://www.w3.org/2000/svg" xmlns:xlink="http://www.w3.org/1999/xlink" x="0px" y="0px"
	 width="170px" height="110px" viewBox="0 0 170 110" enable-background="new 0 0 170 110" xml:space="preserve">
<g>
	<g>
		<path fill="#010101" d="M71.464,99.34l-2.516,1.516l1.629,2.697l-4.654,2.803l-5.366-8.902l7.062-4.25
			c2.683-1.62,4.805-1.037,5.779,0.58l0.076,0.133C74.45,95.535,74.136,97.729,71.464,99.34z M68.987,97.113
			c-0.298-0.494-0.655-0.605-1.351-0.188l-0.772,0.468l0.907,1.51l0.776-0.468c0.693-0.419,0.749-0.815,0.468-1.282L68.987,97.113z"
			/>
	</g>
	<g>
		<path fill="#010101" d="M79.436,98.217l-5.361-8.9l4.653-2.804l5.354,8.904L79.436,98.217z"/>
	</g>
	<g>
		<path fill="#010101" d="M86.893,93.726l-5.359-8.903l10.198-6.141l1.714,2.845L87.9,84.868l0.508,0.842l3.473-2.093l0.82,1.363
			l-3.475,2.096l0.461,0.76l5.545-3.342l1.859,3.09L86.893,93.726z"/>
	</g>
	<g>
		<path fill="#010101" d="M104.885,83.344c-2.137,1.29-4.742,2.109-6.484,2.121l-0.039-2.91c2.141-0.321,3.965-1.039,5.086-1.715
			c0.775-0.465,1.156-0.896,1.008-1.138c-0.514-0.854-6.742,3.773-8.789,0.377c-1.02-1.7,0.006-4.229,3.654-6.426
			c2.516-1.514,4.914-2.123,6.18-2.173l-0.119,2.857c-1.764,0.438-3.299,1.021-4.252,1.596c-0.64,0.387-0.969,0.746-0.816,1.003
			c0.571,0.946,6.426-3.672,8.397-0.396C109.918,78.547,108.891,80.93,104.885,83.344z"/>
	</g>
	<g>
		<path fill="#010101" d="M117.711,52.084l-0.977,10.344c-0.455,5.053,0.033,9.439,0.768,15.079
			c0.547,4.185,1.613,6.792,3.264,7.966c0.93,0.665,2.064,0.863,3.375,0.59c10.797-2.21,9.347-20.674,8.727-28.52
			c-0.078-1.01-0.146-1.885-0.176-2.521c-0.045-1.162-0.187-2.546-0.301-3.027l-0.053-0.223l0.219-0.08
			c1.578-0.568,3.078-1.898,4.454-3.955l0.57-0.847l-1.024,10.839c-0.21,2.33-0.623,9.76,0.193,13.215
			c1.192,5.013,4.061,7.247,8.085,6.294c4.12-0.976,5.636-5.309,6.833-9.668c1.109-4.009,1.029-8.424,0.953-12.692l-0.023-1.328
			c-0.007-0.275-0.012-0.549-0.018-0.816c-0.071-3.033,0.172-4.688,3.066-6.693c2.918-2.018,7.99-5.531,10.183-8.239
			c1.378-1.71,3.05-7.459-1.147-6.487c-0.559,0.131-1.24,0.994-1.664,1.78c-0.666,1.228-1.003,1.817-1.713,2.811
			c-1.407,1.96-3.325,3.411-4.877,4.187c-0.576,0.288-2.107,1.007-3.852,1.418c-2.115,0.505-3.662,0.356-4.592-0.438
			c-0.727-0.616-1.044-1.606-0.941-2.941c0.002-0.134,0.034-0.538,0.134-1.886l0.005-0.066l0.036-0.054
			c0.278-0.435,0.62-0.928,1.006-1.487c1.516-2.179,3.588-5.169,5.368-9.426c2.897-7.122,4.048-13.813,3.08-17.901
			c-0.639-2.686-2.314-5.672-6.66-4.643c-2.699,0.641-4.938,2.628-6.654,5.912c-1.691,3.21-2.996,10.75-3.004,10.827
			c-0.203,1.177-0.459,3.097-0.572,4.283l-1.498,15.667c-0.105,0.227-0.18,0.459-0.214,0.703l-0.017,0.078
			c-0.855,4.834-3.088,8.125-5.967,8.806c-0.223,0.052-0.522,0.122-0.852,0.116H131.1l-0.08-0.114
			c-1.117-1.719-2.09-2.44-2.096-2.448c-1.034-0.744-1.799-2.392-1.709-3.664l0.141-1.953l0.034-0.055
			c0.284-0.436,0.622-0.928,1.011-1.484c1.516-2.185,3.586-5.17,5.369-9.431c2.894-7.121,4.044-13.812,3.076-17.898
			c-0.634-2.688-2.309-5.674-6.657-4.643c-2.698,0.642-4.937,2.629-6.651,5.913c-1.695,3.207-2.994,10.75-3.008,10.825
			c-0.2,1.179-0.459,3.1-0.569,4.279l-1.373,14.471l-0.022-0.002c-0.07,0.574-0.186,1.223-0.294,1.805l-0.038,0.185
			c-0.783,3.726-2.771,6.302-5.309,6.905c-0.178,0.039-0.354,0.071-0.533,0.093l-0.36,0.04l0.077-0.352
			c1.084-5.111,1.184-9.223,0.3-12.934c-0.646-2.72-2.521-7.1-7.827-5.84c-8.373,1.985-13.941,13.936-13.136,22.891l-0.01,0.102
			c-0.616,1.993-2.28,6.691-4.466,7.208c-0.455,0.106-0.902,0.024-1.339-0.253c-1.933-1.236-3.114-6.219-3.535-8.301l-0.036-0.172
			l0.145-0.094c4.541-3.074,6.778-7.994,5.705-12.531c-0.702-2.948-2.991-4.187-6.295-3.405c-3.283,0.78-6.398,5.17-6.428,5.212
			c-1.271,1.812-1.286,1.815-1.409,1.845l-0.242,0.057l-0.066-0.243c-0.012-0.056-0.02-0.08,0.186-2.287
			c0.23-2.466,0.621-4.913,0.967-7.365c0.666-4.718,2.938-13.692-5.012-12.387c-4.578,0.752-3.864,6.445-4.29,10.057
			c-0.521,4.428-0.599,8.898-1.004,13.323c-0.801,8.733-1.798,21.013-2.104,29.738c-0.123,3.43-2.174,12.48,4.375,9.404
			c4.239-1.994,5.765-7.996,5.407-12.291c-0.327-3.779-0.036-10.877,0.339-14.707c0.05-0.513,0.091-1.082,0.136-1.691
			c0.154-2.278,0.347-5.113,1.294-7.346c0.566-1.396,1.73-3.023,3.316-3.402c0.83-0.197,1.896,0.025,2.194,1.293
			c0.808,3.393-3.017,7.277-5.944,8.918c0.593,5.416,3.737,17.427,11.592,15.377c3.438-0.9,6.144-7.878,7.393-10.828l0.23-0.541
			l0.24,0.531c1.075,2.322,3.653,6.021,8.904,4.776c4.294-1.019,7.146-3.978,9.53-9.888l0.057-0.14l0.146-0.019
			c2.303-0.32,4.242-1.316,5.771-2.955L117.711,52.084z M146.3,71.598c-0.657,0.152-1.517,0.019-1.881-1.518l-0.237-1.048
			c0.053-1.144,0.179-3.057,0.287-4.259l1.333-15.179c0.2-2.25,2.713-2.075,3.623-0.342c0.817,1.556,0.505,4.337,0.519,6.058
			c0.031,4.26-0.148,8.803-1.404,12.906C148.2,69.33,147.633,71.281,146.3,71.598 M126.477,76.295
			c-0.652,0.156-1.515,0.02-1.879-1.514l-0.236-1.049c0.049-1.154,0.18-3.066,0.287-4.262l1.336-15.176
			c0.081-0.922,0.604-1.607,1.365-1.789c3.712-0.879,2.809,7.675,2.75,9.702c-0.101,3.755-0.307,7.829-1.606,11.396
			C128.146,74.551,127.605,76.028,126.477,76.295 M103.98,58.851c-0.57,0.134-1.072,0.071-1.497-0.188
			c-0.858-0.53-1.142-1.741-1.331-2.539l-0.023-0.107c-0.76-3.215,0-17.889,4.682-18.997c0.553-0.132,1.037-0.07,1.443,0.179
			c0.838,0.52,1.124,1.742,1.313,2.554l0.03,0.117c0.25,1.065,0.32,2.185,0.206,3.427l-0.012,0.129l-0.105,0.068
			c-2.837,1.757-4.09,5.006-3.267,8.483c0.324,1.354,0.846,2.312,1.598,2.925l0.127,0.104l-0.041,0.159
			C106.807,56.337,105.999,58.369,103.98,58.851 M148.701,28.674c-0.108,0.027-0.22,0-0.308-0.077
			c-0.121-0.104-0.24-0.321-0.17-1.137l1.13-13.113c0.249-3.137,0.936-6.97,2.777-7.404c1.229-0.292,1.511,0.913,1.703,1.706
			c0.629,2.68-0.269,8.277-0.934,10.527c-0.29,0.957-3.389,8.263-3.518,8.573C149.064,28.497,148.857,28.64,148.701,28.674
			 M128.879,33.373c-0.109,0.028-0.22,0-0.307-0.074c-0.121-0.107-0.238-0.323-0.167-1.136l1.128-13.117
			c0.251-3.135,0.932-6.968,2.773-7.402c1.231-0.293,1.514,0.911,1.703,1.705c0.635,2.683-0.269,8.281-0.93,10.526
			c-0.295,0.958-3.393,8.262-3.523,8.573C129.243,33.196,129.038,33.34,128.879,33.373"/>
		<path fill="#010101" d="M59.58,22.601c-1.757-7.408-9.403-8.207-12.612-8.207c-1.623,0-3.284,0.19-4.791,0.546
			c-0.5,0.118-0.984,0.249-1.467,0.385c-0.436,1.479-1.746,2.449-4.112,1.861c1.955,0.751,1.827,1.868,1.341,3.55
			c-1.019,3.479-4.332,3.752-7.409,3.172c1.143,2.207,1.972,4.496,0.82,6.899c-1.131,2.362-5.08,2.765-6.746,0.854
			c0.24,1.078-0.266,2.31-0.612,3.376c-0.354,1.092-0.954,1.737-1.687,2.091c-0.059,2.233,0.177,4.561,0.743,6.959
			c1.285,5.413,4.696,10.101,8.31,15.064c3.819,5.251,7.774,10.688,9.345,17.327c2.447,10.313,0.9,22.319-10.765,25.087
			c-1.11,0.262-2.239,0.396-3.356,0.396c-2.889,0-5.582-0.897-7.582-2.527c-2.347-1.918-3.592-4.709-3.504-7.862
			c0.223-7.173,8.582-9.157,11.732-9.903c1.498-0.355,2.768-1.275,3.578-2.59c0.811-1.315,1.061-2.865,0.704-4.362
			c-0.209-0.894-0.616-1.698-1.214-2.403l-0.053-0.072c-0.062-0.115-0.13-0.204-0.214-0.281l-0.125-0.123
			c-0.093-0.068-0.21-0.151-0.327-0.232c-1.059-0.861-2.356-1.327-3.676-1.327H25.85c-0.624-0.077-1.269-0.118-1.938-0.118
			c-1.836,0-3.964,0.286-6.326,0.847c-4.852,1.149-9.363,4.16-12.391,8.259c-3.271,4.436-4.413,9.658-3.215,14.71
			c2.903,12.246,15.365,13.565,20.587,13.565c2.589,0,5.226-0.3,7.628-0.871c9.84-2.331,17.436-7.264,21.973-14.269
			c4.538-6.998,5.757-15.662,3.533-25.058c-2.279-9.605-6.376-14.428-10.334-19.089c-3.314-3.904-6.44-7.586-7.877-13.647
			c-0.735-3.11-0.725-6.192,0.037-8.677c0.896-2.914,2.754-4.783,5.381-5.403c0.409-0.101,0.826-0.147,1.229-0.147
			c3.361,0,5.713,3.378,5.791,6.531c0.042,1.667-0.934,2.532-1.793,3.294c-0.88,0.783-1.64,1.459-1.324,2.873
			c0.457,2.017,2.126,2.442,3.448,2.442c0.521,0,1.071-0.068,1.631-0.196c2.572-0.6,4.81-2.242,6.284-4.626
			C59.7,28.234,60.216,25.283,59.58,22.601"/>
	</g>
</g>
</svg>
