<?xml version="1.0" encoding="utf-8"?>
<!-- Generator: Adobe Illustrator 16.0.0, SVG Export Plug-In . SVG Version: 6.00 Build 0)  -->
<!DOCTYPE svg PUBLIC "-//W3C//DTD SVG 1.1//EN" "http://www.w3.org/Graphics/SVG/1.1/DTD/svg11.dtd">
<svg version="1.1" id="Layer_1" xmlns="http://www.w3.org/2000/svg" xmlns:xlink="http://www.w3.org/1999/xlink" x="0px" y="0px"
	 width="80px" height="80px" viewBox="0 0 80 80" enable-background="new 0 0 80 80" xml:space="preserve">
<g>
	<g>
		<path fill-rule="evenodd" clip-rule="evenodd" fill="#524741" d="M78.498,34.035c-0.587-2.774-1.117-5.436-2.068-7.843
			C70.992,12.454,58.066,0.683,38.596,0.984c-0.575,0.028-1.149,0.058-1.724,0.086c-1.695,0.244-3.39,0.488-5.085,0.732
			C27.365,2.936,23.23,4.294,19.85,6.5C10.889,12.35,4.608,19.963,1.796,32.01C0.772,36.391,0.485,42.773,1.58,47.394
			c0.738,3.114,1.613,5.958,2.758,8.575c1.197,2.737,2.66,5.077,4.309,7.325c0.437,0.596,0.801,1.316,1.379,1.767
			c0.057,0.015,0.114,0.029,0.172,0.043c0.558-0.408,0.302-1.876,0.302-2.844V34.553c0-4.605-0.117-9.307,0.991-12.756
			c1.958-6.094,6.465-10.304,12.496-12.367c3.137-1.072,7.886-1.296,11.247-0.215c2.382,0.766,4.478,1.844,6.291,3.188
			c3.672,2.724,6.322,6.905,7.369,12.238c0.232,1.187,0.488,2.845,0.258,4.223c-0.094,0.562-0.301,1.415-0.172,1.939
			c0.071,0.086,0.145,0.173,0.216,0.259c1.509,0.274,3.569-0.267,5.171,0.043c6.052,1.169,10.239,3.938,13.229,8.145
			c1.222,1.717,2.059,3.748,2.801,5.945c1.085,3.21,0.805,7.91-0.215,10.902c-2.01,5.891-5.6,10.067-11.16,12.367
			c-3.536,1.463-8.245,1.466-13.359,1.465H18.817c-0.886,0-2.719-0.27-3.275,0.087c-0.103,0.071-0.112,0.104-0.173,0.216
			c0.317,0.668,1.198,1.036,1.767,1.465c1.769,1.332,3.719,2.543,5.861,3.49c2.904,1.285,5.992,2.479,9.523,3.232
			c3.055,0.65,7.337,1.061,10.73,0.473c2.137-0.369,3.96-0.378,5.859-0.861c6.559-1.668,11.588-4.656,16.16-8.273
			c1.615-1.278,3.113-2.905,4.395-4.524c4.01-5.068,7.06-10.422,8.575-18.099C78.976,43.407,79.344,38.035,78.498,34.035z
			 M25.237,26.753c-0.431,0.058-0.862,0.114-1.293,0.173c-1.79,0.555-3.115,1.779-3.706,3.533c-1.269,3.771,2.25,7.361,5.903,6.766
			C32.564,36.177,32.171,26.754,25.237,26.753z M25.797,35.586c-2.881,0.491-4.479-2.635-3.577-5.127
			c0.454-1.254,1.514-1.523,2.758-2.025C29.952,28.347,30.117,34.852,25.797,35.586z M15.628,27.055
			c-0.223-0.165-0.842-0.09-1.207-0.086c-0.716,0.549-0.388,6.021-0.388,7.627c0,0.621-0.178,1.91,0.13,2.283
			c0.247,0.397,1.581,0.216,2.197,0.216c1.731,0,4.203,0.681,3.663-1.465c-0.899-0.527-2.978-0.068-4.05-0.259
			c-0.507-0.886-0.035-5.102-0.172-6.551C15.75,28.294,16.025,27.349,15.628,27.055z M37.906,27.055
			c-0.415,0.642-0.584,1.374-0.905,2.154c-0.527,1.28-1.166,2.614-1.551,4.008c-0.043,0.028-0.086,0.057-0.129,0.086
			c-0.373-0.338-0.398-1.092-0.604-1.594c-0.604-1.473-1.103-3.328-1.939-4.654c-0.36-0.092-0.897-0.096-1.379-0.086
			c-0.628,0.484,0.101,1.716,0.388,2.413c0.775,1.924,1.551,3.849,2.327,5.774c0.254,0.605,0.374,1.838,1.077,1.981
			c0.124,0.045,0.19,0.021,0.302-0.043c0.532-0.257,0.716-1.464,0.948-2.025c0.747-1.866,1.493-3.734,2.241-5.602
			c0.142-0.329,0.829-1.87,0.732-2.198C39.286,26.834,38.32,26.928,37.906,27.055z M45.878,28.348
			c0.101-0.408,0.071-0.842-0.042-1.207c-0.801-0.453-3.898-0.186-5.129-0.172c-0.544,0.466-0.388,1.582-0.388,2.585v4.783
			c0,0.831-0.072,1.85,0.086,2.542c0.372,0.258,5.468,0.41,5.903,0.086c0.22-0.162,0.225-0.834,0.129-1.163
			c-0.332-0.715-3.142-0.272-4.137-0.431c-0.268-0.488-0.143-1.658-0.129-2.37c0.871-0.509,4.561,0.542,2.93-1.767
			c-2.211-0.488-3.42,1.104-2.887-2.543C43.119,28.211,45.055,28.869,45.878,28.348z M38.035,38.904
			c-0.33,0.043-0.661,0.087-0.991,0.13c-0.67,0.163-1.287,0.527-1.767,0.905c-1.612,1.268-1.168,4.304,0.259,5.386
			c0.682,0.517,3.833,1.38,3.405,2.542c-0.739,1.95-4.148-0.486-4.912-0.388c-0.208,0.395-0.081,1.013,0,1.466
			c0.08,0.453-0.002,0.976,0.215,1.292c1.021,1.485,5.442,1.013,6.679,0.087c0.425-0.318,0.74-0.841,0.948-1.379
			c0.896-2.315-0.406-4.13-1.896-4.999c-0.836-0.487-1.842-0.683-2.585-1.206c-0.065-0.225-0.123-0.441,0-0.647
			c0.639-1.295,2.75,0.135,3.576-0.043c0.206-0.346,0.129-0.821,0.217-1.335C41.468,39.039,39.656,38.855,38.035,38.904z
			 M13.947,42.05v6.163c0,0.854-0.106,1.996,0.172,2.585c0.657,0.231,2.14,0.203,2.801,0c0.321-0.508,0.172-1.75,0.172-2.542v-6.249
			c0-0.698,0.215-2.321-0.215-2.628c-0.378-0.354-1.812-0.189-2.5-0.172c-0.058,0.043-0.115,0.085-0.172,0.128
			C13.726,39.64,13.947,41.299,13.947,42.05z M18.946,50.668c0.296,0.506,2.443,0.32,2.844,0.044
			c0.272-1.115,0.095-2.778,0.086-4.051c0.072-0.043,0.144-0.086,0.216-0.13h0.388c0.35,0.175,0.437,0.504,0.646,0.819
			c0.388,0.583,2.092,3.262,2.542,3.491c0.358,0.027,0.718,0.057,1.077,0.086c0.632-0.016,1.264-0.029,1.896-0.043
			c0.451-0.288-0.251-1.105-0.388-1.293c-0.855-1.172-2.077-2.397-2.672-3.75c0.342-0.615,1-0.938,1.293-1.637
			c0.306-0.732,0.3-1.797,0.043-2.543c-0.948-2.75-3.952-2.51-7.67-2.455c-0.562,0.479-0.431,1.498-0.431,2.542v6.291
			C18.817,48.725,18.602,50.248,18.946,50.668z M21.876,41.964c0.042-0.058,0.086-0.114,0.129-0.172
			c1.083-0.048,1.925,0.024,2.112,0.862c0.253,1.134-1.062,1.338-2.069,1.292C21.79,43.547,21.859,42.627,21.876,41.964z
			 M29.46,42.137v5.73c0,0.949-0.086,2.142,0.129,2.888c0.569,0.371,2.469,0.253,2.93-0.087c0.18-0.792,0.087-1.951,0.087-2.887
			v-5.688c0-0.946,0.201-2.415-0.345-2.843c-0.819-0.016-1.638-0.029-2.457-0.043C29.281,39.726,29.46,41.111,29.46,42.137z
			 M46.524,43.645c-0.522-1.188,0.472-3.688-0.431-4.395c-0.805-0.016-1.609-0.029-2.414-0.043c-0.114,0.1-0.229,0.2-0.344,0.301
			c-0.181,0.793-0.086,1.952-0.086,2.887v5.646c0,0.948-0.205,2.416,0.344,2.845c0.346,0.014,0.689,0.027,1.035,0.043
			c0.502-0.016,1.004-0.029,1.508-0.043c0.712-0.365,0.017-3.324,0.345-4.224c0.215-0.341,3.247-0.266,3.878-0.173
			c0.572,1.075-0.285,3.371,0.345,4.354c0.653,0.164,2.021,0.181,2.672,0c0.362-0.591,0.173-1.722,0.173-2.629V42.05
			c0-0.74,0.259-2.328-0.131-2.715c-0.445-0.442-2.523-0.099-2.843,0.13c-0.249,1.05,0.247,3.074-0.13,4.051
			C50.242,43.832,47.074,43.778,46.524,43.645z M26.229,63.381c6.457-1.113,6.038-10.637-1.293-10.515L23.6,53.168
			c-1.631,0.653-2.688,1.746-3.318,3.404C18.875,60.275,22.69,63.99,26.229,63.381z M22.221,56.658
			c0.553-1.388,1.57-1.544,2.93-2.154c4.664-0.072,4.997,6.386,0.991,7.195C23.206,62.293,21.146,59.355,22.221,56.658z
			 M36.484,52.866c-0.445,0.101-0.891,0.201-1.335,0.302c-1.411,0.567-2.587,1.602-3.146,3.017
			c-1.517,3.838,1.829,7.877,5.817,7.196C44.272,62.278,43.846,52.744,36.484,52.866z M37.389,61.742
			c-2.644,0.448-4.566-2.596-3.62-4.998c0.566-1.438,1.544-1.633,2.973-2.24C41.493,54.438,41.763,61.002,37.389,61.742z
			 M15.8,59.071c0.695-0.397,2.238,0.168,2.973-0.216c0.32-0.192,0.486-1.213,0.086-1.465c-0.962-0.015-1.925-0.028-2.887-0.043
			c-0.416-0.16-0.229-2.003-0.172-2.499c0.815-0.472,2.788,0.003,3.749-0.216c0.148-0.24,0.31-1.004,0.086-1.336
			c-0.268-0.422-4.245-0.23-5.171-0.258c-0.072,0.028-0.144,0.057-0.215,0.086c-0.537,0.277-0.302,1.973-0.302,2.758v5.214
			c0,0.577-0.141,1.629,0.129,1.981c0.178,0.232,0.983,0.229,1.335,0.13C16.06,62.887,15.731,60.061,15.8,59.071z M43.379,62.992
			c0.614,0.359,1.48,0.046,2.326,0.172c3.292,0.496,6.787-2.105,6.249-5.472c-0.624-3.905-3.299-4.714-7.8-4.653
			c-0.314,0.125-0.588,0.11-0.818,0.258c-0.402,1.661-0.086,4.455-0.086,6.334C43.25,60.713,43.123,62.124,43.379,62.992z
			 M45.188,54.849l0.173-0.173c2.113-0.035,3.499,0.35,4.266,1.639c1.823,3.061-1.199,5.715-4.352,5.256
			c-0.4-0.668-0.13-3.902-0.13-5.085C45.146,55.98,45.035,55.146,45.188,54.849z"/>
	</g>
</g>
</svg>
