<?xml version="1.0" encoding="utf-8"?>
<!-- Generator: Adobe Illustrator 16.0.0, SVG Export Plug-In . SVG Version: 6.00 Build 0)  -->
<!DOCTYPE svg PUBLIC "-//W3C//DTD SVG 1.1//EN" "http://www.w3.org/Graphics/SVG/1.1/DTD/svg11.dtd">
<svg version="1.1" id="Layer_1" xmlns="http://www.w3.org/2000/svg" xmlns:xlink="http://www.w3.org/1999/xlink" x="0px" y="0px"
	 width="30px" height="30px" viewBox="0 0 30 30" enable-background="new 0 0 30 30" xml:space="preserve">
<path fill-rule="evenodd" clip-rule="evenodd" fill="#524741" d="M10.51,7.923c0.627-0.267,1.252-0.537,1.879-0.804
	c0.165-0.122,0.633-0.136,0.769-0.305c0.145-0.021,0.467-0.089,0.558-0.202c0.618-0.108,1.077-0.391,1.667-0.509
	c1.122-0.221,2.483-0.569,3.567-0.598c0.011,0.001,0.292-0.07,0.294-0.074c0.46,0.104,0.925-0.089,1.435,0.028
	c0.045-0.013,0.088-0.025,0.133-0.039c0.062-0.007,0.306,0.015,0.378,0.023c0.01-0.004,0.017-0.008,0.023-0.011
	c0.361,0.1,0.605,0.073,0.923,0.154c0.082,0.02,0.168-0.033,0.22-0.026c0.114,0.041,0.231,0.081,0.346,0.121
	c0.509,0.11,1.173,0.161,1.668,0.448c0.115,0.067,0.288,0.086,0.415,0.125c0.047,0.037,0.092,0.076,0.138,0.11
	c0.19,0.075,0.38,0.146,0.57,0.219c1.504,0.86,3.851,2.684,3.595,5.092c-0.061,0.569-0.68,1.265-1.021,1.562
	c-0.203,0.178-0.366,0.33-0.616,0.531c-0.199,0.162-0.43,0.211-0.598,0.373c-0.16,0.149-0.562,0.195-0.71,0.345
	c-0.075,0.022-0.15,0.044-0.228,0.068c-0.242,0.098-0.488,0.193-0.734,0.288c-0.146,0.007-0.36,0.054-0.453,0.111
	c-0.072,0.047-0.229,0.037-0.258,0.031c-0.01,0.01-0.02,0.018-0.027,0.027c0,0-0.436,0.075-0.441,0.106
	c-0.161-0.037-0.506-0.01-0.65,0.04c-0.024-0.002-0.048-0.003-0.071-0.005c-0.063-0.018-0.409-0.062-0.417-0.045
	c-0.322-0.084-0.607-0.264-0.905-0.423c-0.094-0.052-0.161-0.203-0.261-0.283c-0.51-0.406-0.771-1.122-1.207-1.672
	c-0.222-0.28-0.295-0.736-0.54-0.912c-0.068-0.123-0.136-0.245-0.204-0.366c-0.188-0.212-0.423-0.6-0.675-0.741
	c-0.066-0.025-0.134-0.052-0.202-0.08c-0.053-0.043-0.104-0.083-0.158-0.126c-0.212-0.041-0.506-0.013-0.67-0.059
	c-0.018-0.004-0.395,0.108-0.438,0.117c-0.33,0.069-0.968,0.172-1.17,0.322c-0.097,0.073-0.407,0.052-0.459,0.181
	c-0.254-0.052-1.389,0.585-1.825,0.722c-0.106,0.035-0.835,0.299-0.867,0.381c-0.148-0.009-0.86,0.336-0.996,0.429
	c-0.228,0.104-0.453,0.21-0.681,0.315c-0.003,0.004-0.068,0.031-0.04,0.005c-0.256,0.058-0.68,0.43-0.856,0.402
	c-0.112-0.018-0.992,0.584-1.218,0.591c-0.085,0.084-0.548,0.358-0.62,0.358c-0.039,0.042-0.343,0.284-0.399,0.274
	c-0.266,0.387-0.782,0.681-0.853,1.291c-0.183,1.654,1.558,3.162,1.729,4.741c0.126,1.168-0.548,2-1.23,2.565
	c-0.203,0.171-0.517,0.446-0.765,0.538c-0.075,0.028-0.534,0.316-0.427,0.247c-0.039,0.008-0.141,0.098-0.171,0.124
	c-0.131,0.114-0.685,0.36-0.836,0.392c-0.087,0.02-0.634,0.27-0.685,0.307c-0.012,0.012-0.027,0.021-0.039,0.033
	c-0.013-0.009-0.027-0.016-0.04-0.023c-0.019-0.003-0.563,0.167-0.668,0.201c-0.011,0.012-0.025,0.023-0.038,0.032
	c-0.339-0.067-0.658,0.032-1.132-0.188c-0.077-0.035-0.122-0.128-0.172-0.16c-0.142-0.092-0.29-0.184-0.438-0.255
	c-0.109-0.054-0.399-0.431-0.549-0.593c-0.491-0.539-1.263-1.78-1.39-2.581c-0.134-0.86-0.143-1.539-0.067-2.31
	c-0.009-0.064-0.016-0.126-0.024-0.191c0.026-0.087,0.054-0.172,0.078-0.258c0.065-0.758,0.383-1.896,0.769-2.56
	c0.06-0.101,0.333-0.784,0.4-0.782c0.093-0.116,0.413-0.825,0.51-0.81c0.211-0.363,0.63-1.022,0.9-1.19
	c0.006-0.012,0.014-0.023,0.022-0.037c0.071-0.123,0.151-0.231,0.263-0.331c0.135-0.125,0.681-0.777,0.812-0.778
	c0.184-0.218,0.314-0.361,0.529-0.546c0.018,0.003,0.038,0.002,0.055,0.002c0.121-0.064,0.249-0.221,0.323-0.32
	c0.053-0.068,0.174-0.084,0.244-0.147c0.218-0.189,0.601-0.415,0.745-0.608c0.046-0.059,0.276-0.163,0.366-0.257
	c0.095-0.104,0.29-0.164,0.376-0.24c0.12-0.066,0.236-0.132,0.356-0.199c0.074-0.084,0.357-0.314,0.504-0.313
	c0.096-0.109,0.345-0.264,0.46-0.263C8.76,8.729,9.198,8.657,9.573,8.39C9.79,8.235,10.405,8.126,10.51,7.923z"/>
</svg>
