<?xml version="1.0" encoding="utf-8"?>
<!-- Generator: Adobe Illustrator 16.0.0, SVG Export Plug-In . SVG Version: 6.00 Build 0)  -->
<!DOCTYPE svg PUBLIC "-//W3C//DTD SVG 1.1//EN" "http://www.w3.org/Graphics/SVG/1.1/DTD/svg11.dtd">
<svg version="1.1" id="Layer_1" xmlns="http://www.w3.org/2000/svg" xmlns:xlink="http://www.w3.org/1999/xlink" x="0px" y="0px"
	 width="30px" height="30px" viewBox="0 0 30 30" enable-background="new 0 0 30 30" xml:space="preserve">
<g>
	<g>
		<path fill-rule="evenodd" clip-rule="evenodd" fill="#231F20" d="M10.917,4.871c0.229,0.354,0.598,0.675,0.934,0.924
			c0.2,0.147,0.448,0.305,0.562,0.53c0.301,0.586-0.638,1.652-1.013,1.77c-0.002,0.015-0.007,0.03-0.012,0.045
			c0.154,0.259,0.308,0.519,0.462,0.777c0.073,0.034,0.507-0.366,0.562-0.417c0.381-0.334,1.137-1.226,1.005-2.029
			c-0.215-1.324-1.4-1.354-1.825-2.345c-0.349-0.812,0.192-1.643,0.958-1.668c-0.035-0.323-0.067-0.646-0.102-0.97
			c-1.213,0.23-2.295,1.243-1.803,2.807C10.708,4.49,10.811,4.708,10.917,4.871z M14.805,5.795c0.201,0.157,0.473,0.316,0.576,0.564
			c0.249,0.597-0.633,1.576-1.004,1.725c-0.062,0.149,0.354,0.644,0.416,0.823c0.012,0.008,0.023,0.015,0.035,0.023
			c0.693-0.36,2.04-1.855,1.386-3.033c-0.402-0.727-1.297-0.986-1.657-1.736c-0.207-0.433-0.09-1.044,0.157-1.33
			c0.195-0.226,0.48-0.239,0.769-0.384c0.051-0.063-0.066-0.775-0.069-0.958c-1.488,0.208-2.501,1.782-1.589,3.315
			C14.057,5.195,14.452,5.523,14.805,5.795z M17.544,5.627C17.8,5.819,18.116,6.01,18.29,6.28c0.402,0.634-0.629,1.638-0.992,1.826
			c0.045,0.24,0.344,0.616,0.475,0.823c0.005,0,0.021,0,0.021,0c0.779-0.554,2.158-1.942,1.229-3.269
			c-0.4-0.572-1.194-0.816-1.5-1.477c-0.379-0.825,0.14-1.684,0.912-1.725c0.031-0.127-0.023-0.796-0.078-0.914
			c-0.023-0.022-0.027-0.021-0.078-0.022c-0.184,0.049-0.368,0.098-0.552,0.146c-0.558,0.2-1.052,0.708-1.208,1.308
			C16.197,4.221,16.905,5.141,17.544,5.627z M25.898,16.178c-0.247-0.422-0.46-0.84-0.733-1.229
			c-0.379-0.541-0.868-0.972-1.341-1.42c-2.044-1.947-5.385-3.112-9.435-3.066l-1.028,0.067c-0.749,0.145-1.482,0.185-2.175,0.361
			c-2.379,0.607-4.314,1.7-5.781,3.224c-0.547,0.567-1.139,1.252-1.443,2.04c-0.089,0.041-0.207,0.008-0.328,0.035
			c-0.209,0.049-0.42,0.098-0.631,0.146c-0.824,0.287-1.382,0.938-1.682,1.758c-0.266,0.732-0.043,1.685,0.271,2.199
			c0.121,0.194,0.336,0.356,0.418,0.574c0.496,1.328,0.949,2.662,1.455,3.969c0.146,0.416,0.292,0.834,0.439,1.251
			c0.299,0.714,0.932,1.659,1.521,2.085c0.518,0.373,1.067,0.338,1.961,0.338h2.932c4.511-0.003,9.026-0.007,13.54-0.01
			c0.686-0.138,1.212-0.79,1.533-1.309c0.21-0.337,0.474-0.68,0.643-1.06c0.56-1.544,1.119-3.089,1.68-4.634
			c0.087-0.225,0.174-0.449,0.258-0.676c0.11-0.124,0.219-0.248,0.328-0.371c0.194-0.277,0.361-0.648,0.439-1.027
			C29.113,17.588,27.631,16.152,25.898,16.178z M26.823,21.172c-0.336,0.825-0.557,1.691-0.914,2.491
			c-0.079,0.237-0.156,0.474-0.236,0.71c-0.393,0.881-0.592,1.717-1.162,2.412c-0.223,0.273-0.42,0.596-0.754,0.756
			c-0.168,0.08-1.053,0.023-1.32,0.023h-3.245c-4.318-0.004-8.636-0.009-12.953-0.012C5.768,27.422,5.303,26.6,5.053,26.2
			c-0.228-0.367-0.366-0.776-0.529-1.229c-0.23-0.613-0.465-1.225-0.697-1.838c-0.096-0.277-0.188-0.555-0.283-0.834
			c-0.168-0.374-0.268-0.779-0.428-1.172c-0.096-0.229-0.258-0.507-0.281-0.778c0.057-0.011,0.11-0.022,0.168-0.034
			c8.034,0.004,16.07,0.008,24.102,0.012C27.155,20.45,26.882,21.024,26.823,21.172z M27.781,19.334
			c-0.187,0.114-1.509,0.045-1.859,0.045H21.04c-6.263-0.004-12.528-0.007-18.794-0.011c-0.182-0.306-0.066-0.872,0.058-1.139
			c0.291-0.624,0.717-0.974,1.5-1.104c0.269-0.045,0.498,0.066,0.743,0.078c0.069-0.173,0.136-0.346,0.204-0.518
			c0.212-0.438,0.459-0.889,0.756-1.252c1.412-1.725,3.106-2.669,5.443-3.483c0.668-0.232,1.426-0.314,2.176-0.44
			c0.42-0.034,0.843-0.067,1.264-0.101c3.941,0,6.399,0.983,8.614,2.683c0.967,0.744,1.902,1.818,2.286,3.123
			c0.169,0.086,0.674-0.15,1.003-0.08c0.869,0.188,1.388,0.699,1.546,1.59C27.881,18.965,27.79,19.141,27.781,19.334z
			 M11.546,13.856c-0.106,0.041-0.218,0.082-0.325,0.124c-0.409,0.24-0.707,0.559-0.937,0.981c-0.098,0.18-0.137,0.599,0.056,0.697
			c0.204,0.104,0.486-0.005,0.633-0.09c0.43-0.246,0.793-0.543,0.989-1.014C12.139,14.14,12.051,13.842,11.546,13.856z
			 M18.301,13.856c-0.741,0.509,0.47,1.536,0.845,1.736c0.178,0.095,0.508,0.166,0.676,0.022c0.211-0.179,0.009-0.64-0.077-0.778
			C19.456,14.377,19.05,13.841,18.301,13.856z M14.998,14.588c-0.481,0.25-0.637,1.084-0.429,1.736
			c0.073,0.23,0.186,0.678,0.528,0.609C15.794,16.795,15.838,14.585,14.998,14.588z"/>
	</g>
</g>
</svg>
