<?xml version="1.0" encoding="utf-8"?>
<!-- Generator: Adobe Illustrator 16.0.0, SVG Export Plug-In . SVG Version: 6.00 Build 0)  -->
<!DOCTYPE svg PUBLIC "-//W3C//DTD SVG 1.1//EN" "http://www.w3.org/Graphics/SVG/1.1/DTD/svg11.dtd">
<svg version="1.1" id="Layer_1" xmlns="http://www.w3.org/2000/svg" xmlns:xlink="http://www.w3.org/1999/xlink" x="0px" y="0px"
	 width="30px" height="30px" viewBox="0 0 30 30" enable-background="new 0 0 30 30" xml:space="preserve">
<path fill-rule="evenodd" clip-rule="evenodd" fill="#231F20" d="M18.684,26.516H9.417l-0.232-0.044
	c-0.37-0.063-0.753-0.13-1.068-0.253c-2.394-0.94-3.938-2.717-4.352-5.004l0.003-0.254c-0.107-0.652-0.087-1.445-0.067-2.213
	c0.007-0.295,0.015-0.585,0.015-0.857l-0.012-1.236c-0.072-0.281-0.304-0.356-0.472-0.41c-0.04-0.014-0.078-0.025-0.111-0.039
	c-0.081-0.035-0.194-0.08-0.322-0.129c-0.335-0.131-1.033-0.402-1.15-0.565c-0.043-0.062-0.097-0.261-0.054-0.367
	c0.039-0.095,0.106-0.19,0.314-0.19c0.283,0,0.657,0.168,0.931,0.291l0.191,0.084c0.128,0.07,0.227,0.126,0.343,0.126
	c0.012-0.003,0.1-0.015,0.11-0.02c0.058-0.024,0.177-0.106,0.192-0.167c0.046-0.186,0.043-0.42,0.04-0.647l-0.001-0.153
	c0-0.91-0.077-1.535-0.473-2.034c-0.155-0.194-0.381-0.294-0.6-0.39c-0.394-0.173-0.655-0.287-0.523-0.848L2.236,10.8
	c0.166-0.445,0.636-0.889,1.193-1.117L4.181,9.51L4.41,9.362l0.384-0.284L5.638,8.55C6.2,8.213,6.869,7.896,7.805,7.526
	c0.502-0.198,1.026-0.351,1.581-0.512l0.573-0.17c0.081-0.024,0.178-0.039,0.276-0.054c0.208-0.033,0.424-0.066,0.584-0.177
	c0.163-0.113,0.229-0.342,0.288-0.543c0.021-0.069,0.039-0.136,0.061-0.186c0.166-0.376,0.452-0.732,0.683-1.018
	c0.356-0.445,1.137-0.96,1.737-1.147l0.751-0.18c0.037-0.006,0.082-0.008,0.127-0.01c0.088-0.005,0.188-0.01,0.292-0.055l0.03,0.016
	c1.589,0,2.812,0.586,3.633,1.742c0.182,0.252,0.338,0.528,0.452,0.799c0.018,0.043,0.03,0.093,0.045,0.145
	c0.04,0.148,0.091,0.333,0.241,0.437c0.157,0.109,0.371,0.144,0.578,0.177c0.098,0.015,0.192,0.029,0.271,0.054
	c0.207,0.063,0.419,0.122,0.631,0.181c0.384,0.105,0.77,0.211,1.126,0.351c0.953,0.375,1.804,0.722,2.558,1.167
	c0.27,0.159,0.526,0.34,0.779,0.519c0.197,0.139,0.392,0.275,0.59,0.401l0.459,0.123l0.394,0.096
	c0.442,0.175,1.005,0.598,1.202,1.131l0.096,0.356c0.134,0.563-0.103,0.702-0.565,0.918c-0.166,0.077-0.337,0.157-0.478,0.273
	c-0.367,0.303-0.547,0.937-0.547,1.936l-0.006,0.227c-0.013,0.304-0.026,0.617,0.086,0.816c0.026,0.047,0.07,0.081,0.122,0.096
	c0.017,0.004,0.107,0.016,0.125,0.016c0.211,0,0.454-0.115,0.735-0.25c0.267-0.125,0.568-0.27,0.785-0.27
	c0.103,0,0.208,0.026,0.283,0.213c0.043,0.107,0.049,0.195,0.016,0.268c-0.076,0.178-0.372,0.293-0.589,0.377l-0.159,0.064
	l-0.753,0.332c-0.035,0.016-0.079,0.029-0.124,0.045c-0.181,0.059-0.403,0.131-0.484,0.332c-0.074,0.184-0.066,0.482-0.046,0.885
	c0.005,0.105,0.009,0.201,0.009,0.274v3.027l-0.104,0.856c-0.28,1.126-0.869,1.977-1.408,2.658
	c-0.746,0.943-2.192,1.824-3.519,2.141c-0.446,0.107-1,0.121-1.484,0.121L18.684,26.516z M4.673,10.209
	c-0.026,0-0.054,0.006-0.079,0.017c-0.047,0.021-0.128,0.022-0.213,0.024c-0.097,0.003-0.194,0.007-0.29,0.029
	C3.68,10.375,2.982,10.67,2.97,11.178c0.124,0.288,0.341,0.41,0.532,0.519c0.082,0.046,0.162,0.09,0.22,0.136
	c0.318,0.255,0.555,0.762,0.702,1.504c0.089,0.452,0.078,1.021,0.067,1.57c-0.004,0.182-0.007,0.362-0.007,0.537v5.561
	c0.192,1.008,0.55,1.779,1.2,2.614c0.812,1.04,2.005,1.75,3.547,2.111c0.289,0.067,0.642,0.099,1.114,0.099
	c0.239,0,0.482-0.008,0.724-0.016c0.229-0.007,0.455-0.014,0.668-0.014h4.723c0.355,0,0.726,0.007,1.101,0.014
	c0.39,0.008,0.785,0.016,1.175,0.016c1.015,0,2.165-0.045,3.005-0.376c1.449-0.571,2.626-1.636,3.313-2.994
	c0.442-0.872,0.441-1.759,0.44-2.985v-4.266c0-0.159-0.004-0.323-0.007-0.488c-0.01-0.478-0.021-0.972,0.058-1.373
	c0.106-0.549,0.354-1.24,0.731-1.533c0.043-0.033,0.114-0.074,0.191-0.12c0.257-0.15,0.431-0.261,0.499-0.401
	c0.05-0.106,0.048-0.221-0.003-0.333c-0.154-0.342-0.763-0.581-0.905-0.623c-0.409-0.117-0.914-0.127-1.355-0.127L4.673,10.209z
	 M22.172,9.494c0.077,0,0.175,0.004,0.284,0.008c0.137,0.006,0.289,0.012,0.435,0.012c0.33,0,0.522-0.03,0.646-0.099
	c0.062-0.036,0.102-0.103,0.102-0.175c-0.069-0.261-0.245-0.332-0.361-0.379c-0.032-0.013-0.064-0.025-0.092-0.041
	c-0.307-0.179-0.647-0.316-0.979-0.45l-0.342-0.141c-1.928-0.816-4.346-1.249-6.993-1.25c-0.117,0.033-0.196,0.053-0.37,0.053
	c-0.098,0-0.201-0.006-0.3-0.011c-0.095-0.006-0.186-0.011-0.264-0.011l-1.433,0.119L10.56,7.463C9.618,7.7,8.786,7.962,8.066,8.25
	c-0.428,0.17-0.84,0.345-1.229,0.544C6.599,8.894,6.39,8.98,6.336,9.191C6.32,9.259,6.339,9.332,6.389,9.381
	C6.416,9.408,6.47,9.448,6.505,9.456C6.665,9.494,6.86,9.512,7.12,9.512c0.138,0,0.278-0.005,0.417-0.01
	c0.128-0.005,0.252-0.009,0.369-0.009H22.172z M14.55,4.262c-0.206,0.07-0.342,0.098-0.476,0.125
	c-0.148,0.03-0.295,0.062-0.428,0.116c-0.523,0.215-0.902,0.567-1.215,0.881c-0.378,0.382-0.521,0.682-0.425,0.891
	c0.026,0.057,0.078,0.099,0.14,0.111c0.054,0.012,0.108,0.018,0.167,0.018c0.103,0,0.203-0.019,0.298-0.038l0.403-0.007
	c0.181-0.026,0.362-0.04,0.546-0.054c0.198-0.015,0.396-0.03,0.559-0.057l1.771,0.003c0.154,0.027,0.322,0.054,0.536,0.054
	c0.081,0,0.229,0.016,0.397,0.033c0.239,0.025,0.518,0.054,0.72,0.054c0.207,0,0.36-0.025,0.438-0.147
	c0.024-0.04,0.035-0.088,0.029-0.135c-0.045-0.325-0.314-0.585-0.51-0.774l-0.083-0.079c-0.744-0.743-1.465-0.994-2.86-0.994H14.55z
	"/>
</svg>
