<?xml version="1.0" encoding="utf-8"?>
<!-- Generator: Adobe Illustrator 16.0.0, SVG Export Plug-In . SVG Version: 6.00 Build 0)  -->
<!DOCTYPE svg PUBLIC "-//W3C//DTD SVG 1.1//EN" "http://www.w3.org/Graphics/SVG/1.1/DTD/svg11.dtd">
<svg version="1.1" id="Layer_1" xmlns="http://www.w3.org/2000/svg" xmlns:xlink="http://www.w3.org/1999/xlink" x="0px" y="0px"
	 width="6px" height="10px" viewBox="0 0 6 10" enable-background="new 0 0 6 10" xml:space="preserve">
<path fill="#231F20" d="M5.852,4.917C5.793,4.199,4.413,2.953,3.938,2.375C3.195,1.472,2.093-0.469,0.791,0.466
	c-1.019,0.731-0.635,1.551-0.188,2.436C0.917,3.525,1.23,4.147,1.545,4.771c0.188,0.375-0.16,0.747-0.337,1.106
	C0.688,6.934-0.463,8.336,0.612,9.346c0.783,0.735,1.492,0.468,2.104-0.248c0.507-0.592,0.954-1.175,1.449-1.776
	C4.626,6.763,5.932,5.587,5.852,4.917z"/>
</svg>
