<?xml version="1.0" encoding="utf-8"?>
<!-- Generator: Adobe Illustrator 16.0.0, SVG Export Plug-In . SVG Version: 6.00 Build 0)  -->
<!DOCTYPE svg PUBLIC "-//W3C//DTD SVG 1.1//EN" "http://www.w3.org/Graphics/SVG/1.1/DTD/svg11.dtd">
<svg version="1.1" id="Layer_1" xmlns="http://www.w3.org/2000/svg" xmlns:xlink="http://www.w3.org/1999/xlink" x="0px" y="0px"
	 width="30px" height="30px" viewBox="0 0 30 30" enable-background="new 0 0 30 30" xml:space="preserve">
<g>
	<path fill="#524741" d="M11.099,10.553c0-0.278,0.227-0.505,0.505-0.505h5.718c0.279,0,0.506-0.227,0.506-0.505V4.45
		c0-0.278-0.227-0.505-0.506-0.505H1.499c-0.278,0-0.505,0.227-0.505,0.505v10.432c0,0.278,0.227,0.505,0.505,0.505h1.683
		c0.278,0,0.505,0.227,0.505,0.505v3.307c0,0.277,0.167,0.35,0.37,0.161l3.91-3.629c0.204-0.189,0.597-0.344,0.875-0.344h1.75
		c0.278,0,0.505-0.227,0.505-0.505V10.553z"/>
	<path fill="#524741" d="M29.006,12.532c0-0.278-0.227-0.505-0.504-0.505H13.62c-0.278,0-0.505,0.227-0.505,0.505v9.764
		c0,0.277,0.227,0.505,0.505,0.505h7.134c0.277,0,0.676,0.15,0.883,0.333l4.299,3.785c0.207,0.184,0.379,0.106,0.379-0.171v-3.442
		c0-0.278,0.227-0.505,0.504-0.505h1.684c0.277,0,0.504-0.228,0.504-0.505V12.532z"/>
</g>
</svg>
