<?xml version="1.0" encoding="utf-8"?>
<!-- Generator: Adobe Illustrator 16.0.0, SVG Export Plug-In . SVG Version: 6.00 Build 0)  -->
<!DOCTYPE svg PUBLIC "-//W3C//DTD SVG 1.1//EN" "http://www.w3.org/Graphics/SVG/1.1/DTD/svg11.dtd">
<svg version="1.1" id="Layer_1" xmlns="http://www.w3.org/2000/svg" xmlns:xlink="http://www.w3.org/1999/xlink" x="0px" y="0px"
	 width="20.227px" height="20.092px" viewBox="0 0 20.227 20.092" enable-background="new 0 0 20.227 20.092" xml:space="preserve">
<path fill="#524741" d="M19.07,0H1.155C0.523,0,0,0.516,0,1.151v17.788c0,0.631,0.523,1.152,1.155,1.152h8.389h3.724h5.803
	c0.636,0,1.156-0.521,1.156-1.152V1.151C20.227,0.516,19.706,0,19.07,0z M15.788,7.416c0.009,0.12,0.011,0.238,0.011,0.363
	c0,3.734-2.861,8.039-8.093,8.039c-1.609,0-3.101-0.468-4.362-1.267c0.229,0.023,0.453,0.033,0.678,0.033
	c1.334,0,2.562-0.449,3.533-1.211c-1.244-0.014-2.293-0.836-2.655-1.955c0.175,0.031,0.353,0.049,0.534,0.049
	c0.262,0,0.51-0.034,0.756-0.098c-1.309-0.265-2.291-1.404-2.291-2.768c0-0.011,0-0.031,0-0.042c0.391,0.214,0.83,0.338,1.291,0.354
	C4.428,8.41,3.93,7.54,3.93,6.564c0-0.517,0.131-1.007,0.379-1.422c1.404,1.708,3.504,2.836,5.863,2.949
	c-0.045-0.205-0.076-0.419-0.076-0.643c0-1.557,1.277-2.82,2.848-2.82c0.818,0,1.561,0.341,2.077,0.891
	c0.653-0.131,1.259-0.366,1.806-0.688c-0.212,0.661-0.66,1.216-1.252,1.56c0.577-0.061,1.125-0.218,1.637-0.442
	C16.826,6.521,16.352,7.015,15.788,7.416z"/>
</svg>
