<?xml version="1.0" encoding="utf-8"?>
<!-- Generator: Adobe Illustrator 16.0.0, SVG Export Plug-In . SVG Version: 6.00 Build 0)  -->
<!DOCTYPE svg PUBLIC "-//W3C//DTD SVG 1.1//EN" "http://www.w3.org/Graphics/SVG/1.1/DTD/svg11.dtd">
<svg version="1.1" id="Layer_1" xmlns="http://www.w3.org/2000/svg" xmlns:xlink="http://www.w3.org/1999/xlink" x="0px" y="0px"
	 width="20.227px" height="20.092px" viewBox="0 0 20.227 20.092" enable-background="new 0 0 20.227 20.092" xml:space="preserve">
<g>
	<g>
		<path fill-rule="evenodd" clip-rule="evenodd" fill="#524741" d="M8.771,15.709c-0.197,0.275-0.381,0.408-0.561,0.408
			c-0.116,0-0.18-0.066-0.203-0.203c-0.008-0.028-0.008-0.135-0.008-0.339v-3.544H7.122v3.807c0,0.342,0.027,0.57,0.078,0.715
			c0.084,0.244,0.283,0.357,0.564,0.357c0.323,0,0.649-0.193,1.006-0.59v0.523h0.877v-4.812H8.771V15.709z"/>
	</g>
	<g>
		<polygon fill-rule="evenodd" clip-rule="evenodd" fill="#524741" points="3.932,11.296 4.966,11.296 4.966,16.844 5.939,16.844 
			5.939,11.296 6.991,11.296 6.991,10.382 3.932,10.382 		"/>
	</g>
	<g>
		<path fill-rule="evenodd" clip-rule="evenodd" fill="#524741" d="M12.194,11.973c-0.326,0-0.622,0.173-0.908,0.52v-2.11h-0.881
			v6.461h0.881v-0.467c0.293,0.363,0.594,0.533,0.908,0.533c0.349,0,0.582-0.183,0.701-0.539c0.057-0.202,0.088-0.527,0.088-0.971
			v-1.918c0-0.456-0.031-0.773-0.088-0.969C12.776,12.155,12.543,11.973,12.194,11.973z M12.107,15.469
			c0,0.435-0.132,0.648-0.386,0.648c-0.143,0-0.291-0.066-0.436-0.214v-2.937c0.145-0.141,0.293-0.207,0.436-0.207
			c0.254,0,0.386,0.218,0.386,0.654V15.469z"/>
	</g>
	<g>
		<path fill-rule="evenodd" clip-rule="evenodd" fill="#524741" d="M9.913,7.084c0.285,0,0.422-0.227,0.422-0.676V4.359
			c0-0.449-0.137-0.673-0.422-0.673c-0.293,0-0.42,0.224-0.42,0.673v2.049C9.493,6.857,9.62,7.084,9.913,7.084z"/>
	</g>
	<g>
		<path fill-rule="evenodd" clip-rule="evenodd" fill="#524741" d="M18.267,0.043H1.973c-1.108,0-2.002,0.89-2.002,1.986
			l-0.013,16.03c0,1.096,0.896,1.989,2,1.989h16.297c1.109,0,2.004-0.894,2.004-1.989l0.01-16.03
			C20.269,0.933,19.371,0.043,18.267,0.043z M11.955,2.955h0.889v3.579c0,0.207,0,0.317,0.007,0.34
			c0.018,0.138,0.091,0.21,0.209,0.21c0.173,0,0.363-0.136,0.559-0.414V2.955h0.89v4.863h-0.89V7.288
			c-0.352,0.4-0.689,0.6-1.012,0.6c-0.287,0-0.482-0.12-0.574-0.363c-0.047-0.149-0.077-0.384-0.077-0.726V2.955z M8.603,4.537
			c0-0.52,0.09-0.9,0.276-1.146c0.247-0.33,0.589-0.497,1.034-0.497c0.443,0,0.789,0.167,1.033,0.497
			c0.186,0.245,0.276,0.626,0.276,1.146v1.708c0,0.514-0.091,0.896-0.276,1.142c-0.244,0.331-0.59,0.502-1.033,0.502
			c-0.445,0-0.787-0.171-1.034-0.502C8.692,7.141,8.603,6.758,8.603,6.244V4.537z M6.226,1.289l0.699,2.562l0.676-2.562h0.994
			L7.407,5.175v2.644H6.423V5.175C6.335,4.704,6.14,4.017,5.821,3.108C5.614,2.501,5.4,1.893,5.19,1.289H6.226z M17.129,17.136
			c-0.179,0.766-0.812,1.329-1.573,1.417c-1.799,0.2-3.625,0.2-5.439,0.2c-1.821,0-3.644,0-5.446-0.2
			c-0.76-0.088-1.392-0.651-1.57-1.417c-0.253-1.095-0.253-2.29-0.253-3.408c0-1.13,0.002-2.321,0.257-3.418
			c0.181-0.765,0.809-1.333,1.568-1.418C6.479,8.691,8.3,8.689,10.118,8.691c1.814-0.002,3.639,0,5.441,0.201
			c0.763,0.085,1.394,0.653,1.569,1.418c0.255,1.097,0.251,2.288,0.251,3.418C17.38,14.846,17.38,16.041,17.129,17.136z"/>
	</g>
	<g>
		<path fill-rule="evenodd" clip-rule="evenodd" fill="#524741" d="M14.992,11.973c-0.45,0-0.8,0.165-1.051,0.49
			c-0.188,0.246-0.274,0.623-0.274,1.139v1.685c0,0.508,0.096,0.894,0.283,1.13c0.25,0.329,0.603,0.494,1.062,0.494
			c0.455,0,0.82-0.17,1.064-0.52c0.102-0.154,0.172-0.329,0.201-0.521c0.01-0.09,0.02-0.283,0.02-0.563v-0.127h-0.896
			c0,0.348-0.009,0.541-0.015,0.593c-0.055,0.23-0.181,0.346-0.395,0.346c-0.302,0-0.45-0.221-0.45-0.666v-0.855h1.756v-0.994
			c0-0.516-0.088-0.893-0.271-1.139C15.781,12.138,15.432,11.973,14.992,11.973z M15.419,13.871h-0.877v-0.446
			c0-0.447,0.148-0.665,0.441-0.665c0.289,0,0.436,0.218,0.436,0.665V13.871z"/>
	</g>
</g>
</svg>
