<?xml version="1.0" encoding="utf-8"?>
<!-- Generator: Adobe Illustrator 16.0.0, SVG Export Plug-In . SVG Version: 6.00 Build 0)  -->
<!DOCTYPE svg PUBLIC "-//W3C//DTD SVG 1.1//EN" "http://www.w3.org/Graphics/SVG/1.1/DTD/svg11.dtd">
<svg version="1.1" id="Layer_1" xmlns="http://www.w3.org/2000/svg" xmlns:xlink="http://www.w3.org/1999/xlink" x="0px" y="0px"
	 width="125px" height="30px" viewBox="0 0 125 30" enable-background="new 0 0 125 30" xml:space="preserve">
<path fill="#FFFFFF" d="M3.062,4.469c1.586,1.319,6.83-2.091,8.528-0.883c1.681,1.196,0.175,7.267,1.958,8.347
	c1.764,1.068,6.449-3.076,8.307-2.127c1.836,0.938,1.217,7.164,3.137,7.979c1.896,0.806,5.951-3.957,7.924-3.276
	c1.947,0.673,2.197,6.924,4.213,7.469c1.988,0.537,5.355-4.734,7.403-4.326c2.019,0.402,3.106,6.562,5.178,6.834
	c2.04,0.268,4.679-5.404,6.765-5.27c2.053,0.133,3.936,6.099,6.027,6.099c2.091,0,3.974-5.966,6.027-6.099
	c2.086-0.135,4.725,5.536,6.766,5.27c2.07-0.271,3.158-6.432,5.177-6.834c2.048-0.408,5.415,4.863,7.403,4.326
	c2.016-0.545,2.264-6.797,4.211-7.469c1.973-0.681,6.025,4.082,7.923,3.277c1.92-0.816,1.302-7.041,3.137-7.979
	c1.857-0.949,6.542,3.194,8.306,2.127c1.783-1.08,0.277-7.15,1.959-8.346c1.697-1.208,6.941,2.202,8.527,0.884
	c0.837-0.696,0.582-2.603,0.357-4.472H2.705C2.48,1.868,2.227,3.773,3.062,4.469z"/>
</svg>
